<?xml version="1.0" standalone="no"?>
<!DOCTYPE svg PUBLIC "-//W3C//DTD SVG 1.1//EN" "http://www.w3.org/Graphics/SVG/1.1/DTD/svg11.dtd" >
<svg>
<metadata>
Created by FontForge 20090622 at Wed Jun 28 09:48:11 2017
 By ffonts
Copyright (c) 2012 by Scott Simpson. All rights reserved.
</metadata>
<defs>
<font id="Mermaid-Bold" horiz-adv-x="1500" >
  <font-face 
    font-family="Mermaid"
    font-weight="700"
    font-stretch="normal"
    units-per-em="2000"
    panose-1="0 0 0 0 0 0 0 0 0 0"
    ascent="1500"
    descent="-500"
    x-height="900"
    cap-height="1350"
    bbox="-819 -757 2128.07 1800.71"
    underline-thickness="50"
    underline-position="-150"
    unicode-range="U+0020-U+FB01"
  />
<missing-glyph horiz-adv-x="390" 
 />
    <glyph glyph-name=".notdef" horiz-adv-x="390" 
 />
    <glyph glyph-name="B" unicode="B" horiz-adv-x="1198" 
d="M905 697q82 -21 135 -56.5t84 -80t43 -96t12 -105.5q0 -72 -25 -137t-81.5 -114.5t-148 -78.5t-224.5 -29h-659q-10 0 -15 4.5t-5.5 10t4 10.5t13.5 7q12 2 38 8.5t52.5 23.5t46.5 46t20 76v978q0 46 -20 75.5t-46.5 46t-52.5 23.5t-38 9q-9 1 -13.5 6.5t-4 11t5.5 10
t15 4.5h696q105 0 175.5 -25t114 -68.5t62 -102t18.5 -124.5q0 -46 -10 -92t-33.5 -88t-63 -78t-97.5 -63q-6 -3 -5 -6.5t7 -5.5zM525 785q0 -28 15.5 -44.5t44.5 -16.5q26 0 57.5 12t58.5 46.5t45 97t18 163.5q0 44 -3 89t-16 81.5t-38 59.5t-69 23q-36 0 -58.5 -13.5
t-34.5 -41t-16 -68t-4 -94.5v-294zM658 57q39 0 65.5 16.5t44 43.5t27 60.5t13.5 67.5t5 65t1 53q0 76 -12 128.5t-32 86.5t-44.5 52.5t-49 27t-47 10t-37.5 1.5q-31 0 -49 -16.5t-18 -44.5v-314q0 -54 5.5 -98t20.5 -74.5t40.5 -47.5t66.5 -17z" />
    <glyph glyph-name="C" unicode="C" horiz-adv-x="1229" 
d="M40 668q0 146 56 275t154.5 226t231.5 153t288 56q85 0 152.5 -13t115.5 -29.5t75.5 -31t30.5 -17.5q12 -9 12 -21v-237q0 -7 -4 -11t-9 -5t-10 2t-8 9q-19 45 -45.5 97t-66.5 96.5t-95.5 73.5t-131.5 29q-97 0 -165.5 -50.5t-112 -138t-63.5 -205t-20 -250.5
q0 -134 31.5 -238t93.5 -175.5t155.5 -109t216.5 -37.5q65 0 135.5 14t137.5 49q7 4 13.5 2.5t10 -5.5t3 -10.5t-7.5 -13.5q-87 -86 -204 -133t-265 -47q-167 0 -298 54t-221.5 148.5t-138 221t-47.5 272.5z" />
    <glyph glyph-name="D" unicode="D" horiz-adv-x="1453" 
d="M755 1350q171 0 295.5 -52t205.5 -142t120 -212t39 -262q0 -142 -41.5 -266t-125.5 -216.5t-211 -146t-298 -53.5h-698q-10 0 -15 4.5t-5.5 10t4 10.5t13.5 7q12 2 38 8.5t52.5 23.5t46.5 46t20 76v978q0 46 -20 75.5t-46.5 46t-52.5 23.5t-38 9q-9 1 -13.5 6.5t-4 11
t5.5 10t15 4.5h714zM739 61q78 0 133 46t90.5 127.5t51.5 194t16 246.5q0 133 -15.5 242.5t-48.5 189t-85.5 126t-125.5 53.5q-12 1 -33 1.5t-45 1t-47 0.5h-38q-31 0 -49 -17t-18 -45v-748q0 -113 10.5 -192t35.5 -129.5t66 -73.5t102 -23z" />
    <glyph glyph-name="E" unicode="E" horiz-adv-x="1135" 
d="M1092 288q6 16 19 14.5t13 -17.5v-266q0 -19 -21 -19h-1062q-10 0 -15 4.5t-5.5 10t4 10.5t13.5 7q12 2 38 8.5t52.5 23.5t46.5 46t20 76v978q0 46 -20 75.5t-46.5 46t-52.5 23.5t-38 9q-9 1 -13.5 6.5t-4 11t5.5 10t15 4.5h975q21 0 21 -19v-208q0 -15 -12 -16.5
t-20 12.5q-6 13 -24 41.5t-50 58t-80 52t-115 22.5q-47 0 -86 -8t-66.5 -25.5t-43 -45t-15.5 -66.5v-422v15q0 -6 4.5 -10.5t10.5 -4.5h128q45 0 73.5 18t45 42t23.5 47.5t9 35.5q1 8 6.5 11.5t11 3t10 -5t4.5 -12.5v-340q0 -8 -4.5 -12.5t-10 -5t-11 3t-6.5 11.5
q-2 12 -9 35.5t-23.5 47.5t-45 42t-73.5 18h-128q-6 0 -10.5 -4.5t-4.5 -10.5v15v-461q0 -71 62 -108t176 -37q54 0 98.5 14.5t80 36.5t62 49.5t45 52.5t29 45.5t14.5 29.5z" />
    <glyph glyph-name="F" unicode="F" horiz-adv-x="1052" 
d="M1016 1350q21 0 21 -19v-218q0 -15 -12 -16.5t-20 12.5q-6 13 -24 43t-50 61.5t-80 55.5t-115 24q-47 0 -86 -8t-66.5 -25.5t-43 -45t-15.5 -66.5v-437v15q0 -6 4.5 -10.5t10.5 -4.5h128q45 0 73.5 18t45 42t23.5 47.5t9 35.5q1 8 6.5 11.5t11 3t10 -5t4.5 -12.5v-340
q0 -8 -4.5 -12.5t-10 -5t-11 3t-6.5 11.5q-2 12 -9 35.5t-23.5 47.5t-45 42t-73.5 18h-128q-6 0 -10.5 -4.5t-4.5 -10.5v15v-465q0 -47 20 -76t46.5 -46t52.5 -23.5t38 -8.5q9 -2 13.5 -7t4 -10.5t-5.5 -10t-15 -4.5h-638q-10 0 -15 4.5t-5.5 10t4 10.5t13.5 7q12 2 38 8.5
t52.5 23.5t46.5 46t20 76v978q0 46 -20 75.5t-46.5 46t-52.5 23.5t-38 9q-9 1 -13.5 6.5t-4 11t5.5 10t15 4.5h975v0z" />
    <glyph glyph-name="G" unicode="G" horiz-adv-x="1365" 
d="M40 667q0 97 26 187.5t74 169.5t115.5 144.5t149.5 112t177 72t198 25.5q85 0 154 -13.5t119 -30t79 -31t32 -17.5q12 -9 12 -21v-210q0 -7 -4 -11t-9 -5t-10 2t-8 9q-19 45 -47 93t-71 87t-102 64t-139 25q-97 0 -165.5 -50.5t-112 -138t-63.5 -205t-20 -250.5
q0 -134 20 -251t60.5 -204.5t101.5 -138t143 -50.5q77 0 120.5 33t65 85.5t26.5 116.5t5 126v79q0 45 -20 74t-46.5 46.5t-52.5 24.5t-38 9q-9 1 -13.5 6.5t-4 11t5.5 10t15 4.5h452q15 0 23.5 -8.5t8.5 -22.5v-509q0 -16 -6 -23t-17 -11l-140.5 -43t-125 -35t-127 -24
t-146.5 -9q-153 0 -280.5 54t-219.5 148t-143.5 220.5t-51.5 272.5z" />
    <glyph glyph-name="H" unicode="H" horiz-adv-x="1485" 
d="M1446 32q9 -2 13.5 -7t4 -10.5t-5.5 -10t-15 -4.5h-638q-10 0 -15 4.5t-5.5 10t4 10.5t13.5 7q12 2 38 8.5t52.5 23.5t46.5 46t20 76v476h-434v-476q0 -47 20 -76t46.5 -46t52.5 -23.5t38 -8.5q9 -2 13.5 -7t4 -10.5t-5.5 -10t-15 -4.5h-638q-10 0 -15 4.5t-5.5 10
t4 10.5t13.5 7q12 2 38 8.5t52.5 23.5t46.5 46t20 76v978q0 46 -20 75.5t-46.5 46t-52.5 23.5t-38 9q-9 1 -13.5 6.5t-4 11t5.5 10t15 4.5h638q10 0 15 -4.5t5.5 -10t-4 -11t-13.5 -6.5q-12 -2 -38 -9t-52.5 -23.5t-46.5 -46t-20 -75.5v-437h434v437q0 46 -20 75.5t-46.5 46
t-52.5 23.5t-38 9q-9 1 -13.5 6.5t-4 11t5.5 10t15 4.5h638q10 0 15 -4.5t5.5 -10t-4 -11t-13.5 -6.5q-12 -2 -38 -9t-52.5 -23.5t-46.5 -46t-20 -75.5v-978q0 -47 20 -76t46.5 -46t52.5 -23.5t38 -8.5z" />
    <glyph glyph-name="I" unicode="I" horiz-adv-x="719" 
d="M682 32q9 -2 13.5 -7t4 -10.5t-5.5 -10t-15 -4.5h-638q-10 0 -15 4.5t-5.5 10t4 10.5t13.5 7q12 2 38 8.5t52.5 23.5t46.5 46t20 76v978q0 46 -20 75.5t-46.5 46t-52.5 23.5t-38 9q-9 1 -13.5 6.5t-4 11t5.5 10t15 4.5h638q10 0 15 -4.5t5.5 -10t-4 -11t-13.5 -6.5
q-12 -2 -38 -9t-52.5 -23.5t-46.5 -46t-20 -75.5v-978q0 -47 20 -76t46.5 -46t52.5 -23.5t38 -8.5z" />
    <glyph glyph-name="J" unicode="J" horiz-adv-x="777" 
d="M572 349q0 -142 -20.5 -248.5t-56 -183t-84 -126t-105 -78t-119 -40t-125.5 -11.5q-95 0 -153.5 16.5t-91 42.5t-44 57t-11.5 60q0 51 34.5 84.5t88.5 33.5q14 0 25.5 -1t25.5 -6q23 -8 38.5 -22t26.5 -32t18 -39t12 -43q3 -12 7 -26.5t11 -27.5t18 -22t28 -9q31 0 58 20
t47 72t31 141t11 226v977q0 46 -20 75.5t-46.5 46t-52.5 23.5t-38 9q-9 1 -13.5 6.5t-4 11t5.5 10t15 4.5h638q10 0 15 -4.5t5.5 -10t-4 -11t-13.5 -6.5q-12 -2 -38 -9t-52.5 -23.5t-46.5 -46t-20 -75.5v-815v0z" />
    <glyph glyph-name="K" unicode="K" horiz-adv-x="1229" 
d="M1222 127q11 4 22 -1.5t6 -24.5q-6 -23 -25.5 -45.5t-49.5 -41.5t-68 -30.5t-82 -11.5q-37 0 -74 7t-70 24t-60.5 45t-45.5 70q-15 36 -23 82.5t-13 106.5q-7 77 -17 131.5t-22 90t-26.5 56t-29.5 30.5t-30 12.5t-29 2.5q-17 0 -28.5 -6t-18.5 -16t-10 -21.5t-3 -21.5
v-379q0 -47 20 -76t46.5 -46t52.5 -23.5t38 -8.5q9 -2 13.5 -7t4 -10.5t-5.5 -10t-15 -4.5h-638q-10 0 -15 4.5t-5.5 10t4 10.5t13.5 7q12 2 38 8.5t52.5 23.5t46.5 46t20 76v978q0 46 -20 75.5t-46.5 46t-52.5 23.5t-38 9q-9 1 -13.5 6.5t-4 11t5.5 10t15 4.5h638
q10 0 15 -4.5t5.5 -10t-4 -11t-13.5 -6.5q-12 -2 -38 -9t-52.5 -23.5t-46.5 -46t-20 -75.5v-409q0 -28 8.5 -46.5t32.5 -18.5q16 0 28.5 6.5t23.5 18t21.5 27.5l22.5 36l27 45.5l43.5 75l51.5 90.5l51 93.5l43 83t28 58.5q13 32 5.5 50t-24 27t-36 12l-31.5 5
q-9 1 -13.5 6.5t-4 11t5.5 10t15 4.5h379q10 0 15 -4.5t5.5 -10.5t-4 -11t-13.5 -6q-15 -2 -38 -5.5t-49 -15t-54 -33.5t-52 -60l-45 -69.5l-61 -96.5l-67 -105.5l-62 -97.5l-46.5 -73t-19.5 -32q-4 -7 -0.5 -9.5t9.5 -1.5q9 1 19.5 1h21.5q41 0 82 -8t78 -26t68 -47t54 -71
q20 -38 28.5 -94t11.5 -119q3 -69 8 -114.5t17 -71.5q9 -21 23.5 -31.5t30.5 -14.5t32 -2.5t28 6.5z" />
    <glyph glyph-name="L" unicode="L" horiz-adv-x="1086" 
d="M1052 315q6 16 19 14.5t13 -17.5v-293q0 -19 -21 -19h-1022q-10 0 -15 4.5t-5.5 10t4 10.5t13.5 7q12 2 38 8.5t52.5 23.5t46.5 46t20 76v978q0 46 -20 75.5t-46.5 46t-52.5 23.5t-38 9q-9 1 -13.5 6.5t-4 11t5.5 10t15 4.5h638q10 0 15 -4.5t5.5 -10t-4 -11t-13.5 -6.5
q-12 -2 -38 -9t-52.5 -23.5t-46.5 -46t-20 -75.5v-1031q0 -24 6.5 -38.5t25 -22t52 -10t87.5 -2.5q65 0 115.5 16.5t89 41.5t65.5 56t45 59t27.5 50.5z" />
    <glyph glyph-name="M" unicode="M" horiz-adv-x="1739" 
d="M1701 32q9 -2 13.5 -7t4 -10.5t-5.5 -10t-15 -4.5h-638q-10 0 -15 4.5t-5.5 10t4 10.5t13.5 7q12 2 38 8.5t52.5 23.5t46.5 46t20 76v927q0 7 -5.5 9.5t-10.5 -7.5q-2 -4 -15 -36.5l-34 -86l-49 -123l-59 -147.5l-63.5 -160l-63.5 -159.5l-58.5 -146.5l-48.5 -121.5
l-34 -83.5t-14 -33q-6 -10 -15.5 -10t-14.5 10q-1 2 -14 35.5l-35 89.5l-51 130.5l-61.5 158l-66.5 172l-66.5 172.5l-61.5 159l-51 132.5l-36 92.5t-15 39q-3 8 -9 8t-7 -10v-47.5v-116.5v-162.5v-184.5v-500q0 -47 20 -76t46.5 -46t52.5 -23.5t38 -8.5q9 -2 13.5 -7
t4 -10.5t-5.5 -10t-15 -4.5h-378q-10 0 -15 4.5t-5.5 10t4 10.5t13.5 7q12 2 38 8.5t52.5 23.5t46.5 46t20 76v978q0 46 -20 75.5t-46.5 46t-52.5 23.5t-38 9q-9 1 -13.5 6.5t-4 11t5.5 10t15 4.5h493q29 0 39 -24l27 -72l41 -106.5l49 -128.5l52 -137.5l50.5 -132.5
l44 -115l32.5 -84.5t16 -40.5q2 -5 6 -5.5t6 4.5l15 38l33.5 83.5l46.5 115l53.5 133.5l55 138l52 129.5l43.5 108l29 72.5q10 24 41 24h442q10 0 15 -4.5t5.5 -10t-4 -11t-13.5 -6.5q-12 -2 -38 -9t-52.5 -23.5t-46.5 -46t-20 -75.5v-978q0 -47 20 -76t46.5 -46t52.5 -23.5
t38 -8.5z" />
    <glyph glyph-name="N" unicode="N" horiz-adv-x="1398" 
d="M1368 1350q10 0 15 -4.5t5.5 -10t-4 -11t-13.5 -6.5q-12 -2 -38 -9t-52.5 -23.5t-46.5 -46t-20 -75.5v-1152q0 -15 -11.5 -20.5t-24.5 7.5q-3 3 -29.5 34.5l-70.5 83.5l-102 120.5l-122.5 145l-132.5 157.5l-132 157.5l-121 144.5l-100 119l-68.5 81t-26.5 31
q-7 7 -12 4.5t-5 -11.5v-880q0 -47 20 -76t46.5 -46t52.5 -23.5t38 -8.5q9 -2 13.5 -7t4 -10.5t-5.5 -10t-15 -4.5h-380q-10 0 -15 4.5t-5.5 10t4 10.5t13.5 7q12 2 38 8.5t52.5 23.5t46.5 46t20 76v978q0 46 -20 75.5t-46.5 46t-52.5 23.5t-38 9q-9 1 -13.5 6.5t-4 11
t5.5 10t15 4.5h397q31 0 49 -21l57 -68l86.5 -102.5l104 -124l111 -132l107 -126.5l91.5 -108.5l64.5 -76.5t26.5 -31q8 -8 13 -6t5 12v598q0 46 -20 75.5t-46.5 46t-52.5 23.5t-38 9q-9 1 -13.5 6.5t-4 11t5.5 10t15 4.5h380v0z" />
    <glyph glyph-name="O" unicode="O" 
d="M765 1378q101 0 192 -24.5t168.5 -69.5t139.5 -108.5t105 -140.5t66.5 -166.5t23.5 -186.5t-25.5 -187.5t-72 -169t-112.5 -144t-146.5 -112t-173.5 -72t-195 -25.5q-153 0 -280.5 54t-219.5 148t-143.5 220.5t-51.5 272.5q0 97 25.5 187.5t72 169.5t112.5 144.5
t146.5 112t173.5 72t195 25.5zM750 31q82 0 143 50.5t101.5 138t60.5 204.5t20 251q0 133 -20 250.5t-60.5 205t-101.5 138t-143 50.5t-143 -50.5t-101.5 -138t-60.5 -205t-20 -250.5q0 -134 20 -251t60.5 -204.5t101.5 -138t143 -50.5z" />
    <glyph glyph-name="P" unicode="P" horiz-adv-x="1167" 
d="M1165 1156q21 -45 31 -97t8.5 -104.5t-13.5 -103t-36 -94.5q-26 -48 -69 -83.5t-95 -59t-108 -34.5t-107 -11q-25 0 -54 1t-59.5 5t-62 11.5t-61.5 21.5q-9 4 -11.5 0.5t-2.5 -6.5v-416q0 -47 20 -76t46.5 -46t52.5 -23.5t38 -8.5q9 -2 13.5 -7t4 -10.5t-5.5 -10
t-15 -4.5h-638q-10 0 -15 4.5t-5.5 10t4 10.5t13.5 7q12 2 38 8.5t52.5 23.5t46.5 46t20 76v978q0 46 -20 75.5t-46.5 46t-52.5 23.5t-38 9q-9 1 -13.5 6.5t-4 11t5.5 10t15 4.5h484h166q57 0 112.5 -1t108 -11t102 -33t95.5 -66q17 -17 31.5 -39t24.5 -44zM644 647
q57 0 96 22.5t64 64.5t36 101.5t11 133.5q0 63 -4.5 121t-22 102t-52.5 70.5t-96 26.5q-46 0 -75 -15.5t-46 -41.5t-23.5 -59.5t-6.5 -69.5v-330q0 -66 32.5 -96t86.5 -30z" />
    <glyph glyph-name="Q" unicode="Q" 
d="M735 -28q-153 0 -280.5 54t-219.5 148t-143.5 220.5t-51.5 272.5q0 97 25.5 187.5t72 169.5t112.5 144.5t146.5 112t173.5 72t195 25.5q101 0 192 -24.5t168.5 -69.5t139.5 -108.5t105 -140.5t66.5 -166.5t23.5 -186.5t-25.5 -187.5t-72 -169t-112.5 -144t-146.5 -112
t-173.5 -72t-195 -25.5zM750 1319q-82 0 -143 -50.5t-101.5 -138t-60.5 -205t-20 -250.5q0 -134 20 -251t60.5 -204.5t101.5 -138t143 -50.5t143 50.5t101.5 138t60.5 204.5t20 251q0 133 -20 250.5t-60.5 205t-101.5 138t-143 50.5zM1363 -20q9 5 18 -2.5t2 -17.5
q-33 -47 -85.5 -100t-123 -98t-158.5 -75t-192 -30q-61 0 -112 11t-95 27.5t-83 36t-76.5 36t-74.5 27.5t-77 11q-39 0 -64 -6.5t-35 -9.5q-13 -5 -21 4.5t5 22.5q6 6 36 27t78.5 43.5t113.5 40.5t141 18q66 0 121 -7.5t104 -18.5q29 -7 57 -14.5t58 -13.5t62.5 -10t71.5 -4
q55 0 104.5 10.5t92 26t76 33.5t56.5 32z" />
    <glyph glyph-name="R" unicode="R" horiz-adv-x="1313" 
d="M1254 127q12 4 22.5 -1.5t5.5 -24.5q-6 -23 -25.5 -45.5t-49 -41.5t-67.5 -30.5t-82 -11.5q-37 0 -74 7t-70.5 24t-60.5 45t-45 70q-16 36 -24.5 82.5t-13.5 106.5q-10 116 -29.5 183.5t-45 102t-54.5 43.5t-56 9q-34 0 -47 -13t-13 -45v-401q0 -47 20 -76t46.5 -46
t52.5 -23.5t38 -8.5q9 -2 13.5 -7t4 -10.5t-5.5 -10t-15 -4.5h-638q-10 0 -15 4.5t-5.5 10t4 10.5t13.5 7q12 2 38 8.5t52.5 23.5t46.5 46t20 76v978q0 46 -20 75.5t-46.5 46t-52.5 23.5t-38 9q-9 1 -13.5 6.5t-4 11t5.5 10t15 4.5h616q57 0 112.5 -1t108 -10t102 -30
t95.5 -61q37 -33 60.5 -78.5t33 -95.5t4 -102t-26.5 -97q-36 -80 -94 -123.5t-139 -66.5q-8 -2 -9 -6.5t6 -5.5l28 -7t45 -16.5t50 -31.5t42 -50q21 -37 29.5 -93.5t10.5 -119.5q4 -69 8.5 -114.5t16.5 -71.5q9 -21 23.5 -31.5t30.5 -14.5t32 -2.5t28 6.5zM548 703
q26 0 57.5 2t63 11.5t61 30t52 58t36 94.5t13.5 140q0 72 -11 120.5t-31.5 78t-50 42.5t-66.5 13q-33 0 -60 -8.5t-46.5 -27.5t-30 -48t-10.5 -71v-413q0 -22 23 -22z" />
    <glyph glyph-name="S" unicode="S" horiz-adv-x="1073" 
d="M45 5v356q0 17 12 19.5t18 -11.5q36 -82 78.5 -145t94 -105.5t113.5 -64.5t138 -22q43 0 82 12.5t68.5 39.5t47 69t17.5 101q0 56 -20.5 98.5t-55 75.5t-78.5 57.5t-90 44.5q-51 22 -100.5 46t-94.5 54t-82.5 69t-63.5 90q-23 44 -35.5 90t-12.5 95q0 71 25 143t82 130
t148.5 94.5t225.5 36.5q85 0 147 -13.5t103.5 -30t63.5 -31t25 -17.5q12 -9 12 -21v-182q0 -7 -4 -11.5t-9 -5t-10 2t-8 9.5q-19 45 -45 89.5t-65.5 79t-96.5 56t-137 21.5q-104 0 -162 -49t-58 -133q0 -48 16 -84t54.5 -67.5t102.5 -63t161 -70.5q94 -38 166 -82
t120.5 -98.5t73 -123.5t24.5 -158q0 -88 -31.5 -165t-96.5 -134.5t-164 -90.5t-233 -33q-85 0 -168.5 21.5t-161.5 47.5q-11 4 -24 8t-25 4q-24 0 -35 -15.5t-21 -38.5q-6 -14 -18.5 -12t-12.5 18z" />
    <glyph glyph-name="T" unicode="T" horiz-adv-x="1230" 
d="M1199 1350q21 0 21 -19v-278q0 -16 -13 -17.5t-19 14.5l-14 30.5t-28 48.5t-44 55.5t-61 52.5t-78.5 39.5t-97.5 15.5q-25 0 -41 -7.5t-25.5 -20t-13.5 -29.5t-5 -35v-1014q0 -47 20 -76t46.5 -46t52.5 -23.5t38 -8.5q9 -2 13.5 -7t4 -10.5t-5.5 -10t-15 -4.5h-638
q-10 0 -15 4.5t-5.5 10t4 10.5t13.5 7q12 2 38 8.5t52.5 23.5t46.5 46t20 76v50.5v107v144.5t0.5 164.5t0.5 167v151v118v66.5q0 25 -1.5 49.5t-9.5 44t-25.5 31.5t-49.5 12q-54 0 -98 -15.5t-78.5 -39.5t-60.5 -52.5t-44 -55.5t-28.5 -48.5t-13.5 -30.5q-6 -16 -19 -14.5
t-13 17.5v278q0 19 21 19h1168v0z" />
    <glyph glyph-name="U" unicode="U" horiz-adv-x="1354" 
d="M1210 547q0 -136 -25 -243t-83.5 -180.5t-155 -112.5t-240.5 -39q-137 0 -235.5 29t-161.5 90t-92.5 155t-29.5 225v693q0 46 -20 75.5t-46.5 46t-52.5 23.5t-38 9q-9 1 -13.5 6.5t-4 11t5.5 10t15 4.5h638q10 0 15 -4.5t5.5 -10t-4 -11t-13.5 -6.5q-12 -2 -38 -9
t-52.5 -23.5t-46.5 -46t-20 -75.5v-758q0 -170 73.5 -260.5t225.5 -90.5q22 0 47 4t49.5 11.5t47 17.5t40.5 23q47 33 72.5 83t37 107t13.5 116t2 110v637q0 46 -20 75.5t-46.5 46t-52.5 23.5t-38 9q-9 1 -13.5 6.5t-4 11t5.5 10t15 4.5h393q10 0 15 -4.5t5.5 -10t-4 -11
t-13.5 -6.5q-12 -2 -38 -9t-52.5 -23.5t-46.5 -46t-20 -75.5v-617z" />
    <glyph glyph-name="V" unicode="V" horiz-adv-x="1153" 
d="M956 1193q10 36 -1 58.5t-31.5 36t-44.5 20l-39 10.5q-9 2 -12 7.5t-2 11t5.5 9.5t12.5 4h370q7 0 11.5 -4t5.5 -9.5t-2.5 -10.5t-11.5 -7q-53 -14 -95.5 -43t-68.5 -89q-14 -32 -37.5 -92l-54 -138l-65 -169l-70.5 -186l-71 -188l-65.5 -175l-55.5 -148.5l-40 -106.5
q-5 -12 -15.5 -13t-15.5 12l-34.5 98l-49 138.5l-59 165.5l-64 178.5l-64.5 178l-60.5 163.5l-52 136t-39.5 94q-38 82 -84.5 126.5t-103.5 55.5q-8 1 -11 6.5t-2 11.5t6 10.5t14 4.5h628q7 0 11.5 -4t6 -9.5t-2 -10.5t-13.5 -8l-20.5 -6t-29.5 -11.5t-32 -19t-26.5 -29.5
t-14 -42.5t5.5 -57.5q10 -39 28.5 -93.5l40.5 -116.5l45.5 -126.5l45.5 -122.5l40 -105l28 -74q4 -9 10.5 -8.5t9.5 8.5l28.5 79l41 114l47.5 133l48 136l41.5 123t29.5 94z" />
    <glyph glyph-name="W" unicode="W" horiz-adv-x="1791" 
d="M1855 1349q7 0 11.5 -4t5.5 -9.5t-2.5 -10.5t-11.5 -7q-53 -14 -95.5 -43t-68.5 -89q-14 -32 -37.5 -92l-54 -138l-65 -169l-70.5 -185.5l-71 -187.5l-65.5 -175l-55.5 -148.5l-40 -106.5q-5 -12 -15.5 -13.5t-15.5 12.5q-8 24 -24.5 70l-38 106l-46 128.5l-48.5 136.5
l-47 131.5l-40.5 112.5l-29 80t-12.5 34q-4 8 -10 7t-10 -10l-58.5 -153.5l-58.5 -155.5l-56.5 -150.5l-51 -136.5l-43 -114.5l-31.5 -84.5q-5 -12 -15.5 -13.5t-15.5 12.5l-34.5 98l-49 138.5l-59 165.5l-64 178.5l-64.5 178l-60.5 163.5l-52 135.5t-39.5 93.5
q-38 83 -84.5 127t-103.5 55q-8 1 -11 6.5t-2 11.5t6 10.5t14 4.5h1264q7 0 11.5 -4t6 -9.5t-2 -10.5t-13.5 -8l-20.5 -6t-29.5 -11.5t-32 -19t-26.5 -29.5t-14 -42.5t5.5 -57.5q10 -39 28.5 -93.5l40.5 -116.5l45.5 -126.5l45.5 -122.5l40 -105l28 -74q4 -9 10.5 -8.5
t9.5 8.5l28.5 79l41 114l47.5 133l48 136l41.5 123t29.5 94q10 36 -1 59t-31.5 36.5t-44.5 19.5l-39 10q-9 2 -12 7.5t-2 11t5.5 9.5t12.5 4h370zM725 513l17.5 48l25.5 70l29 81.5t27 81.5t19.5 70.5t7.5 49.5q0 27 -8 58.5t-19.5 62t-23.5 56.5t-19 43q-18 40 -38.5 69.5
t-46 49t-57 28.5t-71.5 9q-21 0 -42 -7t-35 -23t-19.5 -43t5.5 -66q10 -39 28 -93.5l40 -116.5l46 -126.5l46 -122.5l40 -105l28 -74q4 -9 10.5 -8.5t9.5 8.5z" />
    <glyph glyph-name="X" unicode="X" horiz-adv-x="1242" 
d="M1000 1204l-24 -33.5l-36.5 -52l-44 -64l-47.5 -68.5l-120 -176l152 -278l62 -113l61 -108.5l54 -94.5l42 -70q15 -24 37 -44t46 -34.5t47 -23.5t41 -12q10 -2 14.5 -7t3.5 -10.5t-6 -10t-15 -4.5h-611q-10 0 -15 4.5t-5.5 10t4 10.5t13.5 7q12 2 30 6t32.5 14t20 27.5
t-7.5 46.5l-27.5 58l-33 66l-35.5 68.5l-35 67.5l-83 156l-120 -184l-46.5 -72.5l-43 -68l-34 -55.5t-20.5 -36q-15 -31 -9.5 -49t20.5 -27.5t33.5 -12.5l30.5 -5q9 -2 13.5 -7t4 -10.5t-5.5 -10t-15 -4.5h-350q-10 0 -15 4.5t-5.5 10.5t4 11t13.5 6q15 2 36.5 7t47 17
t52 33.5t52.5 56.5l29.5 41.5l44 63l52.5 76l55 80.5l139 204l-134 248l-55.5 100.5l-54.5 97.5l-48.5 84.5t-38.5 62.5t-38 43.5t-46 34.5t-47.5 24t-41.5 12q-9 1 -13.5 6t-4 11t5.5 10.5t15 4.5h612q10 0 15 -4.5t5.5 -10t-4 -11t-13.5 -6.5q-12 -2 -30 -6t-32.5 -13.5
t-20 -27.5t6.5 -47q22 -51 52 -111l58 -112l66 -121l97 150l38 59.5l35.5 56l28.5 47l18 31.5q16 30 11 48t-19 27.5t-32.5 13t-30.5 5.5q-9 1 -13.5 6.5t-4 11t5.5 10t15 4.5h345q10 0 15 -4.5t6 -10.5t-3.5 -11t-14.5 -6q-15 -2 -36.5 -7t-46 -17.5t-51.5 -34t-54 -55.5z
" />
    <glyph glyph-name="Y" unicode="Y" horiz-adv-x="1260" 
d="M1056 1224q16 31 11.5 48.5t-19 27t-32.5 13t-30 5.5q-9 1 -13.5 6.5t-4 11t5.5 10t15 4.5h345q10 0 15 -4.5t5.5 -10.5t-4 -11t-13.5 -6q-15 -2 -36 -7.5t-45.5 -18t-52 -33.5t-54.5 -55l-41 -53l-63 -84.5l-72.5 -99l-70 -96.5l-55 -78t-27.5 -43q-11 -24 -16 -45.5
t-5 -55.5v-463q0 -47 20 -76t46.5 -46t52.5 -23.5t38 -8.5q9 -2 13.5 -7t4 -10.5t-5.5 -10t-15 -4.5h-628q-10 0 -15 4.5t-5.5 10t4 10.5t13.5 7q12 2 38 8.5t52.5 23.5t46.5 46t20 76v366v27t-2 25.5t-7 26t-14 29.5q-6 10 -22.5 35.5l-40.5 62l-52.5 80.5l-58.5 90
l-59.5 90.5l-54.5 81.5l-43 64.5l-26 39.5q-16 23 -38 43t-46 35t-46.5 24t-40.5 12q-9 1 -13.5 6t-4 11t5.5 10.5t15 4.5h628q10 0 15 -4.5t5.5 -10t-4 -11t-13.5 -6.5q-12 -2 -30 -6t-32.5 -13.5t-20 -27.5t7.5 -47q9 -20 30 -57.5l47.5 -82l56 -91.5l55 -86.5l43.5 -66.5
t23 -32q15 -17 31 -2q4 4 25 33l50 71l63 92l64 95l52.5 79.5t28.5 47.5z" />
    <glyph glyph-name="Z" unicode="Z" horiz-adv-x="1177" 
d="M1094 325q6 16 19 14.5t13 -17.5v-303q0 -19 -21 -19h-1034q-38 0 -22 36q1 3 20.5 39.5l52 96l74.5 137.5l89.5 165.5l98 179.5l98 180l90 166.5l75 138l52.5 96.5t22 41q3 7 0.5 10.5t-7.5 3.5h-236q-59 0 -106 -14.5t-82.5 -36.5t-60.5 -49.5t-42 -52.5t-26 -45.5
t-12 -29.5q-6 -16 -19 -14.5t-13 17.5v266q0 19 21 19h945q18 0 23 -9.5t-1 -25.5q-1 -3 -20 -38.5l-51 -95l-74.5 -137.5l-90 -166l-98 -180.5l-98 -180.5l-90 -166l-74.5 -137.5l-51.5 -95t-20.5 -38.5q-7 -15 8 -15h293q67 0 119 17t90.5 42.5t64.5 57t43.5 60t26 51.5
t12.5 32z" />
    <glyph glyph-name="space" unicode=" " horiz-adv-x="390" 
 />
    <glyph glyph-name="a" unicode="a" horiz-adv-x="969" 
d="M916 92q14 3 22 -5.5t1 -22.5q-6 -11 -19.5 -26t-36 -28t-55 -22t-76.5 -9q-61 0 -102.5 24.5t-57.5 56.5q-4 8 -11.5 7t-12.5 -6q-3 -3 -18.5 -16.5t-44 -29t-68.5 -28t-92 -12.5q-89 0 -149.5 25t-98 64.5t-54 89t-16.5 98.5q0 79 44.5 138t115.5 88q38 15 79.5 21.5
l82.5 13.5t80.5 17.5t74.5 34.5q37 25 51.5 64t14.5 83q0 32 -8.5 61.5t-24 51.5t-36 35t-44.5 13q-43 0 -63 -22t-31.5 -53t-21.5 -64.5t-32 -57.5q-18 -19 -46.5 -28.5t-54.5 -9.5q-27 0 -48 9t-36 24.5t-22.5 36t-7.5 43.5q0 31 15 62t53.5 56t103.5 40.5t165 15.5
q111 0 189.5 -22.5t128 -65.5t72 -106.5t22.5 -144.5q0 -97 -6 -182t-8.5 -150.5t2.5 -108t28 -52.5q10 -5 25 -4.5t32 3.5zM569 539q0 6 -5 8t-9 -3l-14.5 -17t-17.5 -19q-19 -20 -39 -37.5l-40 -35.5l-39.5 -32t-36.5 -35q-26 -30 -38.5 -65.5t-12.5 -75.5q0 -27 8 -54.5
t24.5 -49t42 -35t61.5 -13.5t58.5 15t35 36t17.5 42.5t5 33.5v337z" />
    <glyph glyph-name="b" unicode="b" horiz-adv-x="1137" 
d="M716 925q80 0 140 -21t103.5 -57t72 -82t45 -97t23 -102t6.5 -96q0 -113 -27.5 -204t-83 -156t-139.5 -100t-196 -35q-63 0 -111 8t-87.5 23t-73 37.5t-67.5 52.5q-4 3 -7.5 4t-8.5 -4q-11 -9 -30.5 -26.5l-41.5 -38.5l-43.5 -42t-34.5 -36q-8 -9 -17 -5.5t-9 16.5v656
v162.5v153.5t0.5 135t0.5 108v72v26q0 13 -12 16q-2 0 -14.5 3.5t-28.5 7t-29.5 7t-16.5 3.5q-13 3 -13.5 14t14.5 14q39 9 84.5 24.5t91.5 35t89 42t77 45.5q9 6 18.5 5t9.5 -15v-693q2 -4 6 -5t7 4q9 11 30 34.5t57.5 47t90 41t125.5 17.5zM816 423q0 23 -0.5 60t-6 80
t-17.5 87t-35 79t-59 57.5t-89 22.5q-68 0 -109 -25t-63 -61t-29 -76.5t-7 -71.5v-270q0 -38 8.5 -85t30.5 -89t60 -70.5t97 -28.5t100.5 30t68 82.5t38.5 124t12 154.5z" />
    <glyph glyph-name="c" unicode="c" horiz-adv-x="920" 
d="M491 870q-40 0 -73.5 -27.5t-57.5 -77.5t-37 -120.5t-13 -155.5q0 -86 21.5 -153.5t59.5 -114.5t89 -72t110 -25q57 0 104.5 17t84 38t60 40t32.5 23q14 6 22.5 -2.5t-0.5 -25.5q-6 -11 -20 -33t-37.5 -48.5t-56.5 -54.5t-76.5 -51t-98 -37.5t-121.5 -14.5
q-104 0 -187 30t-142 88t-90.5 142.5t-31.5 192.5q0 95 24 169t63.5 129t90.5 93t104.5 61.5t105.5 34t94 10.5q68 0 125 -12.5t98 -35t64 -53t23 -65.5q0 -31 -10.5 -52t-27 -34.5t-37 -19.5t-41.5 -6q-30 0 -56.5 11t-43.5 37q-13 19 -21 49t-18.5 58t-27.5 48t-50 20z
" />
    <glyph glyph-name="d" unicode="d" horiz-adv-x="1152" 
d="M1129 29q8 -2 11.5 -6.5t2.5 -9.5t-5.5 -9t-12.5 -4h-362q-11 0 -17.5 5t-6.5 16v88q0 7 -5 9t-9 -3q-9 -11 -30 -34.5t-57.5 -47t-90 -41t-125.5 -17.5q-80 0 -140 21t-103.5 57t-72 82t-45 97t-23 102t-6.5 96q0 112 27.5 203.5t83 156.5t139 100t196.5 35
q63 0 109 -7.5t76 -17t45 -18t17 -9.5q5 -4 9.5 -2t4.5 7v405q0 13 -12 16q-2 0 -14.5 3l-28.5 7t-29.5 7t-16.5 4q-13 3 -13.5 13.5t14.5 14.5q39 9 84.5 24.5t91.5 35t89 42t77 45.5q9 6 18.5 5t9.5 -15v-1328q0 -40 16 -64.5t36.5 -38t40 -19t27.5 -6.5zM738 595
q0 25 -3.5 55t-12 60.5t-23 58.5t-36.5 50t-52 35.5t-69 13.5q-59 0 -101 -30t-68 -82.5t-38 -124t-12 -154.5q0 -22 0.5 -59.5t6 -80.5t17.5 -87t35 -79t59 -57.5t89 -22.5q68 0 109 25t63 61t29 76.5t7 71.5v270z" />
    <glyph glyph-name="e" unicode="e" horiz-adv-x="907" 
d="M330 530q-16 0 -16 -17q0 -102 18 -175t52.5 -119.5t86 -68.5t119.5 -22q52 0 92.5 11t70.5 25.5t49 27.5t28 17q14 6 22 -2.5t0 -25.5q-3 -6 -13.5 -23.5t-30.5 -40.5t-50 -48t-71.5 -46t-95 -34.5t-119.5 -13.5q-100 0 -181 31.5t-138.5 91.5t-89 146t-31.5 194
q0 118 39 209t102 152.5t143 93.5t163 32q78 0 137.5 -21.5t103 -56t72 -77t46 -84.5t24.5 -79t7 -59q0 -10 -6.5 -14t-17.5 -4h-515zM319 596q-2 -13 12 -13q3 0 20 0.5t41.5 1.5t52.5 2l53.5 2t44 1.5t23.5 1.5q16 1 33.5 14t17.5 45q0 29 -8 67t-25.5 72t-44.5 57.5
t-66 23.5q-31 0 -54 -16.5t-39.5 -43t-27.5 -58.5t-18 -62.5t-10.5 -56t-4.5 -38.5z" />
    <glyph glyph-name="f" unicode="f" horiz-adv-x="687" 
d="M563 1495q58 0 107 -13.5t84.5 -36.5t55.5 -54t20 -66q0 -52 -31 -86t-85 -34t-87 31t-33 86q0 14 1 35.5t-2 41.5t-13 34.5t-32 14.5q-35 0 -57 -26t-34 -72.5t-16.5 -111t-4.5 -140.5v-190q0 -8 8 -8h185q24 0 29.5 -3t5.5 -13q0 -13 -13.5 -27.5t-30.5 -14.5h-177
q-7 0 -7 -7v-673q0 -41 17.5 -66t40 -39.5t44 -20.5t29.5 -7q8 -2 11.5 -6.5t2.5 -9.5t-5.5 -9t-12.5 -4h-524q-8 0 -12.5 4t-5.5 9t2.5 9.5t11.5 6.5q8 1 29.5 7t44 20.5t40 39.5t17.5 66v672q0 8 -7 8h-30q-24 0 -29.5 3t-5.5 13q0 13 11.5 27.5t28.5 14.5h25q7 0 7 8
q0 103 3.5 175t12.5 124t24 89t38 70q27 37 63.5 62t78.5 40t87 21t90 6z" />
    <glyph glyph-name="g" unicode="g" horiz-adv-x="1000" 
d="M656 105q109 -19 181.5 -45.5t115.5 -60.5t60.5 -75.5t17.5 -90.5q0 -31 -11 -65t-36.5 -66.5t-67 -61.5t-102.5 -51.5t-144 -35.5t-190 -13t-186 10.5t-134.5 28t-90.5 40t-54.5 47t-26.5 49t-7 46.5q0 31 16 60.5t45.5 54.5t71 43.5t93.5 28.5q6 2 6.5 5.5t-4.5 7.5
q-42 28 -69 68t-27 96q0 37 13 66t37 51t57.5 37.5t73.5 24.5q7 2 7 7t-6 7q-51 19 -91.5 48.5t-69 66t-44 79.5t-15.5 90q0 66 33 124.5t91 103t136.5 70t168.5 25.5q118 0 212 -43q14 -5 23 2q20 16 27.5 34t8 36.5t-2 35t-2.5 29.5q0 32 21 57t63 25t65 -25.5t23 -68.5
q0 -30 -11.5 -55t-31 -44.5t-45 -34.5t-53.5 -24q-8 -2 -7.5 -7.5t4.5 -7.5q55 -43 86 -101t31 -125q0 -66 -33.5 -125t-91 -103t-136 -69.5t-168.5 -25.5q-23 0 -46 2.5t-46 -1.5q-21 -3 -40 -16t-19 -36q0 -20 13 -36t48 -31t98 -30t162 -32zM495 875q-33 0 -57.5 -21
t-40.5 -58t-24 -86t-8 -105t8 -105t24 -86t40.5 -58t57.5 -21t57 21t40.5 58t24.5 86t8 105t-8 105t-24.5 86t-40.5 58t-57 21zM523 -403q45 0 92.5 8.5t87.5 25t65.5 41.5t25.5 57q0 31 -23.5 52.5t-62.5 37.5t-88.5 26.5t-101.5 19.5q-46 8 -105.5 20t-116.5 33
q-5 2 -12 0q-36 -13 -63 -39t-27 -74q0 -55 28 -94t73.5 -64.5t105 -37.5t122.5 -12z" />
    <glyph glyph-name="h" unicode="h" horiz-adv-x="1159" 
d="M1143 29q8 -2 11.5 -6.5t2.5 -9.5t-5.5 -9t-12.5 -4h-116h-9h-252h-9h-116q-8 0 -12.5 4t-5.5 9t2.5 9.5t11.5 6.5q8 1 27.5 6.5t40 19t36.5 38t16 64.5v367v8v56q-1 42 -6.5 86.5t-23 81t-51 60t-89.5 23.5q-58 0 -90 -23t-47.5 -57t-19 -72.5t-3.5 -68.5v-461
q0 -40 16 -64.5t36.5 -38t40 -19t27.5 -6.5q8 -2 11.5 -6.5t2.5 -9.5t-5.5 -9t-12.5 -4h-502q-8 0 -12.5 4t-5.5 9t2.5 9.5t11.5 6.5q8 1 27.5 6.5t40 19t36.5 38t16 64.5v1126q0 13 -12 16q-2 0 -14.5 3l-28.5 7t-29.5 7t-16.5 4q-13 3 -13.5 13.5t14.5 14.5
q39 9 84.5 24.5t91.5 35t89 42t77 45.5q9 6 18.5 5t9.5 -15v-656q21 19 48 36.5t60.5 30.5t75 21t91.5 8q82 0 137.5 -18t92 -48t56 -69t28 -81t10 -83.5t1.5 -77.5v-5v-386q0 -40 16 -64.5t36.5 -38t40 -19t27.5 -6.5z" />
    <glyph glyph-name="i" unicode="i" horiz-adv-x="573" 
d="M428 915q0 14 -9.5 15t-18.5 -5q-34 -23 -77 -45.5t-89 -42t-91.5 -35t-84.5 -24.5q-15 -4 -14.5 -14.5t13.5 -13.5q3 -1 16.5 -4t29.5 -7l28.5 -7t14.5 -3q12 -3 12 -16v-556q0 -40 -16 -64.5t-36.5 -38t-40 -19t-27.5 -6.5q-8 -2 -11.5 -6.5t-2.5 -9.5t5.5 -9t12.5 -4
h502q8 0 12.5 4t5.5 9t-2.5 9.5t-11.5 6.5q-8 1 -27.5 6.5t-40 19t-36.5 38t-16 64.5v758zM448 1221q0 -33 -13 -62.5t-36 -51t-53.5 -34.5t-66.5 -13q-35 0 -64.5 12.5t-51 33.5t-33.5 50t-12 62t13 62.5t35.5 51.5t53.5 35t66 13q36 0 65.5 -12.5t51 -34t33.5 -50.5
t12 -62z" />
    <glyph glyph-name="j" unicode="j" horiz-adv-x="576" 
d="M423 -9v924q0 14 -9.5 15t-18.5 -5q-34 -23 -77 -45.5t-89 -42t-91.5 -35t-84.5 -24.5q-15 -4 -14.5 -14.5t13.5 -13.5q3 -1 16.5 -4t29.5 -7l28.5 -7t14.5 -3q12 -3 12 -16v-668q0 -83 4.5 -131.5t11 -78.5t14.5 -47.5t14 -37.5q7 -22 12 -47t3.5 -47.5t-11 -39.5
t-30.5 -23q-18 -5 -31 0.5t-22.5 15.5t-15.5 22.5t-9 21.5t-11 31t-23 45.5t-39.5 41t-60.5 17.5q-51 0 -83.5 -27t-32.5 -80q0 -33 16 -61.5t46.5 -49.5t74 -33.5t99.5 -12.5q33 0 71 5.5t76.5 22.5t74 48.5t62.5 83.5t43.5 127t16.5 180zM443 1221q0 -33 -13 -62.5
t-36 -51t-53.5 -34.5t-66.5 -13q-35 0 -64.5 12.5t-51 33.5t-33.5 50t-12 62t13 62.5t35.5 51.5t53.5 35t66 13q36 0 65.5 -12.5t51 -34t33.5 -50.5t12 -62z" />
    <glyph glyph-name="k" unicode="k" horiz-adv-x="1123" 
d="M1204 30q14 -7 13.5 -18.5t-17.5 -11.5h-544q-17 0 -18 12t14 17q15 4 31 11.5t27 19t13.5 28.5t-9.5 41q-3 6 -17.5 24.5l-35 44l-44 54.5l-45.5 55l-39 46t-24 27q-20 21 -31 30t-25 9q-18 0 -24 -10.5t-6 -30.5v-216q0 -41 17.5 -66t40 -39.5t44 -20.5t29.5 -7
q8 -2 11.5 -6.5t2.5 -9.5t-5.5 -9t-12.5 -4h-524q-8 0 -12.5 4t-5.5 9t2.5 9.5t11.5 6.5q8 1 29.5 7t44 20.5t40 39.5t17.5 66v1121q0 13 -12 16q-2 0 -14.5 3l-28.5 7t-29.5 7t-16.5 4q-13 3 -13.5 13.5t14.5 14.5q39 9 84.5 24.5t91.5 35t89 42t77 45.5q9 6 18.5 5
t9.5 -15v-964q0 -25 8 -38.5t28 -13.5q26 0 41 18q21 24 50 62l58 79.5l54.5 81l41.5 65.5q19 32 17.5 51t-13.5 29t-27.5 13t-23.5 5q-8 1 -11.5 6t-2.5 10t5.5 9t12.5 4h287q8 0 12.5 -4t4.5 -9.5t-3.5 -10t-11.5 -5.5t-26 -7t-42 -19t-52 -33.5t-56 -50.5q-8 -8 -25 -31
l-35 -48l-32 -45.5t-15 -23.5q-6 -13 1 -23q7 -11 32.5 -44l61.5 -78l78 -95.5l81.5 -97l72 -83t49.5 -52.5q25 -23 51 -42.5t48.5 -34t39 -23.5t22.5 -12z" />
    <glyph glyph-name="l" unicode="l" horiz-adv-x="578" 
d="M424 162q0 -41 17.5 -66t40 -39.5t44 -20.5t29.5 -7q8 -2 11.5 -6.5t2.5 -9.5t-5.5 -9t-12.5 -4h-524q-8 0 -12.5 4t-5.5 9t2.5 9.5t11.5 6.5q8 1 29.5 7t44 20.5t40 39.5t17.5 66v1121q0 13 -12 16q-2 0 -14.5 3l-28.5 7t-29.5 7t-16.5 4q-13 3 -13.5 13.5t14.5 14.5
q39 9 84.5 24.5t91.5 35t89 42t77 45.5q9 6 18.5 5t9.5 -15v-1323z" />
    <glyph glyph-name="m" unicode="m" horiz-adv-x="1690" 
d="M1669 29q8 -2 11.5 -6.5t2.5 -9.5t-5.5 -9t-12.5 -4h-470q-8 0 -12.5 4t-5.5 9t2.5 9.5t11.5 6.5q8 1 25 5.5t34.5 16.5t31 35t13.5 63v463q-1 40 -7 80.5t-23 73t-47.5 53t-81.5 20.5q-44 0 -71.5 -15t-42.5 -38.5t-21 -52.5t-7 -58v-526q0 -40 13.5 -63t31 -35
t34.5 -16.5t25 -5.5q8 -2 11.5 -6.5t2.5 -9.5t-5.5 -9t-12.5 -4h-470q-8 0 -12.5 4t-5.5 9t2.5 9.5t11.5 6.5q8 1 25 5.5t34.5 16.5t31 35t13.5 63v464q-1 40 -7 80t-23 72.5t-48 53t-81 20.5q-45 0 -72 -15t-42.5 -38.5t-21 -53t-6.5 -58.5v-525q0 -40 13.5 -63t31 -35
t34.5 -16.5t25 -5.5q8 -2 11.5 -6.5t2.5 -9.5t-5.5 -9t-12.5 -4h-470q-8 0 -12.5 4t-5.5 9t2.5 9.5t11.5 6.5q8 1 25 5.5t34.5 16.5t31 35t13.5 63v564q0 13 -12 16q-2 0 -14.5 3l-28.5 7t-29.5 7t-16.5 4q-13 3 -13.5 13.5t14.5 14.5q39 9 84.5 24.5t91.5 35t89 42t77 45.5
q9 6 18.5 5t9.5 -15v-74q45 35 107.5 59.5t149.5 24.5q57 0 101 -9t76.5 -25.5t55.5 -39t38 -49.5q22 23 51 45t66 39.5t82.5 28t100.5 10.5q81 0 135.5 -18t89.5 -48t53 -69t26 -81t9 -83.5t1 -77.5v-5v-394q0 -40 13.5 -63t31 -35t34.5 -16.5t25 -5.5z" />
    <glyph glyph-name="n" unicode="n" horiz-adv-x="1145" 
d="M1140 29q8 -2 11.5 -6.5t2.5 -9.5t-5.5 -9t-12.5 -4h-116h-9h-252h-9h-116q-8 0 -12.5 4t-5.5 9t2.5 9.5t11.5 6.5q8 1 27.5 6.5t40 19t36.5 38t16 64.5v367v8v56q-1 42 -6.5 86.5t-23 81t-51 60t-89.5 23.5q-58 0 -90 -23t-47.5 -57t-19 -72.5t-3.5 -68.5v-461
q0 -40 16 -64.5t36.5 -38t40 -19t27.5 -6.5q8 -2 11.5 -6.5t2.5 -9.5t-5.5 -9t-12.5 -4h-502q-8 0 -12.5 4t-5.5 9t2.5 9.5t11.5 6.5q8 1 27.5 6.5t40 19t36.5 38t16 64.5v556q0 13 -12 16q-2 0 -14.5 3l-28.5 7t-29.5 7t-16.5 4q-13 3 -13.5 13.5t14.5 14.5q39 9 84.5 24.5
t91.5 35t89 42t77 45.5q9 6 18.5 5t9.5 -15v-86q21 19 48 36.5t60.5 30.5t75 21t91.5 8q82 0 137.5 -18t92 -48t56 -69t28 -81t10 -83.5t1.5 -77.5v-5v-386q0 -40 16 -64.5t36.5 -38t40 -19t27.5 -6.5z" />
    <glyph glyph-name="o" unicode="o" horiz-adv-x="1014" 
d="M517 925q103 0 189.5 -36.5t148.5 -100t97 -149.5t35 -184q0 -99 -38 -186t-104 -152.5t-155.5 -103.5t-192.5 -38t-189.5 36.5t-148.5 100t-97 149t-35 184.5q0 98 38 185.5t104 153t155.5 103.5t192.5 38zM507 28q48 0 83.5 33t59 90.5t35.5 134.5t12 164t-12 164
t-35.5 134.5t-59 90.5t-83.5 33t-83.5 -33t-59.5 -90.5t-35.5 -134.5t-11.5 -164t11.5 -164t35.5 -134.5t59.5 -90.5t83.5 -33z" />
    <glyph glyph-name="p" unicode="p" horiz-adv-x="1156" 
d="M734 925q80 0 140 -21t103.5 -57t72 -82t45 -97t23 -102t6.5 -96q0 -113 -27.5 -204t-83 -156t-139.5 -100t-196 -35q-63 0 -109 7.5t-76 17t-45.5 17.5t-16.5 10q-5 4 -9.5 2t-4.5 -7v-310q0 -41 17.5 -66t40 -39.5t44 -20.5t29.5 -7q8 -2 11.5 -6.5t2.5 -9.5t-5.5 -9
t-12.5 -4h-524q-8 0 -12.5 4t-5.5 9t2.5 9.5t11.5 6.5q8 1 29.5 7t44 20.5t40 39.5t17.5 66v1006q0 13 -12 16q-2 0 -14.5 3l-28.5 7t-29.5 7t-16.5 4q-13 3 -13.5 13.5t14.5 14.5q39 9 84.5 24.5t91.5 35t89 42t77 45.5q9 6 18.5 5t9.5 -15v-129q0 -7 5 -9t9 3
q9 11 30 34.5t57.5 47t90 41t125.5 17.5zM834 423q0 23 -0.5 60t-6 80t-17.5 87t-35 79t-59 57.5t-89 22.5q-68 0 -109 -25t-63 -61t-29 -76.5t-7 -71.5v-270q0 -38 8.5 -85t30.5 -89t60 -70.5t97 -28.5t100.5 30t68 82.5t38.5 124t12 154.5z" />
    <glyph glyph-name="q" unicode="q" horiz-adv-x="1141" 
d="M739 109q0 7 -5 9t-9 -3q-9 -11 -30 -34.5t-57.5 -47t-90 -41t-125.5 -17.5q-80 0 -140 21t-103.5 57t-72 82t-45 97t-23 102t-6.5 96q0 112 27.5 203.5t83 156.5t139 100t196.5 35q63 0 111 -8t87.5 -23t73 -37.5t67.5 -52.5q4 -3 7 -4t9 4q11 9 30.5 26.5l41.5 38.5
l43 42l35 36q8 9 17 5.5t9 -16.5v-218v-1006q0 -41 17.5 -66t40 -39.5t44 -20.5t29.5 -7q8 -2 11.5 -6.5t2.5 -9.5t-5.5 -9t-12.5 -4h-524q-8 0 -12.5 4t-5.5 9t2.5 9.5t11.5 6.5q8 1 29.5 7t44 20.5t40 39.5t17.5 66v397zM737 595q0 25 -3.5 55t-12 60.5t-23 58.5t-36.5 50
t-52 35.5t-69 13.5q-59 0 -101 -30t-68 -82.5t-38 -124t-12 -154.5q0 -22 0.5 -59.5t6 -80.5t17.5 -87t35 -79t59 -57.5t89 -22.5q68 0 109 25t63 61t29 76.5t7 71.5v270z" />
    <glyph glyph-name="r" unicode="r" horiz-adv-x="778" 
d="M653 925q42 0 71 -10.5t47 -28t26 -41t8 -49.5q0 -48 -30.5 -75t-81.5 -27q-39 0 -61 14t-37.5 30.5l-28.5 30.5t-32 14q-17 0 -36.5 -11.5t-36 -43.5t-27.5 -88t-11 -145v-346q0 -40 13.5 -63t31 -35t34.5 -16.5t25 -5.5q8 -2 11.5 -6.5t2.5 -9.5t-5.5 -9t-12.5 -4h-100
h-9h-252h-9h-100q-8 0 -12.5 4t-5.5 9t2.5 9.5t11.5 6.5q8 1 25 5.5t34.5 16.5t31 35t13.5 63v564q0 13 -12 16q-2 0 -14.5 3l-28.5 7t-29.5 7t-16.5 4q-13 3 -13.5 13.5t14.5 14.5q39 9 84.5 24.5t91.5 35t89 42t77 45.5q9 6 18.5 5t9.5 -15v-143q35 77 95 115t135 38z" />
    <glyph glyph-name="s" unicode="s" horiz-adv-x="833" 
d="M79 69q0 2 -4.5 28.5l-9.5 58.5l-9.5 60.5t-5.5 35.5q-2 14 8 16.5t15 -5.5q1 -3 13 -21t33 -44t50.5 -56t66 -55.5t79.5 -42t92 -16.5q57 0 89.5 31t32.5 82q0 27 -7 53t-30 52t-66 51.5t-115 51.5q-66 23 -111 55t-73 71.5t-40.5 85t-12.5 96.5q0 39 14 85.5t50.5 87
t99.5 68t161 27.5q62 0 115 -10t92.5 -22.5t63 -23.5t26.5 -12q6 -3 7 -5t2 -7q0 -2 5 -27.5t10 -55.5t10 -55t5 -28q2 -10 -7 -14.5t-16 5.5q-14 20 -44 54t-73 67t-95.5 57.5t-111.5 24.5q-62 0 -91 -33t-29 -80q0 -24 7 -46.5t30 -43.5t66.5 -42.5t116.5 -43.5
q146 -45 221 -122t75 -199q0 -62 -21 -114.5t-65 -91t-112 -60.5t-162 -22q-79 0 -140.5 11.5t-104 25.5t-66.5 26.5t-28 15.5q-2 2 -3.5 6t-2.5 9z" />
    <glyph glyph-name="t" unicode="t" horiz-adv-x="677" 
d="M647 145q18 9 26 -2t1 -23q-18 -32 -45.5 -58.5t-62.5 -46t-76.5 -30t-87.5 -10.5q-50 0 -99 13t-88 46.5t-63.5 91t-24.5 146.5v562q0 8 -8 8h-26q-24 0 -29.5 3t-5.5 13q0 13 11.5 27.5t28.5 14.5h22q7 0 7 8v239q0 22 18 25q25 5 53.5 13.5t58 20t58 25t52.5 28.5
q11 6 20.5 2t9.5 -20v-334q0 -7 8 -7h188q24 0 29.5 -3t5.5 -13q0 -13 -14 -27.5t-31 -14.5h-179q-7 0 -7 -7v-615q0 -27 9.5 -47.5t25 -35t36 -21.5t41.5 -7q43 0 80 12.5t58 23.5z" />
    <glyph glyph-name="u" unicode="u" horiz-adv-x="1145" 
d="M1108 29q8 -2 11.5 -6.5t2.5 -9.5t-5.5 -9t-12.5 -4h-362q-11 0 -17.5 5t-6.5 16v59q-42 -42 -109 -73.5t-166 -31.5q-82 0 -137.5 18t-92 48t-56 69t-28 81t-10 83.5t-1.5 77.5v391q0 40 -16 64.5t-36.5 38t-40 18.5l-27.5 7q-8 1 -11.5 6t-2.5 10t5.5 9t12.5 4h362
q24 0 24 -26v-585q1 -40 7.5 -80t24 -72.5t49 -52.5t84.5 -20q56 0 88.5 23.5t49.5 59.5t22 79.5t5 83.5v433q0 40 -16 64.5t-36.5 38t-40 18.5l-27.5 7q-8 1 -11.5 6t-2.5 10t5.5 9t12.5 4h362q24 0 24 -26v-717q0 -40 16 -64.5t36.5 -38t40 -19t27.5 -6.5z" />
    <glyph glyph-name="v" unicode="v" horiz-adv-x="916" 
d="M808 737q-6 -11 -23.5 -49.5l-42.5 -94l-55 -122l-60 -134.5l-159 -354q-5 -9 -14.5 -9t-14.5 8l-152 354l-58 134.5l-53 122l-41 94t-23 50.5q-15 29 -29 50.5t-30 37.5t-36 26.5t-47 17.5q-8 2 -11.5 7t-3 10.5t5 9.5t12.5 4h525q7 0 12 -4t6 -9.5t-2 -11t-12 -7.5
q-15 -4 -36.5 -10.5t-39 -20t-25.5 -36t3 -58.5q5 -16 17.5 -49l29 -73.5l34.5 -84l33.5 -79.5l26 -60.5t12.5 -27.5q7 -13 14 0l13.5 33l25 63l31 79.5l31 82l26 71t15.5 45.5q11 36 3 58.5t-24.5 36t-37 20t-35.5 10.5q-9 2 -12 7.5t-2 11t5.5 9.5t12.5 4h324q7 0 11.5 -4
t5.5 -9.5t-2.5 -10.5t-11.5 -7q-27 -7 -47 -17.5t-36 -26.5t-30 -37.5t-29 -50.5z" />
    <glyph glyph-name="w" unicode="w" horiz-adv-x="1403" 
d="M1425 900q7 0 11.5 -4t5.5 -9.5t-2.5 -10.5t-11.5 -7q-27 -7 -47 -17.5t-36 -26.5t-30 -37.5t-29 -50.5q-6 -11 -23.5 -49.5l-42.5 -94l-55 -122l-60 -134.5l-159 -354q-5 -9 -14.5 -9t-14.5 8l-99 232l-37.5 87l-33.5 78.5l-25.5 59t-13.5 28.5q-7 12 -14 0
q-3 -5 -13.5 -28l-26.5 -58l-35 -78l-39 -87l-104 -233q-5 -9 -14.5 -9t-14.5 8l-152 354l-58 134.5l-53 122l-41 94t-23 50.5q-15 29 -29 50.5t-30 37.5t-36 26.5t-47 17.5q-8 2 -11.5 7t-3 10.5t5 9.5t12.5 4h525q7 0 12 -4t6 -9.5t-2 -11t-12 -7.5q-15 -4 -36.5 -10.5
t-39 -20t-25.5 -36t3 -58.5q5 -16 17.5 -49l29 -73.5l34.5 -84l33.5 -79.5l26 -60.5t12.5 -27.5q7 -13 14 0q1 2 10.5 23.5l24.5 55.5l34 77l39 88.5l39.5 89l35.5 79l26.5 59t12.5 27.5q5 11 16 12.5t18 -12.5q3 -6 13 -30.5l24.5 -60.5l31.5 -79.5l35 -88.5l35 -87.5
l30 -76l21.5 -54.5t9.5 -22q7 -13 14 0l13.5 33l25 63l31 79.5l31 82l26 71t15.5 45.5q11 36 3 58.5t-24.5 36t-37 20t-35.5 10.5q-9 2 -12 7.5t-2 11t5.5 9.5t12.5 4h324v0z" />
    <glyph glyph-name="x" unicode="x" horiz-adv-x="972" 
d="M204 163q6 6 16.5 19l24 30l29 36.5l30.5 39.5l77 100l-89 152l-36 60l-34.5 56.5l-29.5 47.5l-21 33q-19 27 -35.5 48t-34.5 37.5t-38.5 28t-46.5 18.5q-8 2 -11.5 7t-3 10.5t5 9.5t12.5 4h514q7 0 12 -4t6 -9.5t-2 -11t-12 -7.5q-15 -4 -30.5 -11t-25 -20.5t-10.5 -36
t13 -57.5q9 -22 22.5 -48.5t26.5 -49.5l31 -54l48 64l36 51t22 37q13 35 12.5 57.5t-10.5 36t-25 20.5t-30 11q-9 2 -12 7.5t-2 11t5.5 9.5t12.5 4h284q15 0 17 -12t-14 -19q-44 -21 -75.5 -48.5t-68.5 -70.5l-16.5 -20l-23.5 -29.5l-27.5 -35.5l-28.5 -37l-72 -94l98 -167
l38.5 -65.5l36 -60l29.5 -48.5l19 -30q36 -54 72 -85.5t86 -46.5q8 -3 11.5 -8t2.5 -10t-5.5 -9t-11.5 -4h-525q-8 0 -12.5 4t-5.5 9.5t2 11t12 7.5q15 4 32 10.5t28 20.5t13.5 36.5t-10.5 57.5q-5 14 -20.5 43l-31.5 58l-41 73l-55 -73l-21.5 -30l-19.5 -28.5l-16 -24.5
t-10 -18q-16 -35 -13.5 -57t14.5 -36t29.5 -21t32.5 -11q9 -2 12 -7.5t2 -11t-6 -9.5t-12 -4h-335q-15 0 -17 12.5t14 18.5q54 18 100.5 51t91.5 81z" />
    <glyph glyph-name="y" unicode="y" horiz-adv-x="889" 
d="M277 -239l131 292l-42 98l-57 132.5l-63 146.5l-60 138.5l-48 109t-27 59.5q-15 29 -29 50.5t-30 37.5t-36 26.5t-47 17.5q-8 2 -11.5 7t-3 10.5t5 9.5t12.5 4h500q7 0 12 -4t6 -9.5t-2 -11t-12 -7.5q-15 -4 -32.5 -10.5t-30.5 -20t-17 -36t7 -58.5q5 -16 17 -47l27 -68
l31 -76.5l30 -72l24 -55t12 -25.5q7 -13 14 0l13 31t22.5 57.5l27.5 72.5l28 74.5l23.5 65t14.5 43.5q11 36 7.5 58.5t-15.5 36t-29 20t-32 10.5q-9 2 -12 7.5t-2 11t5.5 9.5t12.5 4h299q7 0 11.5 -4t5.5 -9.5t-2.5 -10.5t-11.5 -7q-26 -7 -46 -17.5t-36.5 -26.5
t-30.5 -37.5t-29 -50.5q-6 -12 -25.5 -54.5l-46.5 -102.5l-59 -131l-63 -140.5l-59 -131.5l-46 -103l-172 -384q-33 -75 -77.5 -120t-110.5 -45q-23 0 -46 6.5t-41 20t-29.5 35t-11.5 52.5q0 28 10.5 48t28 33t39.5 19t45 6q31 0 54 -9.5t42 -14.5t34 1.5t29 38.5z" />
    <glyph glyph-name="z" unicode="z" horiz-adv-x="875" 
d="M814 231q7 14 19.5 12.5t12.5 -16.5v-208q0 -19 -21 -19h-766q-20 0 -24 12t4 26q2 3 20.5 34.5l49 81.5l69 114.5l79.5 133l82.5 137l76.5 126.5l61 102l38 63q4 6 0 9.5t-9 3.5h-113q-67 0 -115 -21t-80 -49t-50 -55.5t-24 -40.5q-8 -15 -20 -13t-12 17v200q0 19 21 19
h704q23 0 25.5 -13t-4.5 -24q-2 -3 -20.5 -34l-48.5 -80.5l-68 -113.5l-79.5 -132.5l-82.5 -136.5l-76 -126.5l-61.5 -102.5l-38.5 -64q-8 -14 8 -14h174q67 0 115 22t80 51t50 57.5t24 41.5z" />
    <glyph glyph-name="period" unicode="." horiz-adv-x="500" 
d="M400 124q0 -31 -12 -58t-32.5 -47.5t-48.5 -32t-60 -11.5t-59 11.5t-46.5 31t-30.5 46t-11 57.5q0 30 12 57.5t32.5 47.5t48.5 32t60 12t59 -11.5t46.5 -31t30.5 -46.5t11 -57z" />
    <glyph glyph-name="zero" unicode="0" horiz-adv-x="1099" 
d="M560 985q109 0 200 -39t156.5 -106.5t102 -158.5t36.5 -196t-40 -197.5t-109.5 -162t-163.5 -110t-203 -40.5q-108 0 -199 39t-156.5 106.5t-102 158.5t-36.5 196q0 104 40 197t109.5 162.5t163.5 110t202 40.5zM550 28q54 0 94.5 35.5t67 97t40 143.5t13.5 176
t-13.5 176t-40 143.5t-67 97t-94.5 35.5t-94.5 -35.5t-67.5 -97t-40 -143.5t-13 -176t13 -176t40 -143.5t67.5 -97t94.5 -35.5z" />
    <glyph glyph-name="one" unicode="1" horiz-adv-x="1100" 
d="M706 172q0 -44 22 -71t50 -42.5t54 -22t34 -7.5q8 -2 11.5 -6.5t2.5 -9.5t-5.5 -9t-12.5 -4h-582q-8 0 -12.5 4t-5.5 9t2.5 9.5t11.5 6.5q8 1 34 7.5t54 22t50 42.5t22 71v428q0 32 -31 42q-3 1 -22.5 4.5l-42.5 8t-43 8t-23 4.5q-13 3 -13 11.5t14 16.5
q55 29 109.5 63.5t106 72t99 76.5t88.5 77q8 8 18 6t10 -16v-802z" />
    <glyph glyph-name="two" unicode="2" horiz-adv-x="1001" 
d="M890 382q14 15 25 10.5t9 -18.5q-1 -7 -5 -32.5t-10.5 -61l-13.5 -76l-13.5 -76.5l-11.5 -63t-6 -35q-4 -19 -10.5 -24.5t-27.5 -5.5h-775h-3q-11 1 -14.5 9t3.5 19q32 49 68 86.5t74 70l77 63t78 64.5t77.5 75t75.5 95q23 33 37 75.5t18 86t-3.5 85.5t-28.5 75t-56 53
t-86 20q-42 0 -76 -10t-62 -25.5t-51 -34.5t-43 -38q-13 -12 -22 -6t-1 24q14 28 41.5 62.5t71.5 64.5t105 50.5t141 20.5t145 -23.5t110.5 -67t70.5 -104.5t25 -135q0 -64 -18.5 -114t-50.5 -89t-74 -68.5t-89.5 -52.5t-97.5 -42l-97 -36q-29 -11 -60 -25t-62 -30h200
q30 0 63.5 2.5t67.5 8.5t66.5 15t60.5 22t53.5 33t46.5 40.5t36 37.5z" />
    <glyph glyph-name="three" unicode="3" horiz-adv-x="1099" 
d="M468 376q40 13 86 18t92 -1t88.5 -24t75.5 -51t52.5 -81.5t19.5 -115.5q0 -100 -54.5 -190t-151.5 -160.5t-230.5 -116.5t-292.5 -58q-8 -1 -13 2.5t-6.5 8t1.5 10t11 9.5q10 4 46.5 17.5t85.5 36t103.5 55.5t100.5 77t76 100t30 125q0 89 -26 141.5t-61 79.5t-70.5 34.5
t-54.5 7.5q-16 0 -34 -2t-34 -4q-15 -2 -19.5 7t7.5 19q5 4 27 18t51.5 37t63 55.5t61 74t46 92.5t18.5 111q0 75 -46.5 120.5t-131.5 45.5q-32 0 -62 -11t-55.5 -26t-44 -30l-28.5 -23t-17.5 -1.5t-2.5 17.5q4 9 33 39t78.5 62.5t118.5 58t153 25.5q42 0 82 -9.5t74 -29
t59.5 -49.5t37.5 -72q17 -57 11.5 -109t-27.5 -97.5t-57.5 -84.5t-79.5 -69.5t-93 -53t-97 -35.5z" />
    <glyph glyph-name="four" unicode="4" horiz-adv-x="1101" 
d="M1041 20q0 -8 -6 -14t-14 -6h-104q-8 0 -14 -6t-6 -14v-265q0 -17 -5 -26t-23 -14l-42 -13.5l-61 -20l-61.5 -20.5l-44.5 -15q-33 -11 -33 23v351q0 8 -6 14t-14 6h-575q-22 0 -29.5 12.5t10.5 31.5q4 4 39.5 42l91 98.5l126.5 136.5l145.5 156.5l147 159l132 143
l100.5 108.5l52 56q9 10 18 12t16 -1t11.5 -10.5t4.5 -15.5v-729q0 -8 6 -14t14 -6h104q8 0 14 -6t6 -14v-140zM627 590q0 11 -7 12t-14 -6q-2 -2 -29 -31l-66.5 -72l-85 -92l-85.5 -92l-67.5 -73t-30.5 -33q-9 -10 -4.5 -16.5t12.5 -6.5h357q8 0 14 6t6 14v390z" />
    <glyph glyph-name="five" unicode="5" horiz-adv-x="1100" 
d="M193 382v714q0 16 10.5 20t19.5 4q69 0 135 -20l132 -42t132 -33t136 -14q23 -1 47 -1t50 2q11 1 13.5 -7.5t-4.5 -16.5q-25 -30 -66.5 -58.5t-95.5 -51t-117.5 -36t-132.5 -13.5q-51 0 -100.5 11t-76.5 29q-7 5 -12 2.5t-5 -10.5v-394q0 -8 5.5 -9.5t11.5 3.5q5 4 34 22
t75 37.5t104 35.5t120 16q68 0 126 -18t100 -55t66 -94t24 -135q0 -46 -15 -103t-49 -116.5t-89.5 -117t-137 -103.5t-191.5 -76t-252 -36q-9 0 -14.5 3.5t-6.5 8.5t3.5 10.5t15.5 8.5l80.5 27t96 41t98.5 59t87.5 81t62 107.5t23.5 137.5q0 72 -20 115.5t-51.5 66.5
t-69 30.5t-71.5 7.5q-27 0 -58 -7t-59.5 -16t-50.5 -18.5t-30 -14.5q-17 -10 -25 -4t-8 20z" />
    <glyph glyph-name="six" unicode="6" horiz-adv-x="1100" 
d="M563 -25q-85 0 -159 25.5t-128.5 80.5t-85.5 141t-31 208q0 80 19.5 171.5t57 184.5t93.5 182.5t129.5 166t164 134t197.5 87.5q12 3 18.5 0.5t8 -8t-2.5 -12t-11 -10.5q-53 -27 -98.5 -71t-83.5 -99.5t-68.5 -120t-54 -131.5t-40 -134t-26.5 -128q6 17 21 32.5t37 27.5
t49.5 19.5t56.5 7.5q61 0 119 -22t102 -67t71 -114t27 -163q0 -88 -31.5 -159.5t-84 -122.5t-121.5 -78.5t-145 -27.5zM554 645q-30 0 -52 -24.5t-36.5 -66.5t-22 -98.5t-7.5 -120.5t7.5 -120.5t22 -98.5t36.5 -66.5t52 -24.5t52 24.5t36.5 66.5t21.5 98.5t7 120.5t-7 120.5
t-21.5 98.5t-36.5 66.5t-52 24.5z" />
    <glyph glyph-name="seven" unicode="7" horiz-adv-x="1099" 
d="M895 704q9 13 8.5 22t-17.5 9h-389q-93 0 -158 -14t-120 -42q-27 -14 -53 -34.5t-47 -42t-36 -39.5t-22 -25q-14 -15 -25.5 -10.5t-8.5 18.5q1 4 9.5 33l20.5 69.5l26.5 87.5l27 88l21.5 70.5t11 35.5q6 18 11.5 24t26.5 6h883q13 0 20 -5.5t-3 -22.5
q-122 -206 -206 -385t-140.5 -324.5t-90 -254.5l-53.5 -175q-10 -32 -23 -58.5t-31 -46t-43 -30.5t-59 -11q-30 0 -52.5 10.5t-38 28.5t-23 41t-7.5 48q0 35 21 88t52 111.5t66.5 115.5t64.5 99l54 76l76 104l83.5 113.5l78 105.5l59 80z" />
    <glyph glyph-name="eight" unicode="8" horiz-adv-x="1100" 
d="M712 755q-8 -5 -9 -10.5t7 -9.5l100.5 -51.5t87.5 -63t61.5 -86.5t23.5 -123q0 -106 -39.5 -187t-104.5 -136.5t-149.5 -84t-174.5 -28.5q-79 0 -153 18t-131.5 56.5t-92 98.5t-34.5 143q0 56 22.5 105.5t58.5 91.5t81 76.5t89 60.5q8 5 8 11t-8 11q-39 22 -76.5 48.5
t-66 61t-46 79.5t-17.5 103q0 81 29.5 150t83 119t127.5 78.5t163 28.5q55 0 112 -8.5t107 -29.5t88.5 -57t55.5 -92t6 -110.5t-41 -103t-74.5 -89t-93.5 -70.5zM527 1265q-25 0 -49.5 -11t-44 -32.5t-32 -54.5t-12.5 -77q0 -41 9.5 -76t32 -69t59.5 -67.5t91 -70.5
l24.5 -16t25.5 -15q14 -8 22.5 -4t15.5 14q23 34 37 83.5t14 114.5q0 62 -12.5 113.5t-37 89t-60.5 58t-83 20.5zM545 28q45 0 78 16.5t54.5 44.5t32.5 64t11 74q0 61 -15.5 110t-44 89.5t-69 74.5t-89.5 66q-14 9 -29 17.5t-32 16.5q-27 13 -45 -8q-36 -43 -59.5 -102.5
t-23.5 -139.5q0 -81 21 -141.5t54 -101t74 -60.5t82 -20z" />
    <glyph glyph-name="nine" unicode="9" horiz-adv-x="1099" 
d="M516 985q85 0 159 -25.5t128.5 -80.5t85.5 -141.5t31 -207.5q0 -80 -19.5 -171.5t-57 -184.5t-93.5 -182.5t-129.5 -166t-164 -134.5t-197.5 -87q-12 -3 -18.5 -0.5t-8 8t2 12t11.5 10.5q53 26 98.5 70.5t83.5 100t68.5 120t54 131.5t40 134t26.5 128q-6 -17 -21 -32.5
t-37 -27.5t-49.5 -19.5t-56.5 -7.5q-62 0 -119.5 21.5t-101.5 66.5t-71 114t-27 164q0 88 31.5 159.5t84 122.5t121.5 78.5t145 27.5zM525 315q30 0 52 24.5t36.5 66.5t21.5 98.5t7 120.5t-7 120.5t-21.5 98.5t-36.5 66.5t-52 24.5t-52 -24.5t-36.5 -66.5t-22 -98.5
t-7.5 -120.5t7.5 -120.5t22 -98.5t36.5 -66.5t52 -24.5z" />
    <glyph glyph-name="comma" unicode="," horiz-adv-x="500" 
d="M180 -6l-26 26.5t-23 28.5t-16.5 34t-6.5 43q0 29 11 55t30.5 45.5t46 31t57.5 11.5t57 -13t44.5 -34.5t28.5 -50t10 -59.5q0 -67 -22.5 -123t-58.5 -100t-80 -77.5t-86 -55.5q-14 -8 -21.5 1.5t6.5 24.5q21 21 38 50t25.5 59t6 57.5t-20.5 45.5z" />
    <glyph glyph-name="colon" unicode=":" horiz-adv-x="500" 
d="M400 124q0 -31 -12 -58t-32.5 -47.5t-48.5 -32t-60 -11.5t-59 11.5t-46.5 31t-30.5 46t-11 57.5q0 30 12 57.5t32.5 47.5t48.5 32t60 12t59 -11.5t46.5 -31t30.5 -46.5t11 -57zM400 779q0 -31 -12 -58t-32.5 -47.5t-48.5 -32t-60 -11.5t-59 11.5t-46.5 31t-30.5 46
t-11 57.5q0 30 12 57.5t32.5 47.5t48.5 32t60 12t59 -11.5t46.5 -31t30.5 -46.5t11 -57z" />
    <glyph glyph-name="semicolon" unicode=";" horiz-adv-x="515" 
d="M191 -6l-26 26.5t-23 28.5t-16.5 34t-6.5 43q0 29 11 55t30.5 45.5t46 31t57.5 11.5t57 -13t44.5 -34.5t28.5 -50t10 -59.5q0 -67 -22.5 -123t-58.5 -100t-80 -77.5t-86 -55.5q-14 -8 -21.5 1.5t6.5 24.5q21 21 38 50t25.5 59t6 57.5t-20.5 45.5zM408 779q0 -31 -12 -58
t-32.5 -47.5t-48.5 -32t-60 -11.5t-59 11.5t-46.5 31t-30.5 46t-11 57.5q0 30 12 57.5t32.5 47.5t48.5 32t60 12t59 -11.5t46.5 -31t30.5 -46.5t11 -57z" />
    <glyph glyph-name="exclam" unicode="!" horiz-adv-x="541" 
d="M414 1225q0 -74 -8.5 -139t-21.5 -125.5t-27.5 -118.5t-27.5 -118t-21.5 -124.5t-8.5 -136.5q0 -27 -10 -33t-17 -6t-17 6.5t-10 32.5q0 72 -9 136.5t-22.5 124t-29 117.5t-29 118.5t-22.5 125t-9 137.5q0 76 41.5 117.5t106.5 41.5t103.5 -40t38.5 -116zM414 120
q0 -30 -11.5 -56t-31.5 -46t-47 -31.5t-58 -11.5t-57 11t-45 30.5t-29.5 45t-10.5 55.5t11.5 56.5t31.5 46.5t47 31.5t58 11.5t57 -11t45 -30.5t29.5 -45.5t10.5 -56z" />
    <glyph glyph-name="question" unicode="?" horiz-adv-x="764" 
d="M485 120q0 -30 -11.5 -56t-31.5 -46t-47 -31.5t-58 -11.5t-57 11t-45 30.5t-29.5 45t-10.5 55.5t11.5 56.5t31.5 46.5t47 31.5t58 11.5t57 -11t45 -30.5t29.5 -45.5t10.5 -56zM287 473q-18 75 -17 132t12.5 101.5t30.5 78.5t38 62t43.5 55.5t47 61.5t38 77t15.5 102
q0 39 -12.5 67.5t-31.5 49t-43 33t-47 20t-42.5 10t-29.5 2.5q-32 0 -59.5 -6.5t-36.5 -27.5q-5 -11 0.5 -23.5t14 -28t16 -33.5t7.5 -39t-8 -42t-24 -37.5t-40.5 -26.5t-57.5 -10q-31 0 -52 11.5t-34.5 29t-19.5 38.5t-6 41q0 13 5 33.5t19 43t38 46t61.5 42t90.5 30
t124 11.5q48 0 100.5 -6t102 -22t91.5 -44t70 -72q31 -50 42.5 -106t5.5 -113t-29 -111t-60 -98q-36 -43 -82.5 -78l-90.5 -71t-80.5 -78.5t-53.5 -100.5q-5 -16 -13 -23.5t-16.5 -7.5t-16 7t-10.5 20z" />
    <glyph glyph-name="ampersand" unicode="&#x26;" horiz-adv-x="1353" 
d="M1198 56q13 -10 14 -17t-7 -16q-5 -5 -15.5 -13.5t-28.5 -16t-45.5 -13t-65.5 -5.5q-48 0 -85.5 14t-67.5 35t-54.5 46l-46.5 46q-8 7 -20 21t-28 35q-6 8 -13 7.5t-10 -8.5q-20 -41 -48 -77t-65 -62.5t-83.5 -41.5t-101.5 -15q-59 0 -109 17t-87 50.5t-58 83t-21 114.5
q0 66 26.5 122.5t68.5 104t93 85.5t99 65q15 8 6 27q-31 62 -48 116.5t-17 97.5q0 56 24.5 97t65 68t93 40t108.5 13q42 0 81 -11t70 -33t49.5 -56t18.5 -80q0 -70 -39.5 -118.5t-103.5 -76.5q-8 -4 -11 -8.5t3 -15.5q32 -57 72 -117.5l83 -120.5q11 -16 22 -2
q43 52 87.5 83t95.5 31q57 0 90.5 -33.5t33.5 -91.5q0 -19 -7 -39.5t-21.5 -37t-36 -27.5t-50.5 -11q-69 0 -94 62q-5 14 -11.5 30t-25.5 16q-7 0 -17 -5.5t-21 -14.5t-2 -21l83 -112.5l75.5 -96.5t61.5 -72.5t41 -40.5zM723 999q-15 0 -30.5 -3t-28.5 -12t-21.5 -25
t-8.5 -41q0 -27 18 -71t48 -101q5 -8 10 -9.5t16 3.5q33 17 52.5 36.5t30 39t14 38.5t3.5 34q0 21 -6.5 41t-19.5 35.5t-32.5 25t-44.5 9.5zM599 182q26 0 50 5.5t44 14.5q13 6 13 14.5t-5 16.5l-54 74l-57 84.5l-57 91t-53 92.5q-4 8 -10.5 8t-12.5 -6q-33 -30 -51.5 -75.5
t-18.5 -100.5q0 -50 16 -90.5t44.5 -69t67 -44t84.5 -15.5z" />
    <glyph glyph-name="braceleft" unicode="{" horiz-adv-x="547" 
d="M134 546q4 -2 25.5 -4.5t50.5 -10t62 -23t61 -42.5t46 -67.5t18 -99.5q0 -35 -5 -68.5t-12 -66.5l-14.5 -66t-11.5 -67q-4 -29 -5.5 -58.5t1.5 -58t12.5 -56t27.5 -52.5q28 -36 68.5 -66.5t85.5 -44.5q14 -5 16 -15.5t-15 -13.5q-15 -3 -33.5 -4t-39 -1t-40 1.5
t-35.5 3.5q-52 8 -102 26t-88 57q-36 37 -51.5 84.5t-18.5 99.5t2.5 104t11.5 98q11 88 15.5 149.5t-4 106.5t-33 78t-70.5 64q-31 20 0 40q46 31 70.5 64t33 78t4 106.5t-15.5 149.5q-6 46 -11.5 98t-2.5 104t18.5 99.5t51.5 84.5q38 39 88 57t102 26q16 2 35.5 3.5t40 1.5
t39 -1t33.5 -4q17 -3 15 -13.5t-16 -15.5q-45 -14 -85.5 -45t-68.5 -67q-18 -24 -27.5 -51.5t-12.5 -56t-1.5 -58t5.5 -58.5q4 -34 11.5 -67.5l14.5 -66.5t12 -66.5t5 -67.5q0 -59 -18 -99.5t-46 -67.5t-61 -42.5t-62 -23t-50.5 -10.5t-25.5 -4q-7 -2 -7 -7t7 -7z" />
    <glyph glyph-name="braceright" unicode="}" horiz-adv-x="546" 
d="M412 546q7 2 7 7t-7 7q-4 1 -25.5 4t-50.5 10.5t-62 23t-61 42.5t-46 67.5t-18 99.5q0 34 5 67.5t12 66.5l14.5 66.5t11.5 67.5q4 29 5.5 58.5t-1.5 58t-12.5 56t-27.5 51.5q-28 36 -68.5 67t-85.5 45q-14 5 -16 15.5t15 13.5q15 3 33.5 4t39 1t40 -1.5t35.5 -3.5
q52 -8 102 -26t88 -57q36 -37 51.5 -84.5t18.5 -99.5t-2.5 -104t-11.5 -98q-11 -88 -15.5 -149.5t4 -106.5t32.5 -78t71 -64q31 -20 0 -40q-47 -31 -71 -64t-32.5 -78t-4 -106.5t15.5 -149.5q6 -46 11.5 -98t2.5 -104t-18.5 -99.5t-51.5 -84.5q-38 -39 -88 -57t-102 -26
q-16 -2 -35.5 -3.5t-40 -1.5t-39 1t-33.5 4q-17 3 -15 13.5t16 15.5q45 14 85.5 44.5t68.5 66.5q18 25 27.5 52.5t12.5 56t1.5 58t-5.5 58.5q-4 34 -11.5 67l-14.5 66t-12 66.5t-5 68.5q0 59 18 99.5t46 67.5t61 42.5t62 23t50 10t26 4.5z" />
    <glyph glyph-name="bracketleft" unicode="[" horiz-adv-x="617" 
d="M413 1377q-8 0 -14 -6t-6 -14v-1615q0 -8 6 -14t14 -6h310q8 0 14 -6t6 -14v-20q0 -8 -6 -14t-14 -6h-510q-8 0 -14 6t-6 14v1735q0 8 6 14t14 6h510q8 0 14 -6t6 -14v-20q0 -8 -6 -14t-14 -6h-310z" />
    <glyph glyph-name="bracketright" unicode="]" horiz-adv-x="616" 
d="M-106 1377q-8 0 -14 6t-6 14v20q0 8 6 14t14 6h510q8 0 14 -6t6 -14v-1735q0 -8 -6 -14t-14 -6h-510q-8 0 -14 6t-6 14v20q0 8 6 14t14 6h310q8 0 14 6t6 14v1615q0 8 -6 14t-14 6h-310z" />
    <glyph glyph-name="bar" unicode="|" horiz-adv-x="583" 
d="M274 1521q22 0 42 -12.5t20 -32.5v-1869q0 -24 -8.5 -29.5t-19.5 -5.5q-22 0 -42 12.5t-20 31.5v1860v10q0 24 8.5 29.5t19.5 5.5z" />
    <glyph glyph-name="plus" unicode="+" horiz-adv-x="985" 
d="M949 487q24 0 29.5 -4.5t5.5 -14.5q0 -18 -12.5 -32t-31.5 -14h-393q-8 0 -14 -6t-6 -14v-399q0 -9 -5 -16t-12.5 -12.5t-16.5 -8.5t-16 -3q-10 0 -15 5.5t-5 29.5v404q0 8 -6 14t-14 6h-402q-24 0 -29.5 5t-5.5 15q0 14 11.5 29.5t28.5 15.5h397q8 0 14 6t6 14v396
q0 19 16.5 31.5t34.5 12.5q10 0 14.5 -5.5t4.5 -29.5v-405q0 -8 6 -14t14 -6h402v0z" />
    <glyph glyph-name="bullet" unicode="&#x2022;" horiz-adv-x="912" 
d="M804 582q0 -72 -27.5 -135.5t-75.5 -111t-113.5 -75.5t-140.5 -28t-138 26.5t-108.5 73t-71 109t-25.5 134.5t27.5 135.5t76 111t114 75.5t140.5 28t138 -26.5t108 -73t70.5 -109t25.5 -134.5z" />
    <glyph glyph-name="paragraph" unicode="&#xb6;" horiz-adv-x="1190" 
d="M1122 1350q8 0 12.5 -4t5.5 -9t-2.5 -10t-11.5 -6l-29.5 -7.5t-44 -20t-40 -40t-17.5 -65.5v-1627q0 -9 -5 -16t-12.5 -12.5t-16.5 -8.5t-16 -3q-10 0 -15 5.5t-5 29.5v1714q0 8 -6 14t-14 6h-201q-8 0 -14 -6t-6 -14v-1709q0 -9 -5 -16t-12.5 -12.5t-16.5 -8.5t-16 -3
q-10 0 -15 5.5t-5 29.5v865q0 13 -8 21t-23 8q-138 3 -242 37t-173.5 92.5t-105 139t-35.5 176.5q0 100 38 183.5t104 144t155.5 94t192.5 33.5h605v0z" />
    <glyph glyph-name="registered" unicode="&#xae;" horiz-adv-x="1083" 
d="M532 -60q-109 0 -203 39q-91 37 -160 108q-69 70 -105.5 162t-36.5 196q0 103 41 199q39 94 111 164q75 74 170.5 113t202.5 39q108 0 203 -39q46 -19 85.5 -46t74.5 -62q69 -70 105.5 -162t36.5 -196q0 -103 -41 -199q-39 -94 -111 -164q-75 -74 -171 -113t-202 -39z
M552 890q-94 0 -175.5 -35t-141.5 -95.5t-94 -141.5t-34 -173q0 -93 31.5 -172.5t88 -138t134.5 -91.5t171 -33q94 0 175.5 35t141.5 95.5t94 141.5t34 173q0 93 -31.5 172.5t-88 138t-134.5 91.5t-171 33zM818 207q-5 -2 -12 -3t-14.5 1t-14 7t-10.5 14q-5 12 -7 32t-4 51
q-2 29 -5.5 54t-12.5 42q-8 14 -19 23t-22.5 14t-20.5 7.5t-13 2.5q-8 2 2 6q36 10 62 30t43 55q9 21 11.5 44t-1.5 46t-15 43t-27 35q-21 18 -43 27.5t-46 13.5t-49 4.5t-51 0.5h-277q-8 0 -8.5 -6.5t7.5 -7.5q5 -1 17 -4.5t24 -11t21 -20.5t9 -34v-440q0 -21 -9 -34
t-21 -20.5t-24 -10.5t-17 -4q-8 -2 -7.5 -8t8.5 -6h287q9 0 9.5 6t-7.5 8q-5 1 -17 4t-24 10.5t-21 20.5t-9 34v181q0 14 6 20t21 6q12 0 25 -4t24.5 -19.5t20.5 -46t13 -82.5q2 -27 6 -48t11 -37q16 -38 48 -52t65 -14q20 0 37 5.5t30.5 13.5t22 18.5t11.5 20.5q2 8 -3 11
t-10 1zM500 466q-10 0 -10 10v186q0 38 18.5 53.5t47.5 15.5q33 0 52.5 -24.5t19.5 -89.5q0 -56 -13.5 -86.5t-33 -45t-41.5 -17t-40 -2.5z" />
    <glyph glyph-name="copyright" unicode="&#xa9;" horiz-adv-x="1083" 
d="M532 -60q-109 0 -203 39q-91 37 -160 108q-69 70 -105.5 162t-36.5 196q0 103 41 199q39 94 111 164q75 74 170.5 113t202.5 39q108 0 203 -39q46 -19 85.5 -46t74.5 -62q69 -70 105.5 -162t36.5 -196q0 -103 -41 -199q-39 -94 -111 -164q-75 -74 -171 -113t-202 -39z
M552 890q-94 0 -175.5 -35t-141.5 -95.5t-94 -141.5t-34 -173q0 -93 31.5 -172.5t88 -138t134.5 -91.5t171 -33q94 0 175.5 35t141.5 95.5t94 141.5t34 173q0 93 -31.5 172.5t-88 138t-134.5 91.5t-171 33zM243 446q0 -66 21.5 -123t62 -99.5t99.5 -67t134 -24.5
q66 0 119 21.5t92 60.5q6 6 2 10.5t-11 1.5q-30 -16 -61.5 -22.5t-60.5 -6.5q-112 0 -168 65.5t-56 186.5q0 60 9 113t28.5 92.5t50 62t74.5 22.5q34 0 59 -13t43 -33t30 -43.5t21 -43.5q2 -6 8 -5t6 7v107q0 5 -6 9q-2 1 -14 8t-33.5 14.5t-52 13.5t-68.5 6
q-69 0 -129 -25.5t-104.5 -69t-69.5 -101.5t-25 -124z" />
    <glyph glyph-name="trademark" unicode="&#x2122;" horiz-adv-x="2382" 
d="M915 1349q14 0 14 -13v-185q0 -11 -8.5 -12t-12.5 10q-3 9 -17 35.5t-40.5 54t-65.5 49.5t-93 22q-33 0 -43.5 -18t-12.5 -43v-676q0 -31 13.5 -50.5t31 -30.5t34.5 -16t25 -6q13 -2 12.5 -11.5t-14.5 -9.5h-425q-13 0 -14 9.5t12 11.5q8 1 25.5 6t35 16t31 30.5
t13.5 50.5v646q0 17 -1 33.5t-6 29t-17 20.5t-33 8q-54 0 -93 -22t-65 -49.5t-40 -54t-17 -35.5q-5 -11 -13.5 -10t-8.5 12v185q0 13 14 13h779zM2116 470q13 -2 12 -11.5t-14 -9.5h-425q-13 0 -14 9.5t12 11.5q8 1 25 6t34.5 16t31 30.5t13.5 50.5v618q0 5 -3.5 6.5
t-6.5 -5.5q-2 -3 -15 -35.5l-33.5 -84l-46.5 -116.5l-52.5 -132l-52.5 -131.5l-46.5 -115.5l-33 -82.5t-13.5 -33.5q-4 -7 -10 -7t-10 7q-1 1 -14 35l-34.5 89l-48 124.5l-54.5 142l-55 142.5l-48.5 125.5l-35.5 90.5t-15 38q-2 6 -6 6t-5 -7v-32v-77.5v-107.5v-123v-334
q0 -31 13.5 -50.5t31 -30.5t35 -16t25.5 -6q12 -2 11.5 -11.5t-13.5 -9.5h-252q-13 0 -14 9.5t12 11.5q8 1 25 6t34.5 16t31 30.5t13.5 50.5v652q0 31 -13.5 50.5t-31 30.5t-34.5 15.5l-25 6.5q-13 2 -12 11.5t14 9.5h328q21 0 27 -16l26 -69l40 -105.5l46 -121l44 -116
l34 -90.5t17 -43q2 -3 4.5 -3t3.5 3l16.5 41l36 89l47 116l49 122l42.5 107l28 70q6 16 27 16h295q13 0 14 -9.5t-12 -11.5l-25.5 -6.5t-35 -15.5t-31 -30.5t-13.5 -50.5v-652q0 -31 13.5 -50.5t31 -30.5t35 -16t25.5 -6z" />
    <glyph glyph-name="slash" unicode="/" horiz-adv-x="639" 
d="M572 1350q8 0 12.5 -5.5t1.5 -13.5l-426 -1312q-3 -8 -10.5 -13.5t-15.5 -5.5h-39q-8 0 -12 5.5t-2 13.5l426 1312q3 8 10.5 13.5t15.5 5.5h39z" />
    <glyph glyph-name="backslash" unicode="\" horiz-adv-x="639" 
d="M106 1350q8 0 15.5 -5.5t10.5 -13.5l426 -1312q2 -8 -2 -13.5t-12 -5.5h-39q-8 0 -15.5 5.5t-10.5 13.5l-426 1312q-3 8 1.5 13.5t12.5 5.5h39z" />
    <glyph glyph-name="equal" unicode="=" horiz-adv-x="950" 
d="M862 710q24 0 29.5 -4.5t5.5 -14.5q0 -18 -12.5 -34.5t-31.5 -16.5h-765q-24 0 -29.5 5t-5.5 15q0 7 3 16t8.5 16.5t12.5 12.5t16 5h769zM862 326q24 0 29.5 -4.5t5.5 -14.5q0 -18 -12.5 -34.5t-31.5 -16.5h-765q-24 0 -29.5 5t-5.5 15q0 7 3 16t8.5 16.5t12.5 12.5t16 5
h769z" />
    <glyph glyph-name="hyphen" unicode="-" horiz-adv-x="884" 
d="M782 355q0 -8 -6 -14t-14 -6h-640q-8 0 -14 6t-6 14v190q0 8 6 14t14 6h640q8 0 14 -6t6 -14v-190z" />
    <glyph glyph-name="endash" unicode="&#x2013;" horiz-adv-x="1505" 
d="M1409 485q24 0 29.5 -4.5t5.5 -14.5q0 -18 -12.5 -34.5t-31.5 -16.5h-1305q-24 0 -29.5 5t-5.5 15q0 7 3 16t8.5 16.5t12.5 12.5t16 5h1309v0z" />
    <glyph glyph-name="emdash" unicode="&#x2014;" horiz-adv-x="1824" 
d="M1729 485q24 0 29.5 -4.5t5.5 -14.5q0 -18 -12.5 -34.5t-31.5 -16.5h-1625q-24 0 -29.5 5t-5.5 15q0 7 3 16t8.5 16.5t12.5 12.5t16 5h1629v0z" />
    <glyph glyph-name="divide" unicode="&#xf7;" horiz-adv-x="1058" 
d="M669 124q0 -31 -12 -58t-32.5 -47.5t-48.5 -32t-60 -11.5t-59 11.5t-46.5 31t-30.5 46t-11 57.5q0 30 12 57.5t32.5 47.5t48.5 32t60 12t59 -11.5t46.5 -31t30.5 -46.5t11 -57zM669 779q0 -31 -12 -58t-32.5 -47.5t-48.5 -32t-60 -11.5t-59 11.5t-46.5 31t-30.5 46
t-11 57.5q0 30 12 57.5t32.5 47.5t48.5 32t60 12t59 -11.5t46.5 -31t30.5 -46.5t11 -57zM978 485h-909q-9 0 -16 -5t-12.5 -12.5t-8.5 -16.5t-3 -16q0 -10 5.5 -15t29.5 -5h905q19 0 31.5 16.5t12.5 34.5q0 10 -5.5 14.5t-29.5 4.5z" />
    <glyph glyph-name="numbersign" unicode="#" horiz-adv-x="917" 
d="M865 664q24 0 29.5 -4t5.5 -14q0 -18 -12.5 -32.5t-32.5 -14.5h-156q-13 0 -17 -13l-37 -212q-1 -5 2.5 -9.5t9.5 -4.5h154q24 0 29.5 -4t5.5 -14q0 -18 -12.5 -32.5t-32.5 -14.5h-156q-14 0 -16 -13l-48 -268q-2 -14 -16 -14h-48q-14 0 -12 14l48 268q2 13 -12 13h-229
q-5 0 -10 -4t-6 -9l-47 -268q-4 -14 -17 -14h-48q-6 0 -9.5 4t-1.5 10l47 268q2 13 -12 13h-148q-24 0 -29.5 4t-5.5 14q0 18 12.5 32.5t31.5 14.5h151q5 0 10 4.5t6 9.5l37 212q2 5 -2 9t-9 4h-148q-24 0 -29.5 4t-5.5 14q0 18 12.5 32.5t31.5 14.5h150q6 0 10.5 4.5
t6.5 9.5l47 268q1 6 6 10t10 4h49q13 0 11 -14l-47 -268q-2 -5 2 -9.5t9 -4.5h229q6 0 10.5 4.5t5.5 9.5l48 268q2 14 16 14h48q14 0 12 -14l-47 -268q-2 -5 1.5 -9.5t9.5 -4.5h155zM606 586q2 13 -11 13h-229q-14 0 -16 -13l-38 -212q-1 -5 2.5 -9.5t9.5 -4.5h228
q6 0 11 4.5t6 9.5z" />
    <glyph glyph-name="asciicircum" unicode="^" horiz-adv-x="855" 
d="M33 684q-8 0 -11.5 5t1.5 12l364 631q4 7 13 12t17 5h23q8 0 16.5 -5t13.5 -12l363 -631q5 -7 1.5 -12t-11.5 -5h-46q-8 0 -17 5t-13 12l-309 535q-4 8 -9.5 8t-10.5 -8l-309 -535q-4 -7 -13 -12t-17 -5h-46z" />
    <glyph glyph-name="less" unicode="&#x3c;" horiz-adv-x="755" 
d="M675 85q0 -8 -5 -11.5t-12 1.5l-631 364q-7 4 -12 13t-5 17v23q0 8 5 16.5t12 13.5l631 363q7 5 12 1.5t5 -11.5v-46q0 -8 -5 -17t-12 -13l-535 -309q-8 -4 -8 -9.5t8 -10.5l535 -309q7 -4 12 -13t5 -17v-46z" />
    <glyph glyph-name="greater" unicode="&#x3e;" horiz-adv-x="755" 
d="M80 131q0 8 5 17t12 13l535 309q8 5 8 10.5t-8 9.5l-535 309q-7 4 -12 13t-5 17v46q0 8 5 11.5t12 -1.5l631 -363q7 -5 12 -13.5t5 -16.5v-23q0 -8 -5 -17t-12 -13l-631 -364q-7 -5 -12 -1.5t-5 11.5v46z" />
    <glyph glyph-name="percent" unicode="%" horiz-adv-x="1133" 
d="M306 985q58 0 106.5 -18.5t83.5 -50t54.5 -74.5t19.5 -92t-21.5 -92.5t-58.5 -76.5t-87.5 -52t-108.5 -19t-106.5 18.5t-83.5 50t-54.5 74.5t-19.5 92t21.5 92.5t58.5 76.5t87.5 52t108.5 19zM300 557q21 0 37 15t26.5 41t16 60.5t5.5 73.5t-5.5 74t-16 60.5t-26.5 40.5
t-37 15t-37 -15t-26.5 -40.5t-16 -60.5t-5.5 -74t5.5 -73.5t16 -60.5t26.5 -41t37 -15zM840 450q58 0 106.5 -18.5t83.5 -50t54.5 -74.5t19.5 -92t-21.5 -92.5t-58.5 -76.5t-87.5 -52t-108.5 -19t-106.5 18.5t-83.5 50t-54.5 74.5t-19.5 92t21.5 92.5t58.5 76.5t87.5 52
t108.5 19zM834 22q21 0 37 15t26.5 41t16 60.5t5.5 73.5t-5.5 74t-16 60.5t-26.5 40.5t-37 15t-37 -15t-26.5 -40.5t-16 -60.5t-5.5 -74t5.5 -73.5t16 -60.5t26.5 -41t37 -15zM999 960q8 0 10 -4.5t-3 -10.5l-780 -930q-5 -6 -15 -10.5t-18 -4.5h-58q-8 0 -10 4.5t3 10.5
l780 930q5 6 15 10.5t18 4.5h58z" />
    <glyph glyph-name="germandbls" unicode="&#xdf;" horiz-adv-x="1360" 
d="M969 29q35 0 64 12.5t50 34.5t32.5 52t11.5 64q0 46 -15.5 77t-41.5 52.5t-59.5 37l-69.5 31.5l-51.5 22.5t-59 29t-59.5 37.5t-52 48t-37 60.5t-14 74.5q0 45 13.5 83t34 73.5t44 72t44 79.5t34 94.5t13.5 117.5q0 61 -15 109.5t-42.5 82.5t-66 52.5t-84.5 18.5
q-92 0 -134.5 -93.5t-42.5 -286.5v-916q0 -40 13.5 -63t31 -35t34.5 -16.5t25 -5.5q8 -2 11.5 -6.5t2.5 -9.5t-5.5 -9t-12.5 -4h-470q-8 0 -12.5 4t-5.5 9t2.5 9.5t11.5 6.5q8 1 25 5.5t34.5 16.5t31 35t13.5 63v772q0 75 10 146.5t32.5 135.5t57.5 117.5t85.5 92.5
t117 60.5t151.5 21.5q78 0 139.5 -24.5t103.5 -67.5t64.5 -100.5t22.5 -124.5q0 -50 -14.5 -91t-36.5 -74.5t-47 -61l-47 -50.5t-36.5 -43t-14.5 -39q0 -21 26.5 -41.5t63.5 -39t76.5 -35t65.5 -28.5l44 -20t57 -30.5t60 -45t54.5 -64.5t39.5 -88.5t15 -117.5
q0 -81 -29 -143.5t-77.5 -104.5t-113 -64t-135.5 -22q-57 0 -112 14.5t-98 40.5t-69.5 62t-26.5 80q0 27 8 45t21 29t29.5 15.5t33.5 4.5q34 0 61 -24.5t37 -67.5l9.5 -41.5t21 -47.5t44.5 -39.5t79 -16.5z" />
    <glyph glyph-name="sterling" unicode="&#xa3;" horiz-adv-x="1029" 
d="M1035 121q16 5 23 -4.5t-6 -23.5q-27 -28 -60 -52.5t-75 -42.5t-94 -28.5t-116 -10.5q-75 0 -140.5 17t-124.5 37l-112.5 37t-104.5 17q-20 0 -34 -3.5t-25 -9.5q-13 -7 -21.5 -15t-16.5 -16.5t-17.5 -17.5t-23.5 -18q-29 -18 -62.5 -14.5t-50.5 32.5q-15 26 -5.5 54.5
t40.5 45.5q21 11 58 15t75 14q27 7 41 11.5t22.5 10t15.5 14l19 23.5q9 11 16.5 25t13 34.5t8.5 48.5t3 67q0 44 -5 87t-12 88q-1 8 -10 8h-61q-24 0 -29.5 3t-5.5 13q0 13 11.5 28.5t28.5 15.5h44q10 0 9 10q-16 82 -29 168.5t-13 183.5q0 84 24.5 158t69.5 129t108 86.5
t140 31.5q66 0 118 -17t88 -46.5t55 -68t19 -80.5q0 -29 -9.5 -51t-25.5 -37t-37 -23t-44 -8q-53 0 -84 31t-31 87q0 29 8.5 52t8.5 46q0 11 -2.5 23t-9.5 21.5t-20 16t-33 6.5q-41 0 -66 -42.5t-25 -130.5q0 -62 12 -125t27 -129.5t29 -137t18 -147.5q0 -7 7 -7h119
q24 0 29.5 -3t5.5 -13q0 -6 -4 -14t-10 -14.5t-14 -11t-17 -4.5h-109q-7 0 -7 -7q-5 -130 -49.5 -217.5t-116.5 -139.5q38 23 87 35.5t98 12.5q53 0 93.5 -8.5t73 -22t59.5 -28.5t54.5 -28.5t57 -22t67.5 -8.5h33.5t30.5 4z" />
    <glyph glyph-name="dollar" unicode="$" horiz-adv-x="797" 
d="M462 603q73 -29 126.5 -61t89 -72t53 -88.5t17.5 -109.5q0 -55 -18 -106.5t-57 -92.5t-100 -67.5t-146 -30.5q-11 -1 -17 -4.5t-6 -13.5v-122q0 -24 -4 -29.5t-14 -5.5q-18 0 -32.5 12.5t-14.5 31.5v116q0 17 -18 18q-56 6 -97.5 17.5t-69.5 24t-43.5 23l-18.5 12.5
q-6 5 -10.5 11t-6.5 17q0 2 -3.5 26l-8 53t-8 55l-4.5 33t2 11t6.5 5t8 0t6.5 -5q1 -2 9 -17t22.5 -36.5t34.5 -47.5t46.5 -50t59 -44t70.5 -30q12 -3 18 -0.5t6 15.5v26v54t-0.5 68t-0.5 67v53v25q0 9 -2.5 16t-13.5 12q-8 4 -18 8l-20 8q-71 29 -115.5 66.5t-69 79
t-33.5 83t-9 79.5q0 36 10.5 82t39.5 88t79.5 74t131.5 41q11 2 15.5 5.5t4.5 15.5v107q0 24 4 29.5t14 5.5q18 0 32.5 -12.5t14.5 -32.5v-95q0 -11 3.5 -15.5t16.5 -6.5q49 -5 89 -16t68.5 -22.5t45 -21.5t19.5 -11q10 -6 14 -11t6 -16q0 -2 2 -12.5t4 -26.5t5 -34t5 -34
t4 -27t2 -13q1 -11 -7.5 -13.5t-15.5 7.5q-12 17 -33.5 44.5t-52 56.5t-69 54.5t-84.5 37.5q-22 6 -22 -16v-264q0 -9 2.5 -14t13.5 -10l20.5 -8t21.5 -9zM339 912q0 20 -22 15q-47 -12 -68 -45t-21 -73q0 -35 18 -67.5t70 -67.5q10 -6 16.5 -3.5t6.5 13.5v228zM427 34
q40 14 65 45.5t25 75.5t-18.5 83t-72.5 77q-8 7 -15 3.5t-7 -13.5v-256q0 -23 23 -15z" />
    <glyph glyph-name="Euro" unicode="&#x20ac;" 
d="M1337 179q7 4 13.5 2.5t10 -5.5t3 -10.5t-7.5 -13.5q-87 -86 -204 -133.5t-265 -47.5q-154 0 -277.5 46.5t-212.5 128t-142.5 193t-67.5 240.5h-66q-24 0 -29.5 3t-5.5 13q0 13 11.5 28.5t28.5 15.5h56v29q0 26 1.5 51t5.5 50h-68q-24 0 -29.5 3t-5.5 13q0 13 11.5 28.5
t28.5 15.5h74q28 117 93 218t158 174.5t210.5 115.5t250.5 42q85 0 152.5 -13.5t115.5 -30t75.5 -31t30.5 -17.5q12 -9 12 -21v-237q0 -7 -4 -11t-9 -5t-10 2t-8 9q-19 45 -45.5 97t-66.5 96.5t-95.5 73.5t-131.5 29q-83 0 -144.5 -37t-105 -102.5t-69 -155.5t-35.5 -196
h357q24 0 29.5 -3t5.5 -13q0 -6 -4 -14t-10 -14.5t-14 -11t-17 -4.5h-352q-1 -23 -1.5 -46t-0.5 -47v-19t1 -18h283q24 0 29.5 -3t5.5 -13q0 -6 -4 -14t-10 -14.5t-14 -11t-17 -4.5h-270q22 -222 145.5 -342.5t347.5 -120.5q65 0 135.5 14t137.5 49z" />
    <glyph glyph-name="yen" unicode="&#xa5;" horiz-adv-x="1262" 
d="M1334 1350q10 0 15 -4.5t5.5 -10.5t-4 -11t-13.5 -6q-15 -2 -36 -7.5t-45.5 -18t-52 -33.5t-54.5 -55l-41 -53l-63 -84.5l-72.5 -99l-69.5 -96.5l-54.5 -78t-27.5 -43q-11 -21 -16 -40t-6 -46h224q24 0 29.5 -3t5.5 -13q0 -13 -13.5 -28.5t-30.5 -15.5h-215v-180h224
q24 0 29.5 -3t5.5 -13q0 -13 -13.5 -28.5t-30.5 -15.5h-215v-178q0 -47 20 -76t46.5 -46t52.5 -23.5t38 -8.5q9 -2 13.5 -7t4 -10.5t-5.5 -10t-15 -4.5h-628q-10 0 -15 4.5t-5.5 10t4 10.5t13.5 7q12 2 38 8.5t52.5 23.5t46.5 46t20 76v178h-236q-24 0 -29.5 3t-5.5 13
q0 13 11.5 28.5t28.5 15.5h231v128v26.5t-2 25.5h-234q-24 0 -29.5 3t-5.5 13q0 13 11.5 28.5t28.5 15.5h206l-37.5 58.5l-63.5 97.5l-76.5 116l-76.5 116l-63.5 96l-37.5 56q-16 23 -38 43t-46 35t-46.5 24t-40.5 12q-9 1 -13.5 6.5t-4 11t5.5 10t15 4.5h628q10 0 15 -4.5
t5.5 -10t-4 -11t-13.5 -6.5q-12 -2 -30 -6t-32.5 -13.5t-20 -27.5t7.5 -47q9 -20 30 -57.5l47.5 -82l56 -91.5l55 -86.5l43.5 -66.5t23 -32q15 -17 31 -2q4 4 25 33l50.5 71.5l63 92l63.5 94.5l52.5 80t28.5 47q16 31 11.5 48.5t-19 27t-32.5 13t-30 5.5q-9 1 -13.5 6.5
t-4 11t5.5 10t15 4.5h345v0z" />
    <glyph glyph-name="dagger" unicode="&#x2020;" horiz-adv-x="1007" 
d="M438 592q17 0 27.5 10t10.5 24q0 11 -4 21t-18 21q-16 12 -31 25t-27 28t-19.5 33t-7.5 39q0 28 10.5 52.5t29 43t43 29t52.5 10.5t52.5 -10.5t43 -29t29 -43t10.5 -52.5q0 -21 -7.5 -39t-19.5 -33t-27 -28t-31 -25q-14 -11 -18 -21t-4 -21q0 -14 10.5 -24t27.5 -10t29 6
t26 22l27.5 32t29 29t33.5 21t41 8q29 0 54.5 -11t44.5 -30t30 -44.5t11 -54.5t-11 -54.5t-30 -44.5t-44.5 -30t-54.5 -11q-23 0 -41 8t-33.5 21t-29 29l-27.5 32t-26 22t-29 6t-27.5 -10t-10.5 -24q0 -17 8 -26.5t19 -17.5q18 -12 34 -26t28.5 -30.5t20 -35.5t7.5 -42
q0 -28 -8.5 -49.5t-21.5 -42.5l-27.5 -42.5t-27.5 -49.5t-21.5 -64t-8.5 -85q0 -93 2.5 -183t5 -170t3.5 -147.5t-2.5 -116.5t-12.5 -76.5t-26 -27.5t-26 27.5t-12.5 76.5t-2.5 116.5t3.5 147.5t5 170t2.5 183q0 49 -8.5 85t-21.5 64t-27.5 49.5l-27.5 42.5t-21.5 42.5
t-8.5 49.5q0 23 7.5 42t20 35.5t28.5 30.5t34 26q11 8 19 17.5t8 26.5q0 14 -10.5 24t-27.5 10t-29 -6t-26 -22l-27.5 -32t-29 -29t-34 -21t-40.5 -8q-29 0 -54.5 11t-44.5 30t-30 44.5t-11 54.5t11 54.5t30 44.5t44.5 30t54.5 11q22 0 40.5 -8t34 -21t29 -29l27.5 -32
t26 -22t29 -6z" />
    <glyph glyph-name="daggerdbl" unicode="&#x2021;" horiz-adv-x="957" 
d="M734 -220q29 0 54.5 -11t44.5 -30t30 -44.5t11 -54.5t-11 -54.5t-30 -44.5t-44.5 -30t-54.5 -11q-23 0 -41 8t-33.5 21t-29 29l-27.5 32t-26 22t-29 6t-27.5 -10t-10.5 -24q0 -11 4 -21t18 -21q16 -12 31 -25.5t27 -28.5t19.5 -32.5t7.5 -38.5q0 -28 -10.5 -52.5t-29 -43
t-43 -29t-52.5 -10.5t-52.5 10.5t-43 29t-29 43t-10.5 52.5q0 21 7.5 38.5t19.5 32.5t27 28.5t31 25.5q14 11 18 21t4 21q0 14 -10.5 24t-27.5 10t-29 -6t-26 -22l-27.5 -32t-29 -29t-34 -21t-40.5 -8q-29 0 -54.5 11t-44.5 30t-30 44.5t-11 54.5t11 54.5t30 44.5t44.5 30
t54.5 11q22 0 40.5 -8t34 -21t29 -29l27.5 -32t26 -22t29 -6t27.5 10t10.5 24q0 17 -8 26.5t-19 17.5q-18 12 -34 26t-28.5 30.5t-20 35.5t-7.5 42q0 28 8.5 46.5t21.5 33.5t27.5 28t27.5 29.5t21.5 38.5t8.5 55t-8.5 55t-21.5 38.5t-27.5 29.5t-27.5 28t-21.5 33.5
t-8.5 46.5q0 23 7.5 42t20 35.5t28.5 30.5t34 26q11 8 19 17.5t8 26.5q0 14 -10.5 24t-27.5 10t-29 -6t-26 -22l-27.5 -32t-29 -29t-34 -21t-40.5 -8q-29 0 -54.5 11t-44.5 30t-30 44.5t-11 54.5t11 54.5t30 44.5t44.5 30t54.5 11q22 0 40.5 -8t34 -21t29 -29l27.5 -32
t26 -22t29 -6t27.5 10t10.5 24q0 11 -4 21t-18 21q-16 12 -31 25t-27 28t-19.5 33t-7.5 39q0 28 10.5 52.5t29 43t43 29t52.5 10.5t52.5 -10.5t43 -29t29 -43t10.5 -52.5q0 -21 -7.5 -39t-19.5 -33t-27 -28t-31 -25q-14 -11 -18 -21t-4 -21q0 -14 10.5 -24t27.5 -10t29 6
t26 22l27.5 32t29 29t33.5 21t41 8q29 0 54.5 -11t44.5 -30t30 -44.5t11 -54.5t-11 -54.5t-30 -44.5t-44.5 -30t-54.5 -11q-23 0 -41 8t-33.5 21t-29 29l-27.5 32t-26 22t-29 6t-27.5 -10t-10.5 -24q0 -17 8 -26.5t19 -17.5q18 -12 34 -26t28.5 -30.5t20 -35.5t7.5 -42
q0 -28 -8.5 -46.5t-21.5 -33.5t-27.5 -28t-27.5 -29.5t-21.5 -38.5t-8.5 -55t8.5 -55t21.5 -38.5t27.5 -29.5t27.5 -28t21.5 -33.5t8.5 -46.5q0 -23 -7.5 -42t-20 -35.5t-28.5 -30.5t-34 -26q-11 -8 -19 -17.5t-8 -26.5q0 -14 10.5 -24t27.5 -10t29 6t26 22l27.5 32t29 29
t33.5 21t41 8z" />
    <glyph glyph-name="perthousand" unicode="&#x2030;" horiz-adv-x="1722" 
d="M306 985q58 0 106.5 -18.5t83.5 -50t54.5 -74.5t19.5 -92t-21.5 -92.5t-58.5 -76.5t-87.5 -52t-108.5 -19t-106.5 18.5t-83.5 50t-54.5 74.5t-19.5 92t21.5 92.5t58.5 76.5t87.5 52t108.5 19zM300 557q21 0 37 15t26.5 41t16 60.5t5.5 73.5t-5.5 74t-16 60.5t-26.5 40.5
t-37 15t-37 -15t-26.5 -40.5t-16 -60.5t-5.5 -74t5.5 -73.5t16 -60.5t26.5 -41t37 -15zM840 450q58 0 106.5 -18.5t83.5 -50t54.5 -74.5t19.5 -92t-21.5 -92.5t-58.5 -76.5t-87.5 -52t-108.5 -19t-106.5 18.5t-83.5 50t-54.5 74.5t-19.5 92t21.5 92.5t58.5 76.5t87.5 52
t108.5 19zM834 22q21 0 37 15t26.5 41t16 60.5t5.5 73.5t-5.5 74t-16 60.5t-26.5 40.5t-37 15t-37 -15t-26.5 -40.5t-16 -60.5t-5.5 -74t5.5 -73.5t16 -60.5t26.5 -41t37 -15zM999 960q8 0 10 -4.5t-3 -10.5l-780 -930q-5 -6 -15 -10.5t-18 -4.5h-58q-8 0 -10 4.5t3 10.5
l780 930q5 6 15 10.5t18 4.5h58zM1438 450q58 0 106.5 -18.5t83.5 -50t54.5 -74.5t19.5 -92t-21.5 -92.5t-58.5 -76.5t-87.5 -52t-108.5 -19t-106.5 18.5t-83.5 50t-54.5 74.5t-19.5 92t21.5 92.5t58.5 76.5t87.5 52t108.5 19zM1432 22q21 0 37 15t26.5 41t16 60.5t5.5 73.5
t-5.5 74t-16 60.5t-26.5 40.5t-37 15t-37 -15t-26.5 -40.5t-16 -60.5t-5.5 -74t5.5 -73.5t16 -60.5t26.5 -41t37 -15z" />
    <glyph glyph-name="Ccedilla" unicode="&#xc7;" horiz-adv-x="1227" 
d="M714 -29q-21 1 -21 -18q0 -31 12.5 -54t31.5 -41.5t41 -34.5t41 -34q39 -37 55.5 -74t16.5 -88q0 -41 -13 -75.5t-37.5 -59.5t-60.5 -39.5t-81 -14.5q-42 0 -76.5 11t-58.5 29t-37.5 41.5t-13.5 48.5q0 40 24 58t53 18q22 0 37.5 -8.5t25.5 -21t15.5 -27t8.5 -25.5
t7 -23.5t10.5 -23t16.5 -17t25 -6.5q22 0 31.5 15.5t9.5 33.5q0 23 -18.5 54t-56.5 58q-19 13 -38.5 28.5t-35.5 34.5t-26 42.5t-10 54.5q0 37 13.5 74.5t31.5 69.5q10 19 -10 22q-140 19 -249 79.5t-184 152t-114.5 208.5t-39.5 249q0 97 25.5 187.5t72 169.5t113 144.5
t147.5 112t175 72t197 25.5q85 0 152.5 -13.5t115.5 -30t75.5 -31t30.5 -17.5q12 -9 12 -21v-237q0 -7 -4 -11t-9 -5t-10 2t-8 9q-19 45 -45.5 97t-66.5 96.5t-95.5 73.5t-131.5 29q-97 0 -165.5 -50.5t-112 -138t-63.5 -205t-20 -250.5q0 -134 31.5 -238t93.5 -175.5
t155.5 -109t216.5 -37.5q65 0 135.5 14t137.5 49q7 4 13.5 2.5t10 -5.5t3 -10.5t-7.5 -13.5q-87 -86 -204 -133.5t-265 -47.5h-31z" />
    <glyph glyph-name="ccedilla" unicode="&#xe7;" horiz-adv-x="922" 
d="M872 242q14 6 22.5 -2.5t-0.5 -25.5q-6 -11 -19 -32t-35 -46.5t-53 -52.5t-72 -49.5t-92.5 -38.5t-113.5 -19q-9 -1 -13 -4.5t-4 -14.5q0 -31 12.5 -54t31.5 -41.5t41 -34.5t41 -34q39 -37 55.5 -74t16.5 -88q0 -41 -13 -75.5t-37.5 -59.5t-60.5 -39.5t-81 -14.5
q-42 0 -76.5 11t-58.5 29t-37.5 41.5t-13.5 48.5q0 40 24 58t53 18q22 0 37.5 -8.5t25.5 -21t15.5 -27t8.5 -25.5t7 -23.5t10.5 -23t16.5 -17t25 -6.5q22 0 31.5 15.5t9.5 33.5q0 23 -18.5 54t-56.5 58q-19 13 -38.5 28.5t-35.5 34.5t-26 42.5t-10 54.5q0 35 12.5 71
t29.5 67q5 8 3.5 14.5t-11.5 8.5q-91 8 -163.5 42t-123.5 91t-78 136.5t-27 180.5q0 95 24 169t63.5 129t90.5 93t104.5 61.5t105.5 34t94 10.5q68 0 125 -12.5t98 -35t64 -53t23 -65.5q0 -31 -10.5 -52t-27 -34.5t-37 -19.5t-41.5 -6q-30 0 -56.5 11t-43.5 37
q-13 19 -21 49t-18.5 58t-27.5 48t-50 20q-40 0 -73.5 -27.5t-57.5 -77.5t-37 -120.5t-13 -155.5q0 -86 21.5 -153.5t59.5 -114.5t89 -72t110 -25q57 0 105 17t84 38t59.5 40t32.5 23z" />
    <glyph glyph-name="parenleft" unicode="(" horiz-adv-x="570" 
d="M340 555q0 -251 44.5 -471.5t122.5 -389.5q8 -17 -2.5 -24t-24.5 3q-84 52 -154 140t-120.5 203t-79 252t-28.5 287t28 287.5t79 252t121 202.5t154 141q17 11 26 4t1 -26q-78 -169 -122.5 -389t-44.5 -472z" />
    <glyph glyph-name="parenright" unicode=")" horiz-adv-x="570" 
d="M230 555q0 252 -44.5 472t-122.5 389q-8 19 1 26t26 -4q84 -53 154 -141t121 -202.5t79 -252t28 -287.5t-28.5 -287t-79 -252t-120.5 -203t-154 -140q-14 -10 -24.5 -3t-2.5 24q78 169 122.5 389.5t44.5 471.5z" />
    <glyph glyph-name="at" unicode="@" horiz-adv-x="1625" 
d="M823 1305q162 0 303 -45.5t245.5 -140.5t164.5 -241t60 -347q0 -135 -33.5 -234t-89.5 -163.5t-128 -96t-148 -31.5q-115 0 -176.5 53t-55.5 162q-14 -48 -39.5 -87t-60 -67t-78 -43t-92.5 -15q-235 0 -235 307q0 114 26.5 218.5t74.5 184.5t116 127.5t151 47.5
q45 0 80 -16t59 -40.5t37.5 -55t15.5 -59.5q2 26 5 49l4 39l3 28q3 28 32 28h24.5t41 -0.5t42.5 -0.5h29q17 0 22.5 -9.5t3.5 -21.5q0 -2 -3.5 -28.5t-8.5 -69l-11 -96.5t-13 -110.5l-13.5 -112l-11.5 -101t-9 -77l-5 -39.5q-2 -17 4 -34.5t20 -32t35.5 -24t49.5 -9.5
q54 0 103.5 31.5t87 89t60 138.5t22.5 180q0 179 -55 309.5t-150.5 215.5t-223 126t-272.5 41t-272 -55t-221.5 -153t-149.5 -233t-55 -296q0 -169 51.5 -305.5t142.5 -233t215 -149t269 -52.5h27h30.5t31 0.5t28.5 1.5q12 1 19.5 -3t9 -10t-3 -12.5t-16.5 -10.5
q-32 -10 -69.5 -13t-66.5 -3q-166 0 -307.5 49.5t-245 146.5t-162 239t-58.5 328q0 125 28.5 235.5t80.5 203.5t125 167t161 125t189 78.5t209 27.5zM985 459q10 67 11.5 125t-7.5 102.5t-30.5 72.5t-57.5 36q-41 8 -75 -10.5t-61 -58t-46 -96.5t-29 -126
q-27 -184 -7 -271.5t94 -95.5q76 -9 129 67t79 255z" />
    <glyph glyph-name="asciitilde" unicode="~" horiz-adv-x="986" 
d="M917 572q-12 -47 -36 -87t-60.5 -69.5t-84.5 -46t-107 -16.5q-62 0 -119.5 18.5t-112.5 41t-107 41.5t-103 19q-38 0 -61.5 -11t-37.5 -21q-9 -6 -16 -1t-2 15q21 38 45.5 71t57 57t73.5 37.5t94 13.5q71 0 121.5 -15.5t94 -33.5t88 -33.5t103.5 -15.5q55 0 89.5 14
t61.5 34q8 6 15 3t4 -15z" />
    <glyph glyph-name="exclamdown" unicode="&#xa1;" horiz-adv-x="540" 
d="M414 -325q0 -76 -38.5 -116t-103.5 -40t-106.5 41.5t-41.5 117.5q0 73 9 137.5t22.5 125t29 118.5t29 117.5t22.5 123.5t9 137q0 26 10 32.5t17 6.5t17 -6t10 -33q0 -72 8.5 -136.5t21.5 -124.5t27.5 -118t27.5 -118.5t21.5 -125.5t8.5 -139zM414 780q0 -30 -10.5 -56
t-29.5 -45.5t-45 -30.5t-57 -11t-58 11.5t-47 31.5t-31.5 46.5t-11.5 56.5t10.5 55.5t29.5 45t45 30.5t57 11t58 -11.5t47 -31.5t31.5 -46t11.5 -56z" />
    <glyph glyph-name="questiondown" unicode="&#xbf;" horiz-adv-x="750" 
d="M470 1232q0 -30 -10.5 -56t-29.5 -45.5t-45 -30.5t-57 -11t-58 11.5t-47 31.5t-31.5 46.5t-11.5 56.5t10.5 55.5t29.5 45t45 30.5t57 11t58 -11.5t47 -31.5t31.5 -46t11.5 -56zM272 879q3 13 10.5 20t16 7t16.5 -7.5t13 -23.5q17 -58 53.5 -100.5t80.5 -78.5l90.5 -71
t82.5 -78q37 -44 60 -98t29 -111t-5.5 -113.5t-42.5 -105.5q-28 -44 -70 -72t-91.5 -44t-102 -22t-100.5 -6q-71 0 -124 11.5t-90.5 30t-61.5 42t-38 46t-19 43t-5 33.5q0 19 6 40.5t19.5 39t34.5 29t52 11.5q33 0 57.5 -10.5t40.5 -27t24 -37t8 -41.5t-7.5 -39t-16 -33.5
t-14 -28.5t-0.5 -23q9 -21 36.5 -27.5t59.5 -6.5q10 0 29.5 2.5t42.5 10t47 20t43 33t31.5 49t12.5 67.5q0 58 -15.5 101.5t-38 77.5t-47 61.5t-43.5 55.5t-38 62t-30.5 78.5t-12.5 101.5t17 132z" />
    <glyph glyph-name="quoteright" unicode="&#x2019;" horiz-adv-x="500" 
d="M180 1100l-26 26.5t-23 28.5t-16.5 34t-6.5 43q0 29 11 55t30.5 45.5t46 31t57.5 11.5t57 -13t44.5 -34.5t28.5 -50t10 -59.5q0 -67 -22.5 -123t-58.5 -100t-80 -77.5t-86 -55.5q-14 -8 -21.5 1.5t6.5 24.5q21 21 38 50t25.5 59t6 57.5t-20.5 45.5z" />
    <glyph glyph-name="quoteleft" unicode="&#x2018;" horiz-adv-x="500" 
d="M321 1100q-18 -18 -20.5 -45.5t6 -57.5t25.5 -59t38 -50q14 -15 6.5 -24.5t-21.5 -1.5q-42 22 -86 55.5t-80 77.5t-58.5 100t-22.5 123q0 31 10 59.5t28.5 50t44.5 34.5t57 13t57.5 -11.5t46 -31t30.5 -45.5t11 -55q0 -24 -6.5 -43t-16.5 -34t-23 -28.5z" />
    <glyph glyph-name="quotedblright" unicode="&#x201d;" horiz-adv-x="840" 
d="M180 1100l-26 26.5t-23 28.5t-16.5 34t-6.5 43q0 29 11 55t30.5 45.5t46 31t57.5 11.5t57 -13t44.5 -34.5t28.5 -50t10 -59.5q0 -67 -22.5 -123t-58.5 -100t-80 -77.5t-86 -55.5q-14 -8 -21.5 1.5t6.5 24.5q21 21 38 50t25.5 59t6 57.5t-20.5 45.5zM520 1100l-26 26.5
t-23 28.5t-16.5 34t-6.5 43q0 29 11 55t30.5 45.5t46 31t57.5 11.5t57 -13t44.5 -34.5t28.5 -50t10 -59.5q0 -67 -22.5 -123t-58.5 -100t-80 -77.5t-86 -55.5q-14 -8 -21.5 1.5t6.5 24.5q21 21 38 50t25.5 59t6 57.5t-20.5 45.5z" />
    <glyph glyph-name="quotedblleft" unicode="&#x201c;" horiz-adv-x="840" 
d="M661 1100q-18 -18 -20.5 -45.5t6 -57.5t25.5 -59t38 -50q14 -15 6.5 -24.5t-21.5 -1.5q-42 22 -86 55.5t-80 77.5t-58.5 100t-22.5 123q0 31 10 59.5t28.5 50t44.5 34.5t57 13t57.5 -11.5t46 -31t30.5 -45.5t11 -55q0 -24 -6.5 -43t-16.5 -34t-23 -28.5zM321 1100
q-18 -18 -20.5 -45.5t6 -57.5t25.5 -59t38 -50q14 -15 6.5 -24.5t-21.5 -1.5q-42 22 -86 55.5t-80 77.5t-58.5 100t-22.5 123q0 31 10 59.5t28.5 50t44.5 34.5t57 13t57.5 -11.5t46 -31t30.5 -45.5t11 -55q0 -24 -6.5 -43t-16.5 -34t-23 -28.5z" />
    <glyph glyph-name="cent" unicode="&#xa2;" horiz-adv-x="944" 
d="M885 241q14 6 22.5 -2.5t-0.5 -25.5q-8 -15 -31 -48t-63 -70t-97.5 -69t-135.5 -45q-11 -2 -11 -12v-229q0 -24 -4 -29.5t-14 -5.5q-18 0 -32.5 12.5t-14.5 31.5v215q0 10 -7 10q-104 0 -187 30t-142 88t-90.5 142.5t-31.5 192.5q0 89 21 159.5t56.5 124.5t82 92.5
t96.5 63.5t100 38.5t93 17.5q9 0 9 10v226q0 24 4 29.5t14 5.5q18 0 32.5 -12.5t14.5 -32.5v-217q0 -9 10 -10q58 -5 105.5 -19t81.5 -35.5t53 -49.5t19 -60q0 -31 -10.5 -52t-27 -34.5t-37 -19.5t-41.5 -6q-30 0 -56.5 11t-43.5 37q-8 11 -13 25.5l-10 30.5l-10 32.5
t-11 31.5q-2 5 -5.5 4t-3.5 -6v-676q0 -10 11 -12q6 -1 12 -1h12q57 0 105 17t84 38t59.5 40t32.5 23zM324 488q0 -127 45.5 -213t119.5 -124q7 -4 11 -1.5t4 8.5v701q0 10 -11 10q-38 -5 -69 -34t-53.5 -78.5t-34.5 -118t-12 -150.5z" />
    <glyph glyph-name="ellipsis" unicode="&#x2026;" horiz-adv-x="1699" 
d="M400 124q0 -31 -12 -58t-32.5 -47.5t-48.5 -32t-60 -11.5t-59 11.5t-46.5 31t-30.5 46t-11 57.5q0 30 12 57.5t32.5 47.5t48.5 32t60 12t59 -11.5t46.5 -31t30.5 -46.5t11 -57zM1000 124q0 -31 -12 -58t-32.5 -47.5t-48.5 -32t-60 -11.5t-59 11.5t-46.5 31t-30.5 46
t-11 57.5q0 30 12 57.5t32.5 47.5t48.5 32t60 12t59 -11.5t46.5 -31t30.5 -46.5t11 -57zM1600 124q0 -31 -12 -58t-32.5 -47.5t-48.5 -32t-60 -11.5t-59 11.5t-46.5 31t-30.5 46t-11 57.5q0 30 12 57.5t32.5 47.5t48.5 32t60 12t59 -11.5t46.5 -31t30.5 -46.5t11 -57z" />
    <glyph glyph-name="currency" unicode="&#xa4;" horiz-adv-x="939" 
d="M908 15q6 -6 3.5 -10.5t-10.5 -4.5h-58q-8 0 -17.5 4.5t-14.5 10.5l-182 216q-35 -23 -77 -35t-89 -12q-89 0 -157 42l-177 -211q-5 -6 -15 -10.5t-18 -4.5h-58q-8 0 -10 4.5t3 10.5l217 259q-38 39 -58 91t-20 112q0 59 22 111t60 93l-221 264q-5 6 -3 10.5t10 4.5h58
q8 0 18 -4.5t15 -10.5l181 -216q35 23 77 35t89 12q45 0 84.5 -11.5t72.5 -31.5l178 212q5 6 14.5 10.5t17.5 4.5h58q8 0 10.5 -4.5t-3.5 -10.5l-216 -259q37 -39 57.5 -91t20.5 -112q0 -59 -22 -111t-61 -93zM470 270q48 0 83.5 16.5t59 45t35.5 66.5t12 82q0 43 -12 81.5
t-35.5 67t-59 45t-83.5 16.5t-83.5 -16.5t-59.5 -45t-35.5 -67t-11.5 -81.5q0 -44 11.5 -82t35.5 -66.5t59.5 -45t83.5 -16.5z" />
    <glyph glyph-name="AE" unicode="&#xc6;" horiz-adv-x="1778" 
d="M1735 288q6 16 19 14.5t13 -17.5v-266q0 -19 -21 -19h-1062q-10 0 -15 4.5t-5.5 10t4 10.5t13.5 7q12 2 38 8.5t52.5 23.5t46.5 46t20 76v297q0 8 -6 14t-14 6h-393q-5 0 -11 -2t-11 -10l-63.5 -117l-53 -99l-39 -74t-21.5 -43q-16 -35 -10 -57.5t22 -36.5t37 -21t36 -11
q9 -2 12 -7.5t2 -11t-6 -9.5t-12 -4h-370q-8 0 -12.5 4t-5 9t3 10.5t11.5 7.5q53 14 102.5 46t87.5 86q10 15 39.5 62.5l70 115.5l89.5 151l99.5 169l98 169.5l86 152.5l64 117t30.5 64q6 23 -1 43t-22 36.5t-34.5 30t-39 23t-36 15t-24.5 6.5q-9 1 -13.5 6.5t-4 11t5.5 10
t15 4.5h1112q21 0 21 -19v-208q0 -15 -12 -16.5t-20 12.5q-6 13 -24 41.5t-50 58t-80 52t-115 22.5q-47 0 -86 -8t-66.5 -25.5t-43 -45t-15.5 -66.5v-407q0 -6 4.5 -10.5t10.5 -4.5h128q45 0 73.5 18t45 42t23.5 47.5t9 35.5q1 8 6.5 11.5t11 3t10 -5t4.5 -12.5v-340
q0 -8 -4.5 -12.5t-10 -5t-11 3t-6.5 11.5q-2 12 -9 35.5t-23.5 47.5t-45 42t-73.5 18h-128q-6 0 -10.5 -4.5t-4.5 -10.5v-446q0 -71 62 -108t176 -37q54 0 98.5 14.5t80 36.5t62 49.5t45 52.5t29 45.5t14.5 29.5zM838 1209q0 14 -10.5 18.5t-19.5 -9.5q-2 -4 -18.5 -33
l-43.5 -76.5l-61.5 -109l-73 -131l-78.5 -142l-78 -140.5q-5 -8 -1 -13t10 -5h354q8 0 14 6t6 14v621z" />
    <glyph glyph-name="OE" unicode="&#x152;" horiz-adv-x="1926" 
d="M1883 288q6 16 19 14.5t13 -17.5v-266q0 -19 -21 -19h-865q-38 0 -78.5 -4.5t-79.5 -9.5l-74 -9.5t-62 -4.5q-153 0 -280.5 54t-219.5 148t-143.5 220.5t-51.5 272.5q0 97 25.5 187.5t72 169.5t112.5 144.5t146.5 112t173.5 72t195 25.5q27 0 58 -4.5l67 -9.5t78.5 -9.5
t92.5 -4.5h746q21 0 21 -19v-208q0 -15 -12.5 -16.5t-19.5 12.5q-6 13 -24 41.5t-50 58t-80 52t-115 22.5q-47 0 -86 -8t-66.5 -25.5t-43 -45t-15.5 -66.5v-422v15q0 -6 4 -10.5t11 -4.5h128q45 0 73.5 18t45 42t23.5 47.5t9 35.5q1 8 6.5 11.5t11 3t10 -5t4.5 -12.5v-340
q0 -8 -4.5 -12.5t-10 -5t-11 3t-6.5 11.5q-2 12 -9 35.5t-23.5 47.5t-45 42t-73.5 18h-128q-7 0 -11 -4.5t-4 -10.5v15v-461q0 -71 62 -108t176 -37q54 0 98.5 14.5t80 36.5t62 49.5t45 52.5t29 45.5t14.5 29.5zM425 675q0 -134 20 -251t60.5 -204.5t101.5 -138t143 -50.5
q78 0 128.5 45.5t76.5 125.5q7 21 12 68.5t8.5 111.5t5 139.5t1.5 154t-1.5 154t-5 139.5t-8.5 111t-12 68q-26 80 -76.5 125.5t-128.5 45.5q-82 0 -143 -50.5t-101.5 -138t-60.5 -205t-20 -250.5z" />
    <glyph glyph-name="oe" unicode="&#x153;" horiz-adv-x="1574" 
d="M996 530q-16 0 -16 -17q0 -102 18 -175t52.5 -119.5t86 -68.5t119.5 -22q52 0 92.5 11t70.5 25.5t49 27.5t28 17q14 6 22 -2.5t0 -25.5q-3 -6 -13.5 -23.5t-30.5 -40.5t-50 -48t-71.5 -46t-95 -34.5t-119.5 -13.5q-90 0 -164 26.5t-130 77.5q-11 10 -21.5 9t-20.5 -9
q-63 -48 -139.5 -75.5t-164.5 -27.5q-103 0 -189.5 36.5t-148.5 100t-97 149.5t-35 184t38 185.5t104 153t155.5 103.5t192.5 38q89 0 164.5 -27t135.5 -75q11 -10 19.5 -10t18.5 8q62 51 136.5 77t152.5 26t137.5 -21.5t103 -56t72.5 -77t46 -84.5t24 -79t7 -59
q0 -10 -6.5 -14t-17.5 -4h-515zM985 596q-2 -13 12 -13q3 0 20 0.5t41.5 1.5t52.5 2l53.5 2t44 1.5t23.5 1.5q16 1 33.5 14t17.5 45q0 29 -8 67t-25.5 72t-44.5 57.5t-66 23.5q-31 0 -54 -16.5t-39.5 -43t-27.5 -58.5t-18 -62.5t-10.5 -56t-4.5 -38.5zM508 29q48 0 83.5 33
t59.5 90.5t35.5 134.5t11.5 164t-11.5 164t-35.5 134.5t-59.5 90.5t-83.5 33t-83.5 -33t-59.5 -90.5t-35.5 -134.5t-11.5 -164t11.5 -164t35.5 -134.5t59.5 -90.5t83.5 -33z" />
    <glyph glyph-name="ae" unicode="&#xe6;" horiz-adv-x="1447" 
d="M869 530q-16 0 -16 -17q0 -102 18 -175t52.5 -119.5t86 -68.5t119.5 -22q52 0 92.5 11t70.5 25.5t49 27.5t28 17q14 6 22 -2.5t0 -25.5q-3 -6 -13.5 -23.5t-30.5 -40.5t-50 -48t-71.5 -46t-95 -34.5t-119.5 -13.5q-121 0 -213.5 48.5t-149.5 136.5q-4 6 -8.5 6t-7.5 -7
q-36 -82 -106 -133t-179 -51q-89 0 -149.5 25t-98 64.5t-54 89t-16.5 98.5q0 79 44.5 138t115.5 88q38 15 79.5 21.5l82.5 13.5t80.5 17.5t74.5 34.5q37 25 51.5 64t14.5 83q0 32 -8.5 61.5t-24 51.5t-36 35t-44.5 13q-43 0 -63 -22t-31.5 -53t-21.5 -64.5t-32 -57.5
q-18 -19 -46.5 -28.5t-54.5 -9.5q-27 0 -48 9t-36 24.5t-22.5 36t-7.5 43.5q0 31 15 62t53.5 56t103.5 40.5t165 15.5q103 0 181.5 -22t133.5 -67q59 45 128.5 67t141.5 22q78 0 137.5 -21.5t103 -56t72 -77t46 -84.5t24.5 -79t7 -59q0 -10 -6.5 -14t-17.5 -4h-515zM858 596
q-2 -13 12 -13q3 0 20 0.5t41.5 1.5t52.5 2l53.5 2t44 1.5t23.5 1.5q16 1 33.5 14t17.5 45q0 29 -8 67t-25.5 72t-44.5 57.5t-66 23.5q-31 0 -54 -16.5t-39.5 -43t-27.5 -58.5t-18 -62.5t-10.5 -56t-4.5 -38.5zM450 80q28 0 51 13t41.5 33.5t32.5 44.5t24 46q5 11 5 21.5
t-4 21.5q-29 87 -29 191v3v85q0 6 -5 8t-9 -3l-14.5 -17t-17.5 -19q-19 -20 -39 -37.5l-40 -35.5l-39.5 -32t-36.5 -35q-26 -30 -38.5 -65.5t-12.5 -75.5q0 -27 7 -53.5t23 -47.5t40.5 -33.5t60.5 -12.5z" />
    <glyph glyph-name="mu" unicode="&#xb5;" horiz-adv-x="1349" 
d="M1235 109q15 7 23 -2.5t0 -22.5q-4 -6 -17.5 -24t-39 -36.5t-64 -33.5t-92.5 -15q-64 0 -110 26.5t-66 68.5q-5 10 -15 1q-42 -39 -109 -67.5t-166 -28.5q-73 0 -124.5 14t-87.5 39q-5 4 -9 2t-4 -8q0 -29 10.5 -55t23.5 -51.5t23.5 -51t10.5 -53.5q0 -54 -32.5 -88
t-86.5 -34t-86.5 34t-32.5 88q0 28 11 53.5t24 51t24 51.5t11 55v858q0 8 6 14t14 6h230q8 0 14 -6t6 -14v-504q0 -28 1 -62t6 -69t15.5 -68.5t30 -59t49 -41t73.5 -15.5q53 0 83.5 19.5t46.5 49.5t20.5 65t4.5 66v619q0 8 6 14t14 6h230q8 0 14 -6t6 -14v-672
q0 -52 16.5 -82.5t51.5 -30.5q16 0 24 4.5t19 9.5z" />
    <glyph glyph-name="quotesingle" unicode="'" horiz-adv-x="375" 
d="M138 1100l-26 26.5t-23 28.5t-16.5 34t-6.5 43q0 29 11 55t30.5 45.5t46 31t57.5 11.5t57 -13t44.5 -34.5t28.5 -50t10 -59.5q0 -67 -22.5 -123t-58.5 -100t-80 -77.5t-86 -55.5q-14 -8 -21.5 1.5t6.5 24.5q21 21 38 50t25.5 59t6 57.5t-20.5 45.5z" />
    <glyph glyph-name="quotedbl" unicode="&#x22;" horiz-adv-x="840" 
d="M180 1100l-26 26.5t-23 28.5t-16.5 34t-6.5 43q0 29 11 55t30.5 45.5t46 31t57.5 11.5t57 -13t44.5 -34.5t28.5 -50t10 -59.5q0 -67 -22.5 -123t-58.5 -100t-80 -77.5t-86 -55.5q-14 -8 -21.5 1.5t6.5 24.5q21 21 38 50t25.5 59t6 57.5t-20.5 45.5zM520 1100l-26 26.5
t-23 28.5t-16.5 34t-6.5 43q0 29 11 55t30.5 45.5t46 31t57.5 11.5t57 -13t44.5 -34.5t28.5 -50t10 -59.5q0 -67 -22.5 -123t-58.5 -100t-80 -77.5t-86 -55.5q-14 -8 -21.5 1.5t6.5 24.5q21 21 38 50t25.5 59t6 57.5t-20.5 45.5z" />
    <glyph glyph-name="iacute" unicode="&#xed;" horiz-adv-x="704" 
d="M444 915q0 14 -9.5 15t-18.5 -5q-34 -23 -77 -45.5t-89 -42t-91.5 -35t-84.5 -24.5q-15 -4 -14.5 -14.5t13.5 -13.5q3 -1 16.5 -4t29.5 -7l28.5 -7t14.5 -3q12 -3 12 -16v-556q0 -40 -16 -64.5t-36.5 -38t-40 -19t-27.5 -6.5q-8 -2 -11.5 -6.5t-2.5 -9.5t5.5 -9t12.5 -4
h502q8 0 12.5 4t5.5 9t-2.5 9.5t-11.5 6.5q-8 1 -27.5 6.5t-40 19t-36.5 38t-16 64.5v758zM182 991l24.5 36l42.5 62.5l50.5 74.5l49 72l37.5 55.5t17 24.5q12 15 26 28.5t30.5 21.5t34.5 9.5t38 -7.5q22 -9 31 -26t9.5 -36.5t-6 -40.5t-16.5 -37q-23 -35 -65.5 -72.5
t-93 -72t-102.5 -63t-92 -46.5q-11 -5 -16.5 1t1.5 16z" />
    <glyph glyph-name="Oslash" unicode="&#xd8;" 
d="M1235 1204q106 -96 165.5 -230t59.5 -292q0 -97 -25.5 -187.5t-72 -169t-112.5 -144t-146.5 -112t-173.5 -72t-195 -25.5q-123 0 -229 35t-192 99l-192 -228q-8 -10 -22 -16.5t-27 -6.5h-31q-13 0 -16 6.5t5 16.5l229 272q-104 96 -162 229t-58 288q0 97 25.5 187.5
t72 169.5t112.5 144.5t146.5 112t173.5 72t195 25.5q121 0 226 -34t190 -96l188 224q8 10 22 16.5t27 6.5h31q13 0 16 -6.5t-5 -16.5zM425 675q0 -80 7 -154t21 -140l569 678q-20 59 -46.5 107t-60.5 82t-75 52.5t-90 18.5q-82 0 -143 -50.5t-101.5 -138t-60.5 -205
t-20 -250.5zM750 31q82 0 143 50.5t101.5 138t60.5 204.5t20 251q0 82 -7.5 158t-22.5 144l-570 -679q19 -61 46 -110t61.5 -84t76 -54t91.5 -19z" />
    <glyph glyph-name="oslash" unicode="&#xf8;" horiz-adv-x="1014" 
d="M1014 1045q13 0 16 -6.5t-5 -16.5l-184 -220q69 -64 107.5 -153t38.5 -194q0 -98 -38 -185.5t-104 -153t-155.5 -103.5t-192.5 -38q-81 0 -151 22.5t-128 63.5l-153 -183q-8 -10 -22.5 -16.5t-26.5 -6.5h-25q-12 0 -15.5 6.5t4.5 16.5l188 224q-67 64 -104 152t-37 191
q0 98 38 185.5t104 153t155.5 103.5t192.5 38q79 0 147.5 -21.5t125.5 -60.5l150 179q8 10 22.5 16.5t27.5 6.5h24zM317 450q0 -42 3 -81.5t8 -76.5l339 405q-23 80 -62.5 127.5t-97.5 47.5q-48 0 -83.5 -33t-59.5 -90.5t-35.5 -134.5t-11.5 -164zM697 450q0 89 -12 166
l-341 -405q23 -84 63 -133.5t100 -49.5q48 0 83.5 33t59.5 90.5t35.5 134.5t11.5 164z" />
    <glyph glyph-name="asterisk" unicode="*" horiz-adv-x="597" 
d="M529 1009q32 -19 38 -42t-7 -45t-36 -29t-55 12q-19 11 -39 29.5t-40.5 39.5l-40.5 41.5t-38 35.5q3 -23 11 -50.5l16 -56t14 -55t6 -48.5q0 -38 -17 -54t-43 -16q-25 0 -42.5 16t-17.5 54q0 22 6 48.5t14.5 55l16.5 56t11 50.5q-18 -15 -38.5 -35.5l-40.5 -41.5
t-40.5 -39.5t-38.5 -29.5q-33 -19 -56 -12t-35 29q-13 22 -7.5 45t38.5 42q18 11 44.5 19t55 15l56 14t49.5 16q-22 9 -49.5 16l-56 14t-55 15t-44.5 19q-33 19 -38.5 42t7.5 45q12 22 35 29t56 -12q18 -11 38.5 -30t40.5 -40l40.5 -41.5t38.5 -34.5q-3 23 -11 50.5
l-16.5 56t-14.5 55t-6 48.5q0 38 17.5 54t42.5 16q26 0 43 -16t17 -54q0 -22 -6 -48.5t-14 -55l-16 -56t-11 -50.5q18 14 38 34.5l40.5 41.5l40.5 40t39 30q32 19 55 12t36 -29t7 -45t-38 -42q-19 -11 -45 -19t-54.5 -15l-56 -14t-49.5 -16q22 -9 49.5 -16l56 -14t54.5 -15
t45 -19z" />
    <glyph glyph-name="Eswash" horiz-adv-x="1084" 
d="M1692 -73q23 12 30.5 2t-3.5 -30q-37 -64 -103 -128.5t-157.5 -116t-206 -84t-248.5 -32.5q-130 0 -244 29t-217 72t-195.5 92.5t-178 90.5t-166 65.5t-159.5 17.5q-17 -2 -21.5 7t8.5 20q38 32 102.5 55t145.5 23q50 0 100 -3q16 -1 16 13v1144q0 46 -20 75.5t-46.5 46
t-52.5 23.5t-38 9q-9 1 -13.5 6.5t-4 11t5.5 10t15 4.5h975q21 0 21 -19v-208q0 -15 -12 -16.5t-20 12.5q-6 13 -24 41.5t-50 58t-80 52t-115 22.5q-47 0 -86 -8t-66.5 -25.5t-43 -45t-15.5 -66.5v-452v15q0 -6 4.5 -10.5t10.5 -4.5h128q45 0 73.5 18t45 42t23.5 47.5
t9 35.5q1 8 6.5 11.5t11 3t10 -5t4.5 -12.5v-340q0 -8 -4.5 -12.5t-10 -5t-11 3t-6.5 11.5q-2 12 -9 35.5t-23.5 47.5t-45 42t-73.5 18h-128q-6 0 -10.5 -4.5t-4.5 -10.5v15v-631q0 -29 11.5 -41t32.5 -19q48 -15 127 -34.5t172.5 -37.5t192.5 -30t185 -12q72 0 133 6
t115 18t102.5 30t95.5 42z" />
    <glyph glyph-name="Sswash" horiz-adv-x="1247" 
d="M708 51q37 0 74.5 12.5t67 38t48 64t18.5 91.5q0 61 -34 105.5t-88 76t-121 52.5t-133 36q-62 14 -131.5 37.5t-133.5 56.5t-115.5 75t-78.5 94q-23 43 -35.5 89t-12.5 95q0 71 25 143t82 130t149 94.5t225 36.5q85 0 147 -13.5t103.5 -30t63.5 -31t25 -17.5
q12 -9 12 -21v-182q0 -7 -4 -11t-9 -5t-10 2t-8 9q-19 45 -45 89.5t-65.5 79t-96.5 56t-137 21.5q-104 0 -162 -49t-58 -133q0 -75 33 -120t92.5 -74t143 -49l185.5 -44q71 -17 135.5 -37.5t119.5 -48t99.5 -63t76 -82t48.5 -105.5t17 -134q0 -96 -37 -170.5t-101 -125.5
t-148.5 -77t-180.5 -26q-71 0 -140.5 14.5t-140.5 36.5t-144 47.5t-151.5 47.5t-163 36.5t-176.5 14.5q-88 0 -162.5 -7.5t-139 -21.5t-120.5 -33t-107 -42q-22 -10 -27.5 -0.5t-0.5 24.5q24 69 68 128t103.5 102.5t132.5 68.5t156 25q119 0 216 -28t179 -69.5t153.5 -90.5
t139.5 -90.5t136 -69.5t144 -28z" />
    <glyph glyph-name="Mswash" horiz-adv-x="1654" 
d="M352 1080q-31 -497 -98.5 -846.5t-169.5 -569.5t-238 -320.5t-304 -100.5q-87 0 -146 30t-95 78t-51.5 107.5t-15.5 117.5q0 15 9.5 20t20.5 -6q12 -12 24 -21.5t28.5 -16.5t39 -10.5t54.5 -3.5q84 0 166 47t160 128.5t149.5 191.5t133.5 235.5t113 261t87 268.5
t55.5 257t19.5 227q0 31 -9.5 55t-24.5 41t-34 28.5t-37.5 19.5t-35.5 12.5l-28 7.5q-9 3 -13.5 8t-4 10.5t5.5 9.5t15 4h466q14 0 25 -6t14 -18q7 -25 18 -68.5l25.5 -98l30 -116l31 -122.5l30.5 -118l26.5 -103l19 -76l9.5 -38q2 -5 6 -5.5t6 4.5l14 34.5l30 74.5
l41 102.5l47.5 119.5l49 124.5l46.5 117.5l39.5 99l27.5 69q10 24 41 24h442q10 0 15 -4.5t5.5 -10t-4 -11t-13.5 -6.5q-12 -2 -38 -9t-52.5 -23.5t-46.5 -46t-20 -75.5v-978q0 -47 20 -76t46.5 -46t52.5 -23.5t38 -8.5q9 -2 13.5 -7t4 -10.5t-5.5 -10t-15 -4.5h-638
q-10 0 -15 4.5t-5.5 10t4 10.5t13.5 7q12 2 38 8.5t52.5 23.5t46.5 46t20 76v927q0 7 -5.5 9.5t-10.5 -7.5q-2 -4 -15 -36.5l-34 -86l-49 -123l-59 -147.5l-63.5 -160l-63.5 -159.5l-58.5 -146.5l-48.5 -121.5l-34 -83.5t-14 -33q-6 -10 -15.5 -10t-14.5 10q-1 2 -13 48
l-31 120l-43 168l-49 192l-49 192.5l-43 170l-31.5 123t-14.5 52.5q-3 8 -10 8t-8 -12z" />
    <glyph glyph-name="guillemotright" unicode="&#xbb;" horiz-adv-x="1152" 
d="M557 551q33 -25 53.5 -49t20.5 -52q0 -29 -20.5 -52.5t-53.5 -48.5q-3 -3 -35 -25l-79.5 -54.5l-103 -71l-106 -73.5l-89 -62l-51.5 -36q-14 -9 -22.5 1t0.5 24q27 42 65.5 94t83 105t92 104t93.5 91q4 4 0 8q-46 40 -93.5 91t-92 104t-83 104.5t-65.5 93.5
q-5 7 -4.5 13.5t4 11t9.5 5t13 -4.5l51.5 -35.5l89 -61.5l106 -73.5l103 -71l79.5 -55zM1027 551q33 -25 53.5 -49t20.5 -52q0 -29 -20.5 -52.5t-53.5 -48.5q-3 -3 -35 -25l-79.5 -54.5l-103 -71l-106 -73.5l-89 -62l-51.5 -36q-14 -9 -22.5 1t0.5 24q27 42 65.5 94t83 105
t92 104t93.5 91q4 4 0 8q-46 40 -93.5 91t-92 104t-83 104.5t-65.5 93.5q-5 7 -4.5 13.5t4 11t9.5 5t13 -4.5l51.5 -35.5l89 -61.5l106 -73.5l103 -71l79.5 -55z" />
    <glyph glyph-name="section" unicode="&#xa7;" horiz-adv-x="740" 
d="M545 585q-11 -5 -13.5 -14t5.5 -17q27 -24 49.5 -52.5t39 -61.5t25.5 -71.5t9 -83.5q0 -77 -23 -135t-62.5 -97t-92 -58.5t-112.5 -19.5q-71 0 -127 19t-94.5 49.5t-59 69.5t-20.5 80q0 46 22 68t59 22q39 0 60.5 -20t21.5 -53q0 -14 -2.5 -24.5t-6 -19t-6 -16
t-2.5 -16.5q0 -21 10.5 -41t30 -36.5t48 -26.5t63.5 -10q77 0 117 44.5t40 129.5q0 46 -15 82.5t-43.5 68t-70 61t-95.5 61.5q-50 30 -96.5 66.5t-82.5 82.5t-57.5 103.5t-21.5 129.5q0 86 32 146.5t88 94.5q24 15 5 39q-35 42 -57.5 92.5t-22.5 113.5q0 60 22 112t59 90.5
t86.5 60.5t103.5 22q65 0 115 -17.5t83.5 -46t51 -64.5t17.5 -73q0 -46 -22 -68t-59 -22q-39 0 -60.5 20t-21.5 53q0 14 2.5 24.5t6 19t6 16t2.5 16.5q0 15 -8.5 32t-23.5 32t-37 24.5t-49 9.5q-32 0 -57.5 -11t-43.5 -30.5t-27.5 -46.5t-9.5 -59q0 -46 17.5 -83t48.5 -69.5
t73 -63t91 -62.5t93 -66t77.5 -74t53.5 -88.5t20 -108.5q0 -86 -43 -142t-109 -87zM138 942q0 -46 21 -84.5t54.5 -71t75 -60.5l83.5 -54l49 -31t49 -33q5 -4 11.5 -5.5t13.5 1.5q32 14 52 38t20 65q0 40 -12.5 72.5t-35 60.5t-54.5 54t-72 55l-78 53t-86 65q-13 10 -26 2
q-30 -20 -47.5 -51t-17.5 -76z" />
    <glyph glyph-name="guilsinglright" unicode="&#x203a;" horiz-adv-x="676" 
d="M557 551q33 -25 53.5 -49t20.5 -52q0 -29 -20.5 -52.5t-53.5 -48.5q-3 -3 -35 -25l-79.5 -54.5l-103 -71l-106 -73.5l-89 -62l-51.5 -36q-14 -9 -22.5 1t0.5 24q27 42 65.5 94t83 105t92 104t93.5 91q4 4 0 8q-46 40 -93.5 91t-92 104t-83 104.5t-65.5 93.5
q-5 7 -4.5 13.5t4 11t9.5 5t13 -4.5l51.5 -35.5l89 -61.5l106 -73.5l103 -71l79.5 -55z" />
    <glyph glyph-name="guilsinglleft" unicode="&#x2039;" horiz-adv-x="676" 
d="M118 551l35 24.5l79.5 55l103 71l106 73.5l89 61.5l51.5 35.5q7 5 13 4.5t9.5 -5t3.5 -11t-4 -13.5q-27 -42 -65.5 -93.5t-83 -104.5t-92 -104t-93.5 -91q-4 -4 0 -8q46 -40 93.5 -91t92 -104t83 -105t65.5 -94q9 -14 0.5 -24t-22.5 -1l-51.5 36l-89 62l-106 73.5
l-103 71l-79.5 54.5t-35 25q-33 25 -53.5 48.5t-20.5 52.5q0 28 20.5 52t53.5 49z" />
    <glyph glyph-name="guillemotleft" unicode="&#xab;" horiz-adv-x="1152" 
d="M591 551l35 24.5l79.5 55l103 71l106 73.5l89 61.5l51.5 35.5q7 5 13 4.5t9.5 -5t3.5 -11t-4 -13.5q-27 -42 -65.5 -93.5t-83 -104.5t-92 -104t-93.5 -91q-4 -4 0 -8q46 -40 93.5 -91t92 -104t83 -105t65.5 -94q9 -14 0.5 -24t-22.5 -1l-51.5 36l-89 62l-106 73.5
l-103 71l-79.5 54.5t-35 25q-33 25 -53.5 48.5t-20.5 52.5q0 28 20.5 52t53.5 49zM121 551l35 24.5l79.5 55l103 71l106 73.5l89 61.5l51.5 35.5q7 5 13 4.5t9.5 -5t3.5 -11t-4 -13.5q-27 -42 -65.5 -93.5t-83 -104.5t-92 -104t-93.5 -91q-4 -4 0 -8q46 -40 93.5 -91
t92 -104t83 -105t65.5 -94q9 -14 0.5 -24t-22.5 -1l-51.5 36l-89 62l-106 73.5l-103 71l-79.5 54.5t-35 25q-33 25 -53.5 48.5t-20.5 52.5q0 28 20.5 52t53.5 49z" />
    <glyph glyph-name="ntilde" unicode="&#xf1;" horiz-adv-x="1145" 
d="M1147 29q-8 1 -27.5 6.5t-40 19t-36.5 38t-16 64.5v386v5q0 36 -1.5 77.5t-10 83.5t-28 81t-56 69t-92 48t-137.5 18q-50 0 -91.5 -8t-75 -21t-60.5 -30.5t-48 -36.5v86q0 14 -9.5 15t-18.5 -5q-34 -23 -77 -45.5t-89 -42t-91.5 -35t-84.5 -24.5q-15 -4 -14.5 -14.5
t13.5 -13.5q3 -1 16.5 -4t29.5 -7l28.5 -7t14.5 -3q12 -3 12 -16v-556q0 -40 -16 -64.5t-36.5 -38t-40 -19t-27.5 -6.5q-8 -2 -11.5 -6.5t-2.5 -9.5t5.5 -9t12.5 -4h502q8 0 12.5 4t5.5 9t-2.5 9.5t-11.5 6.5q-8 1 -27.5 6.5t-40 19t-36.5 38t-16 64.5v461q0 30 3.5 68.5
t19 72.5t47.5 57t90 23q56 0 89.5 -23.5t51 -60t23 -81t6.5 -86.5v-56v-8v-367q0 -40 -16 -64.5t-36.5 -38t-40 -19t-27.5 -6.5q-8 -2 -11.5 -6.5t-2.5 -9.5t5.5 -9t12.5 -4h116h9h252h9h116q8 0 12.5 4t5.5 9t-2.5 9.5t-11.5 6.5zM1016 1250q-12 -47 -36 -87t-60.5 -69.5
t-84.5 -46t-107 -16.5q-62 0 -119.5 18.5t-112.5 41t-107 41.5t-103 19q-38 0 -61.5 -11t-37.5 -21q-9 -6 -16 -1t-2 15q21 38 45.5 71t57 57t73.5 37.5t94 13.5q71 0 121.5 -15.5t94 -33.5t88 -33.5t103.5 -15.5q55 0 89.5 14t61.5 34q8 6 15 3t4 -15z" />
    <glyph glyph-name="tilde" unicode="&#x2dc;" horiz-adv-x="1145" 
d="M1016 1250q-12 -47 -36 -87t-60.5 -69.5t-84.5 -46t-107 -16.5q-62 0 -119.5 18.5t-112.5 41t-107 41.5t-103 19q-38 0 -61.5 -11t-37.5 -21q-9 -6 -16 -1t-2 15q21 38 45.5 71t57 57t73.5 37.5t94 13.5q71 0 121.5 -15.5t94 -33.5t88 -33.5t103.5 -15.5q55 0 89.5 14
t61.5 34q8 6 15 3t4 -15z" />
    <glyph glyph-name="Agrave" unicode="&#xc0;" horiz-adv-x="1348" 
d="M1388 33q8 -2 11 -7t2 -11t-6 -10.5t-14 -4.5h-628q-7 0 -11.5 4t-6 9.5t2 10.5t13.5 8l35.5 11t49 26.5t36.5 49.5t-3 79q-5 13 -13.5 39l-18.5 57.5l-21.5 65l-20.5 62t-16 48.5t-8 24q-3 9 -11 9h-431q-9 0 -12 -8q-4 -12 -12.5 -40l-19.5 -63l-22.5 -73.5
l-21.5 -71.5l-17.5 -57.5t-8.5 -31.5q-8 -37 3.5 -60t31.5 -36.5t43 -19.5l38 -10q9 -2 12 -7.5t2 -11t-6 -9.5t-12 -4h-370q-8 0 -12.5 4t-5 9t3 10.5t11.5 7.5q26 7 51 17t46.5 25.5t39 37.5t29.5 52q6 15 26 71.5l49 139l64 182.5l70.5 202.5l69.5 200l60 173.5l42.5 123
l17.5 50q4 11 10 17t19 8q22 4 51 11l59.5 15t60.5 17.5t55 20.5q17 8 24.5 4t12.5 -16l16.5 -50l41 -122.5l57.5 -172.5l66.5 -200l68.5 -205l62.5 -187l48.5 -146.5t28 -83.5q15 -43 35.5 -74.5t45 -54t51.5 -35.5t56 -18zM345 581q-5 -13 8 -13h381q12 0 8 12l-9.5 29.5
l-22.5 68l-31 93.5l-35 105.5l-35 105l-30.5 92l-22 65.5t-8.5 26q-2 7 -8.5 6t-8.5 -7q-1 -2 -12 -36.5l-28 -88l-38 -119l-41.5 -129.5l-38 -120zM686 1416q6 -10 1 -16t-16 -1q-41 18 -92.5 46.5t-102 63t-93.5 72t-65 72.5q-11 16 -17.5 37t-6 40.5t10 36.5t30.5 26
q20 9 38.5 7.5t35 -9.5t30.5 -21.5t25 -28.5q2 -2 17.5 -24.5l38 -55.5l49 -72l50.5 -74.5l42.5 -62.5z" />
    <glyph glyph-name="Aacute" unicode="&#xc1;" horiz-adv-x="1348" 
d="M1388 33q-29 5 -56 18t-51.5 35.5t-45 54t-35.5 74.5q-8 22 -28 83.5l-48.5 146.5l-62.5 187l-68.5 205l-66.5 200l-57.5 172.5l-41 122.5l-16.5 50q-5 12 -12.5 16t-24.5 -4q-25 -11 -55 -20.5t-60.5 -17.5l-59.5 -15t-51 -11q-13 -2 -19 -8t-10 -17l-17.5 -50
l-42.5 -123l-60 -173.5l-69.5 -200l-70.5 -202.5l-64 -182.5l-49 -139t-26 -71.5q-12 -30 -29.5 -52t-39 -37.5t-46.5 -25.5t-51 -17q-8 -2 -11.5 -7.5t-3 -10.5t5 -9t12.5 -4h370q7 0 12 4t6 9.5t-2 11t-12 7.5l-38 10t-43 19.5t-31.5 36.5t-3.5 60q1 7 8.5 31.5l17.5 57.5
l21.5 71.5l22.5 73.5l19.5 63t12.5 40q3 8 12 8h431q8 0 11 -9q1 -4 8 -24t16 -48.5l20.5 -62l21.5 -65l18.5 -57.5t13.5 -39q16 -48 3 -79t-36.5 -49.5t-49 -26.5l-35.5 -11t-13.5 -8t-2 -10.5t6 -9.5t11.5 -4h628q9 0 14 4.5t6 10.5t-2 11t-11 7zM345 581l28.5 90l38 120
l41.5 129.5l38 119l28 88t12 36.5q2 6 8.5 7t8.5 -6q0 -1 8.5 -26l22 -65.5l30.5 -92l35 -105l35 -105.5l31 -93.5l22.5 -68l9.5 -29.5q4 -12 -8 -12h-381q-13 0 -8 13zM526 1416l24.5 36l42.5 62.5l50.5 74.5l49 72l38 55.5t17.5 24.5q11 15 25 28.5t30.5 21.5t35 9.5
t38.5 -7.5q21 -9 30.5 -26t10 -36.5t-6.5 -40.5t-17 -37q-22 -35 -65 -72.5t-93.5 -72t-102.5 -63t-92 -46.5q-11 -5 -16 1t1 16z" />
    <glyph glyph-name="Acircumflex" unicode="&#xc2;" horiz-adv-x="1348" 
d="M1388 33q8 -2 11 -7t2 -11t-6 -10.5t-14 -4.5h-628q-7 0 -11.5 4t-6 9.5t2 10.5t13.5 8l35.5 11t49 26.5t36.5 49.5t-3 79q-5 13 -13.5 39l-18.5 57.5l-21.5 65l-20.5 62t-16 48.5t-8 24q-3 9 -11 9h-431q-9 0 -12 -8q-4 -12 -12.5 -40l-19.5 -63l-22.5 -73.5
l-21.5 -71.5l-17.5 -57.5t-8.5 -31.5q-8 -37 3.5 -60t31.5 -36.5t43 -19.5l38 -10q9 -2 12 -7.5t2 -11t-6 -9.5t-12 -4h-370q-8 0 -12.5 4t-5 9t3 10.5t11.5 7.5q26 7 51 17t46.5 25.5t39 37.5t29.5 52q6 15 26 71.5l49 139l64 182.5l70.5 202.5l69.5 200l60 173.5l42.5 123
l17.5 50q4 11 10 17t19 8q22 4 51 11l59.5 15t60.5 17.5t55 20.5q17 8 24.5 4t12.5 -16l16.5 -50l41 -122.5l57.5 -172.5l66.5 -200l68.5 -205l62.5 -187l48.5 -146.5t28 -83.5q15 -43 35.5 -74.5t45 -54t51.5 -35.5t56 -18zM345 581q-5 -13 8 -13h381q12 0 8 12l-9.5 29.5
l-22.5 68l-31 93.5l-35 105.5l-35 105l-30.5 92l-22 65.5t-8.5 26q-2 7 -8.5 6t-8.5 -7q-1 -2 -12 -36.5l-28 -88l-38 -119l-41.5 -129.5l-38 -120zM1001 1415q6 -10 1 -16t-16 -1q-31 13 -68.5 33.5t-77 44.5t-77 51t-68.5 55q-13 10 -24 0q-31 -28 -68.5 -55t-77 -51
t-77 -44.5t-68.5 -33.5q-11 -5 -16 1t1 16l24.5 36l42.5 62.5l50.5 74.5l49 72l38 55.5t17.5 24.5q18 24 42.5 42t53.5 18t53.5 -18t42.5 -42q2 -2 17.5 -24.5l38 -55.5l49 -72l50.5 -74.5l42.5 -62.5z" />
    <glyph glyph-name="Atilde" unicode="&#xc3;" horiz-adv-x="1348" 
d="M1388 33q-29 5 -56 18t-51.5 35.5t-45 54t-35.5 74.5q-8 22 -28 83.5l-48.5 146.5l-62.5 187l-68.5 205l-66.5 200l-57.5 172.5l-41 122.5l-16.5 50q-5 12 -12.5 16t-24.5 -4q-25 -11 -55 -20.5t-60.5 -17.5l-59.5 -15t-51 -11q-13 -2 -19 -8t-10 -17l-17.5 -50
l-42.5 -123l-60 -173.5l-69.5 -200l-70.5 -202.5l-64 -182.5l-49 -139t-26 -71.5q-12 -30 -29.5 -52t-39 -37.5t-46.5 -25.5t-51 -17q-8 -2 -11.5 -7.5t-3 -10.5t5 -9t12.5 -4h370q7 0 12 4t6 9.5t-2 11t-12 7.5l-38 10t-43 19.5t-31.5 36.5t-3.5 60q1 7 8.5 31.5l17.5 57.5
l21.5 71.5l22.5 73.5l19.5 63t12.5 40q3 8 12 8h431q8 0 11 -9q1 -4 8 -24t16 -48.5l20.5 -62l21.5 -65l18.5 -57.5t13.5 -39q16 -48 3 -79t-36.5 -49.5t-49 -26.5l-35.5 -11t-13.5 -8t-2 -10.5t6 -9.5t11.5 -4h628q9 0 14 4.5t6 10.5t-2 11t-11 7zM345 581l28.5 90l38 120
l41.5 129.5l38 119l28 88t12 36.5q2 6 8.5 7t8.5 -6q0 -1 8.5 -26l22 -65.5l30.5 -92l35 -105l35 -105.5l31 -93.5l22.5 -68l9.5 -29.5q4 -12 -8 -12h-381q-13 0 -8 13zM1086 1666q-12 -47 -36 -87t-60.5 -69.5t-84.5 -46t-107 -16.5q-62 0 -119.5 18.5t-112.5 41t-107 41.5
t-103 19q-38 0 -61.5 -11t-37.5 -21q-9 -6 -16 -1t-2 15q21 38 45.5 71t57 57t73.5 37.5t94 13.5q71 0 121.5 -15.5t94 -33.5t88 -33.5t103.5 -15.5q55 0 89.5 14t61.5 34q8 6 15 3t4 -15z" />
    <glyph glyph-name="Adieresis" unicode="&#xc4;" horiz-adv-x="1348" 
d="M1388 33q-29 5 -56 18t-51.5 35.5t-45 54t-35.5 74.5q-8 22 -28 83.5l-48.5 146.5l-62.5 187l-68.5 205l-66.5 200l-57.5 172.5l-41 122.5l-16.5 50q-5 12 -12.5 16t-24.5 -4q-25 -11 -55 -20.5t-60.5 -17.5l-59.5 -15t-51 -11q-13 -2 -19 -8t-10 -17l-17.5 -50
l-42.5 -123l-60 -173.5l-69.5 -200l-70.5 -202.5l-64 -182.5l-49 -139t-26 -71.5q-12 -30 -29.5 -52t-39 -37.5t-46.5 -25.5t-51 -17q-8 -2 -11.5 -7.5t-3 -10.5t5 -9t12.5 -4h370q7 0 12 4t6 9.5t-2 11t-12 7.5l-38 10t-43 19.5t-31.5 36.5t-3.5 60q1 7 8.5 31.5l17.5 57.5
l21.5 71.5l22.5 73.5l19.5 63t12.5 40q3 8 12 8h431q8 0 11 -9q1 -4 8 -24t16 -48.5l20.5 -62l21.5 -65l18.5 -57.5t13.5 -39q16 -48 3 -79t-36.5 -49.5t-49 -26.5l-35.5 -11t-13.5 -8t-2 -10.5t6 -9.5t11.5 -4h628q9 0 14 4.5t6 10.5t-2 11t-11 7zM345 581l28.5 90l38 120
l41.5 129.5l38 119l28 88t12 36.5q2 6 8.5 7t8.5 -6q0 -1 8.5 -26l22 -65.5l30.5 -92l35 -105l35 -105.5l31 -93.5l22.5 -68l9.5 -29.5q4 -12 -8 -12h-381q-13 0 -8 13zM593 1624q0 -31 -12 -58t-32.5 -47.5t-48.5 -32t-60 -11.5t-59 11.5t-46.5 31t-30.5 46t-11 57.5
q0 30 12 57.5t32.5 47.5t48.5 32t60 12t59 -11.5t46.5 -31t30.5 -46.5t11 -57zM1053 1624q0 -31 -12 -58t-32.5 -47.5t-48.5 -32t-60 -11.5t-59 11.5t-46.5 31t-30.5 46t-11 57.5q0 30 12 57.5t32.5 47.5t48.5 32t60 12t59 -11.5t46.5 -31t30.5 -46.5t11 -57z" />
    <glyph glyph-name="Aring" unicode="&#xc5;" horiz-adv-x="1348" 
d="M1388 33q8 -2 11 -7t2 -11t-6 -10.5t-14 -4.5h-628q-7 0 -11.5 4t-6 9.5t2 10.5t13.5 8l35.5 11t49 26.5t36.5 49.5t-3 79q-5 13 -13.5 39l-18.5 57.5l-21.5 65l-20.5 62t-16 48.5t-8 24q-3 9 -11 9h-431q-9 0 -12 -8q-4 -12 -12.5 -40l-19.5 -63l-22.5 -73.5
l-21.5 -71.5l-17.5 -57.5t-8.5 -31.5q-8 -37 3.5 -60t31.5 -36.5t43 -19.5l38 -10q9 -2 12 -7.5t2 -11t-6 -9.5t-12 -4h-370q-8 0 -12.5 4t-5 9t3 10.5t11.5 7.5q26 7 51 17t46.5 25.5t39 37.5t29.5 52q6 15 26 71.5l49 139l64 182.5l70.5 202.5l69.5 200l60 173.5l42.5 123
l17.5 50q4 11 10 17t19 8q22 4 51 11l59.5 15t60.5 17.5t55 20.5q17 8 24.5 4t12.5 -16l16.5 -50l41 -122.5l57.5 -172.5l66.5 -200l68.5 -205l62.5 -187l48.5 -146.5t28 -83.5q15 -43 35.5 -74.5t45 -54t51.5 -35.5t56 -18zM345 581q-5 -13 8 -13h381q12 0 8 12l-9.5 29.5
l-22.5 68l-31 93.5l-35 105.5l-35 105l-30.5 92l-22 65.5t-8.5 26q-2 7 -8.5 6t-8.5 -7q-1 -2 -12 -36.5l-28 -88l-38 -119l-41.5 -129.5l-38 -120zM660 1800q38 0 69.5 -13.5t54.5 -37.5t35.5 -56t12.5 -69t-14 -69.5t-38 -57t-57 -38.5t-70 -14q-38 0 -69 13.5t-54 37.5
t-35.5 56t-12.5 69t13.5 69.5t37.5 57t56.5 38.5t70.5 14zM657 1497q48 0 71.5 36.5t23.5 88.5t-23.5 88.5t-71.5 36.5t-71.5 -36.5t-23.5 -88.5t23.5 -88.5t71.5 -36.5z" />
    <glyph glyph-name="acute" unicode="&#xb4;" horiz-adv-x="500" 
d="M57 990l24.5 36l42.5 62.5l50.5 74.5l49 72l38 55.5t17.5 24.5q11 15 25 28.5t30.5 21.5t35 9.5t38.5 -7.5q21 -9 30.5 -26t10 -36.5t-6.5 -40.5t-17 -37q-22 -35 -65 -72.5t-93.5 -72t-102.5 -63t-92 -46.5q-11 -5 -16 1t1 16z" />
    <glyph glyph-name="Egrave" unicode="&#xc8;" horiz-adv-x="1135" 
d="M1092 288q6 16 19 14.5t13 -17.5v-266q0 -19 -21 -19h-1062q-10 0 -15 4.5t-5.5 10t4 10.5t13.5 7q12 2 38 8.5t52.5 23.5t46.5 46t20 76v978q0 46 -20 75.5t-46.5 46t-52.5 23.5t-38 9q-9 1 -13.5 6.5t-4 11t5.5 10t15 4.5h975q21 0 21 -19v-208q0 -15 -12 -16.5
t-20 12.5q-6 13 -24 41.5t-50 58t-80 52t-115 22.5q-47 0 -86 -8t-66.5 -25.5t-43 -45t-15.5 -66.5v-422v15q0 -6 4.5 -10.5t10.5 -4.5h128q45 0 73.5 18t45 42t23.5 47.5t9 35.5q1 8 6.5 11.5t11 3t10 -5t4.5 -12.5v-340q0 -8 -4.5 -12.5t-10 -5t-11 3t-6.5 11.5
q-2 12 -9 35.5t-23.5 47.5t-45 42t-73.5 18h-128q-6 0 -10.5 -4.5t-4.5 -10.5v15v-461q0 -71 62 -108t176 -37q54 0 98.5 14.5t80 36.5t62 49.5t45 52.5t29 45.5t14.5 29.5zM686 1416q6 -10 1 -16t-16 -1q-41 18 -92.5 46.5t-102 63t-93.5 72t-65 72.5q-11 16 -17.5 37
t-6 40.5t10 36.5t30.5 26q20 9 38.5 7.5t35 -9.5t30.5 -21.5t25 -28.5q2 -2 17.5 -24.5l38 -55.5l49 -72l50.5 -74.5l42.5 -62.5z" />
    <glyph glyph-name="Eacute" unicode="&#xc9;" horiz-adv-x="1135" 
d="M1092 288q-4 -9 -14.5 -29.5t-29 -45.5t-45 -52.5t-62 -49.5t-80 -36.5t-98.5 -14.5q-114 0 -176 37t-62 108v461v-15q0 6 4.5 10.5t10.5 4.5h128q45 0 73.5 -18t45 -42t23.5 -47.5t9 -35.5q1 -8 6.5 -11.5t11 -3t10 5t4.5 12.5v340q0 8 -4.5 12.5t-10 5t-11 -3
t-6.5 -11.5q-2 -12 -9 -35.5t-23.5 -47.5t-45 -42t-73.5 -18h-128q-6 0 -10.5 4.5t-4.5 10.5v-15v422q0 39 15.5 66.5t43 45t66.5 25.5t86 8q67 0 115 -22.5t80 -52t50 -58t24 -41.5q8 -14 20 -12.5t12 16.5v208q0 19 -21 19h-975q-10 0 -15 -4.5t-5.5 -10t4 -11t13.5 -6.5
q12 -2 38 -9t52.5 -23.5t46.5 -46t20 -75.5v-978q0 -47 -20 -76t-46.5 -46t-52.5 -23.5t-38 -8.5q-9 -2 -13.5 -7t-4 -10.5t5.5 -10t15 -4.5h1062q21 0 21 19v266q0 16 -13 17.5t-19 -14.5zM506 1416l24.5 36l42.5 62.5l50.5 74.5l49 72l38 55.5t17.5 24.5q11 15 25 28.5
t30.5 21.5t35 9.5t38.5 -7.5q21 -9 30.5 -26t10 -36.5t-6.5 -40.5t-17 -37q-22 -35 -65 -72.5t-93.5 -72t-102.5 -63t-92 -46.5q-11 -5 -16 1t1 16z" />
    <glyph glyph-name="Ecircumflex" unicode="&#xca;" horiz-adv-x="1135" 
d="M1092 288q6 16 19 14.5t13 -17.5v-266q0 -19 -21 -19h-1062q-10 0 -15 4.5t-5.5 10t4 10.5t13.5 7q12 2 38 8.5t52.5 23.5t46.5 46t20 76v978q0 46 -20 75.5t-46.5 46t-52.5 23.5t-38 9q-9 1 -13.5 6.5t-4 11t5.5 10t15 4.5h975q21 0 21 -19v-208q0 -15 -12 -16.5
t-20 12.5q-6 13 -24 41.5t-50 58t-80 52t-115 22.5q-47 0 -86 -8t-66.5 -25.5t-43 -45t-15.5 -66.5v-422v15q0 -6 4.5 -10.5t10.5 -4.5h128q45 0 73.5 18t45 42t23.5 47.5t9 35.5q1 8 6.5 11.5t11 3t10 -5t4.5 -12.5v-340q0 -8 -4.5 -12.5t-10 -5t-11 3t-6.5 11.5
q-2 12 -9 35.5t-23.5 47.5t-45 42t-73.5 18h-128q-6 0 -10.5 -4.5t-4.5 -10.5v15v-461q0 -71 62 -108t176 -37q54 0 98.5 14.5t80 36.5t62 49.5t45 52.5t29 45.5t14.5 29.5zM902 1415q6 -10 1 -16t-16 -1q-31 13 -68.5 33.5t-77 44.5t-77 51t-68.5 55q-13 10 -24 0
q-31 -28 -68.5 -55t-77 -51t-77 -44.5t-68.5 -33.5q-11 -5 -16 1t1 16l24.5 36l42.5 62.5l50.5 74.5l49 72l38 55.5t17.5 24.5q18 24 42.5 42t53.5 18t53.5 -18t42.5 -42q2 -2 17.5 -24.5l38 -55.5l49 -72l50.5 -74.5l42.5 -62.5z" />
    <glyph glyph-name="Edieresis" unicode="&#xcb;" horiz-adv-x="1135" 
d="M1092 288q-4 -9 -14.5 -29.5t-29 -45.5t-45 -52.5t-62 -49.5t-80 -36.5t-98.5 -14.5q-114 0 -176 37t-62 108v461v-15q0 6 4.5 10.5t10.5 4.5h128q45 0 73.5 -18t45 -42t23.5 -47.5t9 -35.5q1 -8 6.5 -11.5t11 -3t10 5t4.5 12.5v340q0 8 -4.5 12.5t-10 5t-11 -3
t-6.5 -11.5q-2 -12 -9 -35.5t-23.5 -47.5t-45 -42t-73.5 -18h-128q-6 0 -10.5 4.5t-4.5 10.5v-15v422q0 39 15.5 66.5t43 45t66.5 25.5t86 8q67 0 115 -22.5t80 -52t50 -58t24 -41.5q8 -14 20 -12.5t12 16.5v208q0 19 -21 19h-975q-10 0 -15 -4.5t-5.5 -10t4 -11t13.5 -6.5
q12 -2 38 -9t52.5 -23.5t46.5 -46t20 -75.5v-978q0 -47 -20 -76t-46.5 -46t-52.5 -23.5t-38 -8.5q-9 -2 -13.5 -7t-4 -10.5t5.5 -10t15 -4.5h1062q21 0 21 19v266q0 16 -13 17.5t-19 -14.5zM517 1624q0 -31 -12 -58t-32.5 -47.5t-48.5 -32t-60 -11.5t-59 11.5t-46.5 31
t-30.5 46t-11 57.5q0 30 12 57.5t32.5 47.5t48.5 32t60 12t59 -11.5t46.5 -31t30.5 -46.5t11 -57zM977 1624q0 -31 -12 -58t-32.5 -47.5t-48.5 -32t-60 -11.5t-59 11.5t-46.5 31t-30.5 46t-11 57.5q0 30 12 57.5t32.5 47.5t48.5 32t60 12t59 -11.5t46.5 -31t30.5 -46.5
t11 -57z" />
    <glyph glyph-name="Igrave" unicode="&#xcc;" horiz-adv-x="719" 
d="M682 32q9 -2 13.5 -7t4 -10.5t-5.5 -10t-15 -4.5h-638q-10 0 -15 4.5t-5.5 10t4 10.5t13.5 7q12 2 38 8.5t52.5 23.5t46.5 46t20 76v978q0 46 -20 75.5t-46.5 46t-52.5 23.5t-38 9q-9 1 -13.5 6.5t-4 11t5.5 10t15 4.5h638q10 0 15 -4.5t5.5 -10t-4 -11t-13.5 -6.5
q-12 -2 -38 -9t-52.5 -23.5t-46.5 -46t-20 -75.5v-978q0 -47 20 -76t46.5 -46t52.5 -23.5t38 -8.5zM456 1416q6 -10 1 -16t-16 -1q-41 18 -92.5 46.5t-102 63t-93.5 72t-65 72.5q-11 16 -17.5 37t-6 40.5t10 36.5t30.5 26q20 9 38.5 7.5t35 -9.5t30.5 -21.5t25 -28.5
q2 -2 17.5 -24.5l38 -55.5l49 -72l50.5 -74.5l42.5 -62.5z" />
    <glyph glyph-name="Iacute" unicode="&#xcd;" horiz-adv-x="719" 
d="M682 32q-12 2 -38 8.5t-52.5 23.5t-46.5 46t-20 76v978q0 46 20 75.5t46.5 46t52.5 23.5t38 9q9 1 13.5 6.5t4 11t-5.5 10t-15 4.5h-638q-10 0 -15 -4.5t-5.5 -10t4 -11t13.5 -6.5q12 -2 38 -9t52.5 -23.5t46.5 -46t20 -75.5v-978q0 -47 -20 -76t-46.5 -46t-52.5 -23.5
t-38 -8.5q-9 -2 -13.5 -7t-4 -10.5t5.5 -10t15 -4.5h638q10 0 15 4.5t5.5 10t-4 10.5t-13.5 7zM303 1416l24.5 36l42.5 62.5l50.5 74.5l49 72l38 55.5t17.5 24.5q11 15 25 28.5t30.5 21.5t35 9.5t38.5 -7.5q21 -9 30.5 -26t10 -36.5t-6.5 -40.5t-17 -37q-22 -35 -65 -72.5
t-93.5 -72t-102.5 -63t-92 -46.5q-11 -5 -16 1t1 16z" />
    <glyph glyph-name="Icircumflex" unicode="&#xce;" horiz-adv-x="719" 
d="M682 32q9 -2 13.5 -7t4 -10.5t-5.5 -10t-15 -4.5h-638q-10 0 -15 4.5t-5.5 10t4 10.5t13.5 7q12 2 38 8.5t52.5 23.5t46.5 46t20 76v978q0 46 -20 75.5t-46.5 46t-52.5 23.5t-38 9q-9 1 -13.5 6.5t-4 11t5.5 10t15 4.5h638q10 0 15 -4.5t5.5 -10t-4 -11t-13.5 -6.5
q-12 -2 -38 -9t-52.5 -23.5t-46.5 -46t-20 -75.5v-978q0 -47 20 -76t46.5 -46t52.5 -23.5t38 -8.5zM677 1415q6 -10 1 -16t-16 -1q-31 13 -68.5 33.5t-77 44.5t-77 51t-68.5 55q-13 10 -24 0q-31 -28 -68.5 -55t-77 -51t-77 -44.5t-68.5 -33.5q-11 -5 -16 1t1 16l24.5 36
l42.5 62.5l50.5 74.5l49 72l38 55.5t17.5 24.5q18 24 42.5 42t53.5 18t53.5 -18t42.5 -42q2 -2 17.5 -24.5l38 -55.5l49 -72l50.5 -74.5l42.5 -62.5z" />
    <glyph glyph-name="Idieresis" unicode="&#xcf;" horiz-adv-x="719" 
d="M682 32q-12 2 -38 8.5t-52.5 23.5t-46.5 46t-20 76v978q0 46 20 75.5t46.5 46t52.5 23.5t38 9q9 1 13.5 6.5t4 11t-5.5 10t-15 4.5h-638q-10 0 -15 -4.5t-5.5 -10t4 -11t13.5 -6.5q12 -2 38 -9t52.5 -23.5t46.5 -46t20 -75.5v-978q0 -47 -20 -76t-46.5 -46t-52.5 -23.5
t-38 -8.5q-9 -2 -13.5 -7t-4 -10.5t5.5 -10t15 -4.5h638q10 0 15 4.5t5.5 10t-4 10.5t-13.5 7zM280 1624q0 -31 -12 -58t-32.5 -47.5t-48.5 -32t-60 -11.5t-59 11.5t-46.5 31t-30.5 46t-11 57.5q0 30 12 57.5t32.5 47.5t48.5 32t60 12t59 -11.5t46.5 -31t30.5 -46.5t11 -57z
M740 1624q0 -31 -12 -58t-32.5 -47.5t-48.5 -32t-60 -11.5t-59 11.5t-46.5 31t-30.5 46t-11 57.5q0 30 12 57.5t32.5 47.5t48.5 32t60 12t59 -11.5t46.5 -31t30.5 -46.5t11 -57z" />
    <glyph glyph-name="Ugrave" unicode="&#xd9;" horiz-adv-x="1354" 
d="M1210 547q0 -136 -25 -243t-83.5 -180.5t-155 -112.5t-240.5 -39q-137 0 -235.5 29t-161.5 90t-92.5 155t-29.5 225v693q0 46 -20 75.5t-46.5 46t-52.5 23.5t-38 9q-9 1 -13.5 6.5t-4 11t5.5 10t15 4.5h638q10 0 15 -4.5t5.5 -10t-4 -11t-13.5 -6.5q-12 -2 -38 -9
t-52.5 -23.5t-46.5 -46t-20 -75.5v-758q0 -170 73.5 -260.5t225.5 -90.5q22 0 47 4t49.5 11.5t47 17.5t40.5 23q47 33 72.5 83t37 107t13.5 116t2 110v637q0 46 -20 75.5t-46.5 46t-52.5 23.5t-38 9q-9 1 -13.5 6.5t-4 11t5.5 10t15 4.5h393q10 0 15 -4.5t5.5 -10t-4 -11
t-13.5 -6.5q-12 -2 -38 -9t-52.5 -23.5t-46.5 -46t-20 -75.5v-617zM806 1416q6 -10 1 -16t-16 -1q-41 18 -92.5 46.5t-102 63t-93.5 72t-65 72.5q-11 16 -17.5 37t-6 40.5t10 36.5t30.5 26q20 9 38.5 7.5t35 -9.5t30.5 -21.5t25 -28.5q2 -2 17.5 -24.5l38 -55.5l49 -72
l50.5 -74.5l42.5 -62.5z" />
    <glyph glyph-name="Uacute" unicode="&#xda;" horiz-adv-x="1354" 
d="M1210 1164q0 46 20 75.5t46.5 46t52.5 23.5t38 9q9 1 13.5 6.5t4 11t-5.5 10t-15 4.5h-393q-10 0 -15 -4.5t-5.5 -10t4 -11t13.5 -6.5q12 -2 38 -9t52.5 -23.5t46.5 -46t20 -75.5v-637q0 -51 -2 -110t-13.5 -116t-37 -107t-72.5 -83q-18 -13 -40.5 -23t-47 -17.5
t-49.5 -11.5t-47 -4q-152 0 -225.5 90.5t-73.5 260.5v758q0 46 20 75.5t46.5 46t52.5 23.5t38 9q9 1 13.5 6.5t4 11t-5.5 10t-15 4.5h-638q-10 0 -15 -4.5t-5.5 -10t4 -11t13.5 -6.5q12 -2 38 -9t52.5 -23.5t46.5 -46t20 -75.5v-693q0 -131 29.5 -225t92.5 -155t161.5 -90
t235.5 -29q144 0 240.5 39t155 112.5t83.5 180.5t25 243v617zM726 1416l24.5 36l42.5 62.5l50.5 74.5l49 72l38 55.5t17.5 24.5q11 15 25 28.5t30.5 21.5t35 9.5t38.5 -7.5q21 -9 30.5 -26t10 -36.5t-6.5 -40.5t-17 -37q-22 -35 -65 -72.5t-93.5 -72t-102.5 -63t-92 -46.5
q-11 -5 -16 1t1 16z" />
    <glyph glyph-name="Ucircumflex" unicode="&#xdb;" horiz-adv-x="1354" 
d="M1210 547q0 -136 -25 -243t-83.5 -180.5t-155 -112.5t-240.5 -39q-137 0 -235.5 29t-161.5 90t-92.5 155t-29.5 225v693q0 46 -20 75.5t-46.5 46t-52.5 23.5t-38 9q-9 1 -13.5 6.5t-4 11t5.5 10t15 4.5h638q10 0 15 -4.5t5.5 -10t-4 -11t-13.5 -6.5q-12 -2 -38 -9
t-52.5 -23.5t-46.5 -46t-20 -75.5v-758q0 -170 73.5 -260.5t225.5 -90.5q22 0 47 4t49.5 11.5t47 17.5t40.5 23q47 33 72.5 83t37 107t13.5 116t2 110v637q0 46 -20 75.5t-46.5 46t-52.5 23.5t-38 9q-9 1 -13.5 6.5t-4 11t5.5 10t15 4.5h393q10 0 15 -4.5t5.5 -10t-4 -11
t-13.5 -6.5q-12 -2 -38 -9t-52.5 -23.5t-46.5 -46t-20 -75.5v-617zM1062 1415q6 -10 1 -16t-16 -1q-31 13 -68.5 33.5t-77 44.5t-77 51t-68.5 55q-13 10 -24 0q-31 -28 -68.5 -55t-77 -51t-77 -44.5t-68.5 -33.5q-11 -5 -16 1t1 16l24.5 36l42.5 62.5l50.5 74.5l49 72
l38 55.5t17.5 24.5q18 24 42.5 42t53.5 18t53.5 -18t42.5 -42q2 -2 17.5 -24.5l38 -55.5l49 -72l50.5 -74.5l42.5 -62.5z" />
    <glyph glyph-name="Udieresis" unicode="&#xdc;" horiz-adv-x="1354" 
d="M1210 1164q0 46 20 75.5t46.5 46t52.5 23.5t38 9q9 1 13.5 6.5t4 11t-5.5 10t-15 4.5h-393q-10 0 -15 -4.5t-5.5 -10t4 -11t13.5 -6.5q12 -2 38 -9t52.5 -23.5t46.5 -46t20 -75.5v-637q0 -51 -2 -110t-13.5 -116t-37 -107t-72.5 -83q-18 -13 -40.5 -23t-47 -17.5
t-49.5 -11.5t-47 -4q-152 0 -225.5 90.5t-73.5 260.5v758q0 46 20 75.5t46.5 46t52.5 23.5t38 9q9 1 13.5 6.5t4 11t-5.5 10t-15 4.5h-638q-10 0 -15 -4.5t-5.5 -10t4 -11t13.5 -6.5q12 -2 38 -9t52.5 -23.5t46.5 -46t20 -75.5v-693q0 -131 29.5 -225t92.5 -155t161.5 -90
t235.5 -29q144 0 240.5 39t155 112.5t83.5 180.5t25 243v617zM677 1624q0 -31 -12 -58t-32.5 -47.5t-48.5 -32t-60 -11.5t-59 11.5t-46.5 31t-30.5 46t-11 57.5q0 30 12 57.5t32.5 47.5t48.5 32t60 12t59 -11.5t46.5 -31t30.5 -46.5t11 -57zM1137 1624q0 -31 -12 -58
t-32.5 -47.5t-48.5 -32t-60 -11.5t-59 11.5t-46.5 31t-30.5 46t-11 57.5q0 30 12 57.5t32.5 47.5t48.5 32t60 12t59 -11.5t46.5 -31t30.5 -46.5t11 -57z" />
    <glyph glyph-name="Yacute" unicode="&#xdd;" horiz-adv-x="1260" 
d="M1056 1224q16 31 11.5 48.5t-19 27t-32.5 13t-30 5.5q-9 1 -13.5 6.5t-4 11t5.5 10t15 4.5h345q10 0 15 -4.5t5.5 -10.5t-4 -11t-13.5 -6q-15 -2 -36 -7.5t-45.5 -18t-52 -33.5t-54.5 -55l-41 -53l-63 -84.5l-72.5 -99l-70 -96.5l-55 -78t-27.5 -43q-11 -24 -16 -45.5
t-5 -55.5v-463q0 -47 20 -76t46.5 -46t52.5 -23.5t38 -8.5q9 -2 13.5 -7t4 -10.5t-5.5 -10t-15 -4.5h-628q-10 0 -15 4.5t-5.5 10t4 10.5t13.5 7q12 2 38 8.5t52.5 23.5t46.5 46t20 76v366v27t-2 25.5t-7 26t-14 29.5q-6 10 -22.5 35.5l-40.5 62l-52.5 80.5l-58.5 90
l-59.5 90.5l-54.5 81.5l-43 64.5l-26 39.5q-16 23 -38 43t-46 35t-46.5 24t-40.5 12q-9 1 -13.5 6t-4 11t5.5 10.5t15 4.5h628q10 0 15 -4.5t5.5 -10t-4 -11t-13.5 -6.5q-12 -2 -30 -6t-32.5 -13.5t-20 -27.5t7.5 -47q9 -20 30 -57.5l47.5 -82l56 -91.5l55 -86.5l43.5 -66.5
t23 -32q15 -17 31 -2q4 4 25 33l50 71l63 92l64 95l52.5 79.5t28.5 47.5zM706 1416l24.5 36l42.5 62.5l50.5 74.5l49 72l38 55.5t17.5 24.5q11 15 25 28.5t30.5 21.5t35 9.5t38.5 -7.5q21 -9 30.5 -26t10 -36.5t-6.5 -40.5t-17 -37q-22 -35 -65 -72.5t-93.5 -72t-102.5 -63
t-92 -46.5q-11 -5 -16 1t1 16z" />
    <glyph glyph-name="Oacute" unicode="&#xd3;" 
d="M765 1378q-102 0 -195 -25.5t-173.5 -72t-146.5 -112t-112.5 -144.5t-72 -169.5t-25.5 -187.5q0 -146 51.5 -272.5t143.5 -220.5t219.5 -148t280.5 -54q102 0 195 25.5t173.5 72t146.5 112t112.5 144t72 169t25.5 187.5t-23.5 186.5t-66.5 166.5t-105 140.5t-139.5 108.5
t-168.5 69.5t-192 24.5zM750 31q-82 0 -143 50.5t-101.5 138t-60.5 204.5t-20 251q0 133 20 250.5t60.5 205t101.5 138t143 50.5t143 -50.5t101.5 -138t60.5 -205t20 -250.5q0 -134 -20 -251t-60.5 -204.5t-101.5 -138t-143 -50.5zM586 1416l24.5 36l42.5 62.5l50.5 74.5
l49 72l38 55.5t17.5 24.5q11 15 25 28.5t30.5 21.5t35 9.5t38.5 -7.5q21 -9 30.5 -26t10 -36.5t-6.5 -40.5t-17 -37q-22 -35 -65 -72.5t-93.5 -72t-102.5 -63t-92 -46.5q-11 -5 -16 1t1 16z" />
    <glyph glyph-name="Ocircumflex" unicode="&#xd4;" 
d="M765 1378q101 0 192 -24.5t168.5 -69.5t139.5 -108.5t105 -140.5t66.5 -166.5t23.5 -186.5t-25.5 -187.5t-72 -169t-112.5 -144t-146.5 -112t-173.5 -72t-195 -25.5q-153 0 -280.5 54t-219.5 148t-143.5 220.5t-51.5 272.5q0 97 25.5 187.5t72 169.5t112.5 144.5
t146.5 112t173.5 72t195 25.5zM750 31q82 0 143 50.5t101.5 138t60.5 204.5t20 251q0 133 -20 250.5t-60.5 205t-101.5 138t-143 50.5t-143 -50.5t-101.5 -138t-60.5 -205t-20 -250.5q0 -134 20 -251t60.5 -204.5t101.5 -138t143 -50.5zM1068 1415q6 -10 1 -16t-16 -1
q-31 13 -68.5 33.5t-77 44.5t-77 51t-68.5 55q-13 10 -24 0q-31 -28 -68.5 -55t-77 -51t-77 -44.5t-68.5 -33.5q-11 -5 -16 1t1 16l24.5 36l42.5 62.5l50.5 74.5l49 72l38 55.5t17.5 24.5q18 24 42.5 42t53.5 18t53.5 -18t42.5 -42q2 -2 17.5 -24.5l38 -55.5l49 -72
l50.5 -74.5l42.5 -62.5z" />
    <glyph glyph-name="Otilde" unicode="&#xd5;" 
d="M765 1378q-102 0 -195 -25.5t-173.5 -72t-146.5 -112t-112.5 -144.5t-72 -169.5t-25.5 -187.5q0 -146 51.5 -272.5t143.5 -220.5t219.5 -148t280.5 -54q102 0 195 25.5t173.5 72t146.5 112t112.5 144t72 169t25.5 187.5t-23.5 186.5t-66.5 166.5t-105 140.5t-139.5 108.5
t-168.5 69.5t-192 24.5zM750 31q-82 0 -143 50.5t-101.5 138t-60.5 204.5t-20 251q0 133 20 250.5t60.5 205t101.5 138t143 50.5t143 -50.5t101.5 -138t60.5 -205t20 -250.5q0 -134 -20 -251t-60.5 -204.5t-101.5 -138t-143 -50.5zM1183 1666q-12 -47 -36 -87t-60.5 -69.5
t-84.5 -46t-107 -16.5q-62 0 -119.5 18.5t-112.5 41t-107 41.5t-103 19q-38 0 -61.5 -11t-37.5 -21q-9 -6 -16 -1t-2 15q21 38 45.5 71t57 57t73.5 37.5t94 13.5q71 0 121.5 -15.5t94 -33.5t88 -33.5t103.5 -15.5q55 0 89.5 14t61.5 34q8 6 15 3t4 -15z" />
    <glyph glyph-name="Odieresis" unicode="&#xd6;" 
d="M765 1378q-102 0 -195 -25.5t-173.5 -72t-146.5 -112t-112.5 -144.5t-72 -169.5t-25.5 -187.5q0 -146 51.5 -272.5t143.5 -220.5t219.5 -148t280.5 -54q102 0 195 25.5t173.5 72t146.5 112t112.5 144t72 169t25.5 187.5t-23.5 186.5t-66.5 166.5t-105 140.5t-139.5 108.5
t-168.5 69.5t-192 24.5zM750 31q-82 0 -143 50.5t-101.5 138t-60.5 204.5t-20 251q0 133 20 250.5t60.5 205t101.5 138t143 50.5t143 -50.5t101.5 -138t60.5 -205t20 -250.5q0 -134 -20 -251t-60.5 -204.5t-101.5 -138t-143 -50.5zM670 1654q0 -31 -12 -58t-32.5 -47.5
t-48.5 -32t-60 -11.5t-59 11.5t-46.5 31t-30.5 46t-11 57.5q0 30 12 57.5t32.5 47.5t48.5 32t60 12t59 -11.5t46.5 -31t30.5 -46.5t11 -57zM1130 1654q0 -31 -12 -58t-32.5 -47.5t-48.5 -32t-60 -11.5t-59 11.5t-46.5 31t-30.5 46t-11 57.5q0 30 12 57.5t32.5 47.5t48.5 32
t60 12t59 -11.5t46.5 -31t30.5 -46.5t11 -57z" />
    <glyph glyph-name="agrave" unicode="&#xe0;" horiz-adv-x="969" 
d="M916 92q14 3 22 -5.5t1 -22.5q-6 -11 -19.5 -26t-36 -28t-55 -22t-76.5 -9q-61 0 -102.5 24.5t-57.5 56.5q-4 8 -11.5 7t-12.5 -6q-3 -3 -18.5 -16.5t-44 -29t-68.5 -28t-92 -12.5q-89 0 -149.5 25t-98 64.5t-54 89t-16.5 98.5q0 79 44.5 138t115.5 88q38 15 79.5 21.5
l82.5 13.5t80.5 17.5t74.5 34.5q37 25 51.5 64t14.5 83q0 32 -8.5 61.5t-24 51.5t-36 35t-44.5 13q-43 0 -63 -22t-31.5 -53t-21.5 -64.5t-32 -57.5q-18 -19 -46.5 -28.5t-54.5 -9.5q-27 0 -48 9t-36 24.5t-22.5 36t-7.5 43.5q0 31 15 62t53.5 56t103.5 40.5t165 15.5
q111 0 189.5 -22.5t128 -65.5t72 -106.5t22.5 -144.5q0 -97 -6 -182t-8.5 -150.5t2.5 -108t28 -52.5q10 -5 25 -4.5t32 3.5zM569 539q0 6 -5 8t-9 -3l-14.5 -17t-17.5 -19q-19 -20 -39 -37.5l-40 -35.5l-39.5 -32t-36.5 -35q-26 -30 -38.5 -65.5t-12.5 -75.5q0 -27 8 -54.5
t24.5 -49t42 -35t61.5 -13.5t58.5 15t35 36t17.5 42.5t5 33.5v337zM636 990q6 -10 1 -16t-16 -1q-41 18 -92.5 46.5t-102 63t-93.5 72t-65 72.5q-11 16 -17.5 37t-6 40.5t10 36.5t30.5 26q20 9 38.5 7.5t35 -9.5t30.5 -21.5t25 -28.5q2 -2 17.5 -24.5l38 -55.5l49 -72
l50.5 -74.5l42.5 -62.5z" />
    <glyph glyph-name="aacute" unicode="&#xe1;" horiz-adv-x="969" 
d="M916 92q-17 -3 -32 -3.5t-25 4.5q-23 10 -28 52.5t-2.5 108t8.5 150.5t6 182q0 81 -22.5 144.5t-72 106.5t-128 65.5t-189.5 22.5q-100 0 -165 -15.5t-103.5 -40.5t-53.5 -56t-15 -62q0 -23 7.5 -43.5t22.5 -36t36 -24.5t48 -9q26 0 54.5 9.5t46.5 28.5q22 24 32 57.5
t21.5 64.5t31.5 53t63 22q24 0 44.5 -13t36 -35t24 -51.5t8.5 -61.5q0 -44 -14.5 -83t-51.5 -64q-35 -24 -74.5 -34.5t-80.5 -17.5l-82.5 -13.5t-79.5 -21.5q-71 -29 -115.5 -88t-44.5 -138q0 -49 16.5 -98.5t54 -89t98 -64.5t149.5 -25q52 0 92 12.5t68.5 28t44 29
t18.5 16.5q5 5 12.5 6t11.5 -7q16 -32 57.5 -56.5t102.5 -24.5q44 0 76.5 9t55 22t36 28t19.5 26q7 14 -1 22.5t-22 5.5zM569 202q0 -12 -5 -33.5t-17.5 -42.5t-35 -36t-58.5 -15t-61.5 13.5t-42 35t-24.5 49t-8 54.5q0 40 12.5 75.5t38.5 65.5q17 19 36.5 35l39.5 32
l40 35.5t39 37.5q11 11 17.5 19l14.5 17q4 5 9 3t5 -8v-337zM399 990l24.5 36l42.5 62.5l50.5 74.5l49 72l38 55.5t17.5 24.5q11 15 25 28.5t30.5 21.5t35 9.5t38.5 -7.5q21 -9 30.5 -26t10 -36.5t-6.5 -40.5t-17 -37q-22 -35 -65 -72.5t-93.5 -72t-102.5 -63t-92 -46.5
q-11 -5 -16 1t1 16z" />
    <glyph glyph-name="acircumflex" unicode="&#xe2;" horiz-adv-x="969" 
d="M916 92q14 3 22 -5.5t1 -22.5q-6 -11 -19.5 -26t-36 -28t-55 -22t-76.5 -9q-61 0 -102.5 24.5t-57.5 56.5q-4 8 -11.5 7t-12.5 -6q-3 -3 -18.5 -16.5t-44 -29t-68.5 -28t-92 -12.5q-89 0 -149.5 25t-98 64.5t-54 89t-16.5 98.5q0 79 44.5 138t115.5 88q38 15 79.5 21.5
l82.5 13.5t80.5 17.5t74.5 34.5q37 25 51.5 64t14.5 83q0 32 -8.5 61.5t-24 51.5t-36 35t-44.5 13q-43 0 -63 -22t-31.5 -53t-21.5 -64.5t-32 -57.5q-18 -19 -46.5 -28.5t-54.5 -9.5q-27 0 -48 9t-36 24.5t-22.5 36t-7.5 43.5q0 31 15 62t53.5 56t103.5 40.5t165 15.5
q111 0 189.5 -22.5t128 -65.5t72 -106.5t22.5 -144.5q0 -97 -6 -182t-8.5 -150.5t2.5 -108t28 -52.5q10 -5 25 -4.5t32 3.5zM569 539q0 6 -5 8t-9 -3l-14.5 -17t-17.5 -19q-19 -20 -39 -37.5l-40 -35.5l-39.5 -32t-36.5 -35q-26 -30 -38.5 -65.5t-12.5 -75.5q0 -27 8 -54.5
t24.5 -49t42 -35t61.5 -13.5t58.5 15t35 36t17.5 42.5t5 33.5v337zM817 990q6 -10 1 -16t-16 -1q-31 13 -68.5 33.5t-77 44.5t-77 51t-68.5 55q-13 10 -24 0q-31 -28 -68.5 -55t-77 -51t-77 -44.5t-68.5 -33.5q-11 -5 -16 1t1 16l24.5 36l42.5 62.5l50.5 74.5l49 72l38 55.5
t17.5 24.5q18 24 42.5 42t53.5 18t53.5 -18t42.5 -42q2 -2 17.5 -24.5l38 -55.5l49 -72l50.5 -74.5l42.5 -62.5z" />
    <glyph glyph-name="atilde" unicode="&#xe3;" horiz-adv-x="969" 
d="M916 92q-17 -3 -32 -3.5t-25 4.5q-23 10 -28 52.5t-2.5 108t8.5 150.5t6 182q0 81 -22.5 144.5t-72 106.5t-128 65.5t-189.5 22.5q-100 0 -165 -15.5t-103.5 -40.5t-53.5 -56t-15 -62q0 -23 7.5 -43.5t22.5 -36t36 -24.5t48 -9q26 0 54.5 9.5t46.5 28.5q22 24 32 57.5
t21.5 64.5t31.5 53t63 22q24 0 44.5 -13t36 -35t24 -51.5t8.5 -61.5q0 -44 -14.5 -83t-51.5 -64q-35 -24 -74.5 -34.5t-80.5 -17.5l-82.5 -13.5t-79.5 -21.5q-71 -29 -115.5 -88t-44.5 -138q0 -49 16.5 -98.5t54 -89t98 -64.5t149.5 -25q52 0 92 12.5t68.5 28t44 29
t18.5 16.5q5 5 12.5 6t11.5 -7q16 -32 57.5 -56.5t102.5 -24.5q44 0 76.5 9t55 22t36 28t19.5 26q7 14 -1 22.5t-22 5.5zM569 202q0 -12 -5 -33.5t-17.5 -42.5t-35 -36t-58.5 -15t-61.5 13.5t-42 35t-24.5 49t-8 54.5q0 40 12.5 75.5t38.5 65.5q17 19 36.5 35l39.5 32
l40 35.5t39 37.5q11 11 17.5 19l14.5 17q4 5 9 3t5 -8v-337zM924 1250q-12 -47 -36 -87t-60.5 -69.5t-84.5 -46t-107 -16.5q-62 0 -119.5 18.5t-112.5 41t-107 41.5t-103 19q-38 0 -61.5 -11t-37.5 -21q-9 -6 -16 -1t-2 15q21 38 45.5 71t57 57t73.5 37.5t94 13.5
q71 0 121.5 -15.5t94 -33.5t88 -33.5t103.5 -15.5q55 0 89.5 14t61.5 34q8 6 15 3t4 -15z" />
    <glyph glyph-name="adieresis" unicode="&#xe4;" horiz-adv-x="969" 
d="M916 92q-17 -3 -32 -3.5t-25 4.5q-23 10 -28 52.5t-2.5 108t8.5 150.5t6 182q0 81 -22.5 144.5t-72 106.5t-128 65.5t-189.5 22.5q-100 0 -165 -15.5t-103.5 -40.5t-53.5 -56t-15 -62q0 -23 7.5 -43.5t22.5 -36t36 -24.5t48 -9q26 0 54.5 9.5t46.5 28.5q22 24 32 57.5
t21.5 64.5t31.5 53t63 22q24 0 44.5 -13t36 -35t24 -51.5t8.5 -61.5q0 -44 -14.5 -83t-51.5 -64q-35 -24 -74.5 -34.5t-80.5 -17.5l-82.5 -13.5t-79.5 -21.5q-71 -29 -115.5 -88t-44.5 -138q0 -49 16.5 -98.5t54 -89t98 -64.5t149.5 -25q52 0 92 12.5t68.5 28t44 29
t18.5 16.5q5 5 12.5 6t11.5 -7q16 -32 57.5 -56.5t102.5 -24.5q44 0 76.5 9t55 22t36 28t19.5 26q7 14 -1 22.5t-22 5.5zM569 202q0 -12 -5 -33.5t-17.5 -42.5t-35 -36t-58.5 -15t-61.5 13.5t-42 35t-24.5 49t-8 54.5q0 40 12.5 75.5t38.5 65.5q17 19 36.5 35l39.5 32
l40 35.5t39 37.5q11 11 17.5 19l14.5 17q4 5 9 3t5 -8v-337zM409 1204q0 -31 -12 -58t-32.5 -47.5t-48.5 -32t-60 -11.5t-59 11.5t-46.5 31t-30.5 46t-11 57.5q0 30 12 57.5t32.5 47.5t48.5 32t60 12t59 -11.5t46.5 -31t30.5 -46.5t11 -57zM869 1204q0 -31 -12 -58
t-32.5 -47.5t-48.5 -32t-60 -11.5t-59 11.5t-46.5 31t-30.5 46t-11 57.5q0 30 12 57.5t32.5 47.5t48.5 32t60 12t59 -11.5t46.5 -31t30.5 -46.5t11 -57z" />
    <glyph glyph-name="aring" unicode="&#xe5;" horiz-adv-x="969" 
d="M916 92q14 3 22 -5.5t1 -22.5q-6 -11 -19.5 -26t-36 -28t-55 -22t-76.5 -9q-61 0 -102.5 24.5t-57.5 56.5q-4 8 -11.5 7t-12.5 -6q-3 -3 -18.5 -16.5t-44 -29t-68.5 -28t-92 -12.5q-89 0 -149.5 25t-98 64.5t-54 89t-16.5 98.5q0 79 44.5 138t115.5 88q38 15 79.5 21.5
l82.5 13.5t80.5 17.5t74.5 34.5q37 25 51.5 64t14.5 83q0 32 -8.5 61.5t-24 51.5t-36 35t-44.5 13q-43 0 -63 -22t-31.5 -53t-21.5 -64.5t-32 -57.5q-18 -19 -46.5 -28.5t-54.5 -9.5q-27 0 -48 9t-36 24.5t-22.5 36t-7.5 43.5q0 31 15 62t53.5 56t103.5 40.5t165 15.5
q111 0 189.5 -22.5t128 -65.5t72 -106.5t22.5 -144.5q0 -97 -6 -182t-8.5 -150.5t2.5 -108t28 -52.5q10 -5 25 -4.5t32 3.5zM569 539q0 6 -5 8t-9 -3l-14.5 -17t-17.5 -19q-19 -20 -39 -37.5l-40 -35.5l-39.5 -32t-36.5 -35q-26 -30 -38.5 -65.5t-12.5 -75.5q0 -27 8 -54.5
t24.5 -49t42 -35t61.5 -13.5t58.5 15t35 36t17.5 42.5t5 33.5v337zM485 1375q38 0 69.5 -13.5t54.5 -37.5t35.5 -56t12.5 -69t-14 -69.5t-38 -57t-57 -38.5t-70 -14q-38 0 -69 13.5t-54 37.5t-35.5 56t-12.5 69t13.5 69.5t37.5 57t56.5 38.5t70.5 14zM482 1072
q48 0 71.5 36.5t23.5 88.5t-23.5 88.5t-71.5 36.5t-71.5 -36.5t-23.5 -88.5t23.5 -88.5t71.5 -36.5z" />
    <glyph glyph-name="grave" unicode="`" horiz-adv-x="500" 
d="M446 990q6 -10 1 -16t-16 -1q-41 18 -92.5 46.5t-102 63t-93.5 72t-65 72.5q-11 16 -17.5 37t-6 40.5t10 36.5t30.5 26q20 9 38.5 7.5t35 -9.5t30.5 -21.5t25 -28.5q2 -2 17.5 -24.5l38 -55.5l49 -72l50.5 -74.5l42.5 -62.5z" />
    <glyph glyph-name="dieresis" unicode="&#xa8;" horiz-adv-x="836" 
d="M339 1204q0 -31 -12 -58t-32.5 -47.5t-48.5 -32t-60 -11.5t-59 11.5t-46.5 31t-30.5 46t-11 57.5q0 30 12 57.5t32.5 47.5t48.5 32t60 12t59 -11.5t46.5 -31t30.5 -46.5t11 -57zM799 1204q0 -31 -12 -58t-32.5 -47.5t-48.5 -32t-60 -11.5t-59 11.5t-46.5 31t-30.5 46
t-11 57.5q0 30 12 57.5t32.5 47.5t48.5 32t60 12t59 -11.5t46.5 -31t30.5 -46.5t11 -57z" />
    <glyph glyph-name="circumflex" unicode="&#x2c6;" horiz-adv-x="698" 
d="M667 990q6 -10 1 -16t-16 -1q-31 13 -68.5 33.5t-77 44.5t-77 51t-68.5 55q-13 10 -24 0q-31 -28 -68.5 -55t-77 -51t-77 -44.5t-68.5 -33.5q-11 -5 -16 1t1 16l24.5 36l42.5 62.5l50.5 74.5l49 72l38 55.5t17.5 24.5q18 24 42.5 42t53.5 18t53.5 -18t42.5 -42
q2 -2 17.5 -24.5l38 -55.5l49 -72l50.5 -74.5l42.5 -62.5z" />
    <glyph glyph-name="cedilla" unicode="&#xb8;" horiz-adv-x="500" 
d="M266 27q-26 -38 -26 -70q0 -31 12.5 -54t31.5 -41.5t41 -34.5t41 -34q39 -37 55.5 -74t16.5 -88q0 -41 -13 -75.5t-37.5 -59.5t-60.5 -39.5t-81 -14.5q-42 0 -76.5 11t-58.5 29t-37.5 41.5t-13.5 48.5q0 40 24 58t53 18q22 0 37.5 -8.5t25.5 -21t15.5 -27t8.5 -25.5
t7 -23.5t10.5 -23t16.5 -17t25 -6.5q22 0 31.5 15.5t9.5 33.5q0 23 -18.5 54t-56.5 58q-19 13 -38.5 28.5t-35.5 34.5t-26 42.5t-10 54.5q0 34 12 70t29 66.5t34 53.5t28 31z" />
    <glyph glyph-name="underscore" unicode="_" horiz-adv-x="1505" 
d="M1409 70q24 0 29.5 -4.5t5.5 -14.5q0 -18 -12.5 -34.5t-31.5 -16.5h-1305q-24 0 -29.5 5t-5.5 15q0 7 3 16t8.5 16.5t12.5 12.5t16 5h1309v0z" />
    <glyph glyph-name="Ydieresis" unicode="&#x178;" horiz-adv-x="1260" 
d="M1056 1224q16 31 11.5 48.5t-19 27t-32.5 13t-30 5.5q-9 1 -13.5 6.5t-4 11t5.5 10t15 4.5h345q10 0 15 -4.5t5.5 -10.5t-4 -11t-13.5 -6q-15 -2 -36 -7.5t-45.5 -18t-52 -33.5t-54.5 -55l-41 -53l-63 -84.5l-72.5 -99l-70 -96.5l-55 -78t-27.5 -43q-11 -24 -16 -45.5
t-5 -55.5v-463q0 -47 20 -76t46.5 -46t52.5 -23.5t38 -8.5q9 -2 13.5 -7t4 -10.5t-5.5 -10t-15 -4.5h-628q-10 0 -15 4.5t-5.5 10t4 10.5t13.5 7q12 2 38 8.5t52.5 23.5t46.5 46t20 76v366v27t-2 25.5t-7 26t-14 29.5q-6 10 -22.5 35.5l-40.5 62l-52.5 80.5l-58.5 90
l-59.5 90.5l-54.5 81.5l-43 64.5l-26 39.5q-16 23 -38 43t-46 35t-46.5 24t-40.5 12q-9 1 -13.5 6t-4 11t5.5 10.5t15 4.5h628q10 0 15 -4.5t5.5 -10t-4 -11t-13.5 -6.5q-12 -2 -30 -6t-32.5 -13.5t-20 -27.5t7.5 -47q9 -20 30 -57.5l47.5 -82l56 -91.5l55 -86.5l43.5 -66.5
t23 -32q15 -17 31 -2q4 4 25 33l50 71l63 92l64 95l52.5 79.5t28.5 47.5zM583 1624q0 -31 -12 -58t-32.5 -47.5t-48.5 -32t-60 -11.5t-59 11.5t-46.5 31t-30.5 46t-11 57.5q0 30 12 57.5t32.5 47.5t48.5 32t60 12t59 -11.5t46.5 -31t30.5 -46.5t11 -57zM1043 1624
q0 -31 -12 -58t-32.5 -47.5t-48.5 -32t-60 -11.5t-59 11.5t-46.5 31t-30.5 46t-11 57.5q0 30 12 57.5t32.5 47.5t48.5 32t60 12t59 -11.5t46.5 -31t30.5 -46.5t11 -57z" />
    <glyph glyph-name="glyph173" horiz-adv-x="500" 
 />
    <glyph glyph-name="egrave" unicode="&#xe8;" horiz-adv-x="907" 
d="M330 530q-16 0 -16 -17q0 -102 18 -175t52.5 -119.5t86 -68.5t119.5 -22q52 0 92.5 11t70.5 25.5t49 27.5t28 17q14 6 22 -2.5t0 -25.5q-3 -6 -13.5 -23.5t-30.5 -40.5t-50 -48t-71.5 -46t-95 -34.5t-119.5 -13.5q-100 0 -181 31.5t-138.5 91.5t-89 146t-31.5 194
q0 118 39 209t102 152.5t143 93.5t163 32q78 0 137.5 -21.5t103 -56t72 -77t46 -84.5t24.5 -79t7 -59q0 -10 -6.5 -14t-17.5 -4h-515zM319 596q-2 -13 12 -13q3 0 20 0.5t41.5 1.5t52.5 2l53.5 2t44 1.5t23.5 1.5q16 1 33.5 14t17.5 45q0 29 -8 67t-25.5 72t-44.5 57.5
t-66 23.5q-31 0 -54 -16.5t-39.5 -43t-27.5 -58.5t-18 -62.5t-10.5 -56t-4.5 -38.5zM626 990q6 -10 1 -16t-16 -1q-41 18 -92.5 46.5t-102 63t-93.5 72t-65 72.5q-11 16 -17.5 37t-6 40.5t10 36.5t30.5 26q20 9 38.5 7.5t35 -9.5t30.5 -21.5t25 -28.5q2 -2 17.5 -24.5
l38 -55.5l49 -72l50.5 -74.5l42.5 -62.5z" />
    <glyph glyph-name="eacute" unicode="&#xe9;" horiz-adv-x="907" 
d="M330 530h515q11 0 17.5 4t6.5 14q0 22 -7 59t-24.5 79t-46 84.5t-72 77t-103 56t-137.5 21.5q-83 0 -163 -32t-143 -93.5t-102 -152.5t-39 -209q0 -108 31.5 -194t89 -146t138.5 -91.5t181 -31.5q66 0 119.5 13.5t95 34.5t71.5 46t50 48t30.5 40.5t13.5 23.5q8 17 0 25.5
t-22 2.5q-9 -4 -28 -17t-49 -27.5t-70.5 -25.5t-92.5 -11q-68 0 -119.5 22t-86 68.5t-52.5 119.5t-18 175q0 17 16 17zM319 596q1 13 4.5 38.5t10.5 56t18 62.5t27.5 58.5t39.5 43t54 16.5q39 0 66 -23.5t44.5 -57.5t25.5 -72t8 -67q0 -32 -17.5 -45t-33.5 -14
q-5 -1 -23.5 -1.5t-44 -1.5l-53.5 -2t-52.5 -2t-41.5 -1.5t-20 -0.5q-14 0 -12 13zM379 990l24.5 36l42.5 62.5l50.5 74.5l49 72l38 55.5t17.5 24.5q11 15 25 28.5t30.5 21.5t35 9.5t38.5 -7.5q21 -9 30.5 -26t10 -36.5t-6.5 -40.5t-17 -37q-22 -35 -65 -72.5t-93.5 -72
t-102.5 -63t-92 -46.5q-11 -5 -16 1t1 16z" />
    <glyph glyph-name="ecircumflex" unicode="&#xea;" horiz-adv-x="907" 
d="M330 530q-16 0 -16 -17q0 -102 18 -175t52.5 -119.5t86 -68.5t119.5 -22q52 0 92.5 11t70.5 25.5t49 27.5t28 17q14 6 22 -2.5t0 -25.5q-3 -6 -13.5 -23.5t-30.5 -40.5t-50 -48t-71.5 -46t-95 -34.5t-119.5 -13.5q-100 0 -181 31.5t-138.5 91.5t-89 146t-31.5 194
q0 118 39 209t102 152.5t143 93.5t163 32q78 0 137.5 -21.5t103 -56t72 -77t46 -84.5t24.5 -79t7 -59q0 -10 -6.5 -14t-17.5 -4h-515zM319 596q-2 -13 12 -13q3 0 20 0.5t41.5 1.5t52.5 2l53.5 2t44 1.5t23.5 1.5q16 1 33.5 14t17.5 45q0 29 -8 67t-25.5 72t-44.5 57.5
t-66 23.5q-31 0 -54 -16.5t-39.5 -43t-27.5 -58.5t-18 -62.5t-10.5 -56t-4.5 -38.5zM789 990q6 -10 1 -16t-16 -1q-31 13 -68.5 33.5t-77 44.5t-77 51t-68.5 55q-13 10 -24 0q-31 -28 -68.5 -55t-77 -51t-77 -44.5t-68.5 -33.5q-11 -5 -16 1t1 16l24.5 36l42.5 62.5
l50.5 74.5l49 72l38 55.5t17.5 24.5q18 24 42.5 42t53.5 18t53.5 -18t42.5 -42q2 -2 17.5 -24.5l38 -55.5l49 -72l50.5 -74.5l42.5 -62.5z" />
    <glyph glyph-name="edieresis" unicode="&#xeb;" horiz-adv-x="907" 
d="M330 530q-16 0 -16 -17q0 -102 18 -175t52.5 -119.5t86 -68.5t119.5 -22q52 0 92.5 11t70.5 25.5t49 27.5t28 17q14 6 22 -2.5t0 -25.5q-3 -6 -13.5 -23.5t-30.5 -40.5t-50 -48t-71.5 -46t-95 -34.5t-119.5 -13.5q-100 0 -181 31.5t-138.5 91.5t-89 146t-31.5 194
q0 118 39 209t102 152.5t143 93.5t163 32q78 0 137.5 -21.5t103 -56t72 -77t46 -84.5t24.5 -79t7 -59q0 -10 -6.5 -14t-17.5 -4h-515zM319 596q-2 -13 12 -13q3 0 20 0.5t41.5 1.5t52.5 2l53.5 2t44 1.5t23.5 1.5q16 1 33.5 14t17.5 45q0 29 -8 67t-25.5 72t-44.5 57.5
t-66 23.5q-31 0 -54 -16.5t-39.5 -43t-27.5 -58.5t-18 -62.5t-10.5 -56t-4.5 -38.5z" />
    <glyph glyph-name="igrave" unicode="&#xec;" horiz-adv-x="573" 
d="M428 157q0 -40 16 -64.5t36.5 -38t40 -19t27.5 -6.5q8 -2 11.5 -6.5t2.5 -9.5t-5.5 -9t-12.5 -4h-502q-8 0 -12.5 4t-5.5 9t2.5 9.5t11.5 6.5q8 1 27.5 6.5t40 19t36.5 38t16 64.5v556q0 13 -12 16q-2 0 -14.5 3l-28.5 7t-29.5 7t-16.5 4q-13 3 -13.5 13.5t14.5 14.5
q39 9 84.5 24.5t91.5 35t89 42t77 45.5q9 6 18.5 5t9.5 -15v-758zM456 990q6 -10 1 -16t-16 -1q-41 18 -92.5 46.5t-102 63t-93.5 72t-65 72.5q-11 16 -17.5 37t-6 40.5t10 36.5t30.5 26q20 9 38.5 7.5t35 -9.5t30.5 -21.5t25 -28.5q2 -2 17.5 -24.5l38 -55.5l49 -72
l50.5 -74.5l42.5 -62.5z" />
    <glyph glyph-name="icircumflex" unicode="&#xee;" horiz-adv-x="573" 
d="M428 157q0 -40 16 -64.5t36.5 -38t40 -19t27.5 -6.5q8 -2 11.5 -6.5t2.5 -9.5t-5.5 -9t-12.5 -4h-502q-8 0 -12.5 4t-5.5 9t2.5 9.5t11.5 6.5q8 1 27.5 6.5t40 19t36.5 38t16 64.5v556q0 13 -12 16q-2 0 -14.5 3l-28.5 7t-29.5 7t-16.5 4q-13 3 -13.5 13.5t14.5 14.5
q39 9 84.5 24.5t91.5 35t89 42t77 45.5q9 6 18.5 5t9.5 -15v-758zM600 990q6 -10 1 -16t-16 -1q-31 13 -68.5 33.5t-77 44.5t-77 51t-68.5 55q-13 10 -24 0q-31 -28 -68.5 -55t-77 -51t-77 -44.5t-68.5 -33.5q-11 -5 -16 1t1 16l24.5 36l42.5 62.5l50.5 74.5l49 72l38 55.5
t17.5 24.5q18 24 42.5 42t53.5 18t53.5 -18t42.5 -42q2 -2 17.5 -24.5l38 -55.5l49 -72l50.5 -74.5l42.5 -62.5z" />
    <glyph glyph-name="idieresis" unicode="&#xef;" horiz-adv-x="573" 
d="M428 915q0 14 -9.5 15t-18.5 -5q-34 -23 -77 -45.5t-89 -42t-91.5 -35t-84.5 -24.5q-15 -4 -14.5 -14.5t13.5 -13.5q3 -1 16.5 -4t29.5 -7l28.5 -7t14.5 -3q12 -3 12 -16v-556q0 -40 -16 -64.5t-36.5 -38t-40 -19t-27.5 -6.5q-8 -2 -11.5 -6.5t-2.5 -9.5t5.5 -9t12.5 -4
h502q8 0 12.5 4t5.5 9t-2.5 9.5t-11.5 6.5q-8 1 -27.5 6.5t-40 19t-36.5 38t-16 64.5v758zM194 1204q0 -31 -12 -58t-32.5 -47.5t-48.5 -32t-60 -11.5t-59 11.5t-46.5 31t-30.5 46t-11 57.5q0 30 12 57.5t32.5 47.5t48.5 32t60 12t59 -11.5t46.5 -31t30.5 -46.5t11 -57z
M654 1204q0 -31 -12 -58t-32.5 -47.5t-48.5 -32t-60 -11.5t-59 11.5t-46.5 31t-30.5 46t-11 57.5q0 30 12 57.5t32.5 47.5t48.5 32t60 12t59 -11.5t46.5 -31t30.5 -46.5t11 -57z" />
    <glyph glyph-name="ograve" unicode="&#xf2;" horiz-adv-x="1014" 
d="M517 925q103 0 189.5 -36.5t148.5 -100t97 -149.5t35 -184q0 -99 -38 -186t-104 -152.5t-155.5 -103.5t-192.5 -38t-189.5 36.5t-148.5 100t-97 149t-35 184.5q0 98 38 185.5t104 153t155.5 103.5t192.5 38zM507 28q48 0 83.5 33t59 90.5t35.5 134.5t12 164t-12 164
t-35.5 134.5t-59 90.5t-83.5 33t-83.5 -33t-59.5 -90.5t-35.5 -134.5t-11.5 -164t11.5 -164t35.5 -134.5t59.5 -90.5t83.5 -33zM636 990q6 -10 1 -16t-16 -1q-41 18 -92.5 46.5t-102 63t-93.5 72t-65 72.5q-11 16 -17.5 37t-6 40.5t10 36.5t30.5 26q20 9 38.5 7.5t35 -9.5
t30.5 -21.5t25 -28.5q2 -2 17.5 -24.5l38 -55.5l49 -72l50.5 -74.5l42.5 -62.5z" />
    <glyph glyph-name="oacute" unicode="&#xf3;" horiz-adv-x="1014" 
d="M517 925q-103 0 -192.5 -38t-155.5 -103.5t-104 -153t-38 -185.5q0 -99 35 -184.5t97 -149t148.5 -100t189.5 -36.5t192.5 38t155.5 103.5t104 152.5t38 186q0 98 -35 184t-97 149.5t-148.5 100t-189.5 36.5zM507 28q-48 0 -83.5 33t-59.5 90.5t-35.5 134.5t-11.5 164
t11.5 164t35.5 134.5t59.5 90.5t83.5 33t83.5 -33t59 -90.5t35.5 -134.5t12 -164t-12 -164t-35.5 -134.5t-59 -90.5t-83.5 -33zM408 990l24.5 36l42.5 62.5l50.5 74.5l49 72l38 55.5t17.5 24.5q11 15 25 28.5t30.5 21.5t35 9.5t38.5 -7.5q21 -9 30.5 -26t10 -36.5
t-6.5 -40.5t-17 -37q-22 -35 -65 -72.5t-93.5 -72t-102.5 -63t-92 -46.5q-11 -5 -16 1t1 16z" />
    <glyph glyph-name="ocircumflex" unicode="&#xf4;" horiz-adv-x="1014" 
d="M517 925q103 0 189.5 -36.5t148.5 -100t97 -149.5t35 -184q0 -99 -38 -186t-104 -152.5t-155.5 -103.5t-192.5 -38t-189.5 36.5t-148.5 100t-97 149t-35 184.5q0 98 38 185.5t104 153t155.5 103.5t192.5 38zM507 28q48 0 83.5 33t59 90.5t35.5 134.5t12 164t-12 164
t-35.5 134.5t-59 90.5t-83.5 33t-83.5 -33t-59.5 -90.5t-35.5 -134.5t-11.5 -164t11.5 -164t35.5 -134.5t59.5 -90.5t83.5 -33zM825 990q6 -10 1 -16t-16 -1q-31 13 -68.5 33.5t-77 44.5t-77 51t-68.5 55q-13 10 -24 0q-31 -28 -68.5 -55t-77 -51t-77 -44.5t-68.5 -33.5
q-11 -5 -16 1t1 16l24.5 36l42.5 62.5l50.5 74.5l49 72l38 55.5t17.5 24.5q18 24 42.5 42t53.5 18t53.5 -18t42.5 -42q2 -2 17.5 -24.5l38 -55.5l49 -72l50.5 -74.5l42.5 -62.5z" />
    <glyph glyph-name="otilde" unicode="&#xf5;" horiz-adv-x="1014" 
d="M517 925q-103 0 -192.5 -38t-155.5 -103.5t-104 -153t-38 -185.5q0 -99 35 -184.5t97 -149t148.5 -100t189.5 -36.5t192.5 38t155.5 103.5t104 152.5t38 186q0 98 -35 184t-97 149.5t-148.5 100t-189.5 36.5zM507 28q-48 0 -83.5 33t-59.5 90.5t-35.5 134.5t-11.5 164
t11.5 164t35.5 134.5t59.5 90.5t83.5 33t83.5 -33t59 -90.5t35.5 -134.5t12 -164t-12 -164t-35.5 -134.5t-59 -90.5t-83.5 -33zM929 1250q-12 -47 -36 -87t-60.5 -69.5t-84.5 -46t-107 -16.5q-62 0 -119.5 18.5t-112.5 41t-107 41.5t-103 19q-38 0 -61.5 -11t-37.5 -21
q-9 -6 -16 -1t-2 15q21 38 45.5 71t57 57t73.5 37.5t94 13.5q71 0 121.5 -15.5t94 -33.5t88 -33.5t103.5 -15.5q55 0 89.5 14t61.5 34q8 6 15 3t4 -15z" />
    <glyph glyph-name="odieresis" unicode="&#xf6;" horiz-adv-x="1014" 
d="M517 925q-103 0 -192.5 -38t-155.5 -103.5t-104 -153t-38 -185.5q0 -99 35 -184.5t97 -149t148.5 -100t189.5 -36.5t192.5 38t155.5 103.5t104 152.5t38 186q0 98 -35 184t-97 149.5t-148.5 100t-189.5 36.5zM507 28q-48 0 -83.5 33t-59.5 90.5t-35.5 134.5t-11.5 164
t11.5 164t35.5 134.5t59.5 90.5t83.5 33t83.5 -33t59 -90.5t35.5 -134.5t12 -164t-12 -164t-35.5 -134.5t-59 -90.5t-83.5 -33zM427 1204q0 -31 -12 -58t-32.5 -47.5t-48.5 -32t-60 -11.5t-59 11.5t-46.5 31t-30.5 46t-11 57.5q0 30 12 57.5t32.5 47.5t48.5 32t60 12
t59 -11.5t46.5 -31t30.5 -46.5t11 -57zM887 1204q0 -31 -12 -58t-32.5 -47.5t-48.5 -32t-60 -11.5t-59 11.5t-46.5 31t-30.5 46t-11 57.5q0 30 12 57.5t32.5 47.5t48.5 32t60 12t59 -11.5t46.5 -31t30.5 -46.5t11 -57z" />
    <glyph glyph-name="ugrave" unicode="&#xf9;" horiz-adv-x="1145" 
d="M1108 29q8 -2 11.5 -6.5t2.5 -9.5t-5.5 -9t-12.5 -4h-362q-11 0 -17.5 5t-6.5 16v59q-42 -42 -109 -73.5t-166 -31.5q-82 0 -137.5 18t-92 48t-56 69t-28 81t-10 83.5t-1.5 77.5v391q0 40 -16 64.5t-36.5 38t-40 18.5l-27.5 7q-8 1 -11.5 6t-2.5 10t5.5 9t12.5 4h362
q24 0 24 -26v-585q1 -40 7.5 -80t24 -72.5t49 -52.5t84.5 -20q56 0 88.5 23.5t49.5 59.5t22 79.5t5 83.5v433q0 40 -16 64.5t-36.5 38t-40 18.5l-27.5 7q-8 1 -11.5 6t-2.5 10t5.5 9t12.5 4h362q24 0 24 -26v-717q0 -40 16 -64.5t36.5 -38t40 -19t27.5 -6.5zM656 990
q6 -10 1 -16t-16 -1q-41 18 -92.5 46.5t-102 63t-93.5 72t-65 72.5q-11 16 -17.5 37t-6 40.5t10 36.5t30.5 26q20 9 38.5 7.5t35 -9.5t30.5 -21.5t25 -28.5q2 -2 17.5 -24.5l38 -55.5l49 -72l50.5 -74.5l42.5 -62.5z" />
    <glyph glyph-name="uacute" unicode="&#xfa;" horiz-adv-x="1145" 
d="M1108 29q-8 1 -27.5 6.5t-40 19t-36.5 38t-16 64.5v717q0 26 -24 26h-362q-8 0 -12.5 -4t-5.5 -9t2.5 -10t11.5 -6l27.5 -7t40 -18.5t36.5 -38t16 -64.5v-433q0 -40 -5 -83.5t-22 -79.5t-49.5 -59.5t-88.5 -23.5q-53 0 -84.5 20t-49 52.5t-24 72.5t-7.5 80v585
q0 26 -24 26h-362q-8 0 -12.5 -4t-5.5 -9t2.5 -10t11.5 -6l27.5 -7t40 -18.5t36.5 -38t16 -64.5v-391q0 -36 1.5 -77.5t10 -83.5t28 -81t56 -69t92 -48t137.5 -18q99 0 166 31.5t109 73.5v-59q0 -11 6.5 -16t17.5 -5h362q8 0 12.5 4t5.5 9t-2.5 9.5t-11.5 6.5zM409 990
l24.5 36l42.5 62.5l50.5 74.5l49 72l38 55.5t17.5 24.5q11 15 25 28.5t30.5 21.5t35 9.5t38.5 -7.5q21 -9 30.5 -26t10 -36.5t-6.5 -40.5t-17 -37q-22 -35 -65 -72.5t-93.5 -72t-102.5 -63t-92 -46.5q-11 -5 -16 1t1 16z" />
    <glyph glyph-name="ucircumflex" unicode="&#xfb;" horiz-adv-x="1145" 
d="M1108 29q8 -2 11.5 -6.5t2.5 -9.5t-5.5 -9t-12.5 -4h-362q-11 0 -17.5 5t-6.5 16v59q-42 -42 -109 -73.5t-166 -31.5q-82 0 -137.5 18t-92 48t-56 69t-28 81t-10 83.5t-1.5 77.5v391q0 40 -16 64.5t-36.5 38t-40 18.5l-27.5 7q-8 1 -11.5 6t-2.5 10t5.5 9t12.5 4h362
q24 0 24 -26v-585q1 -40 7.5 -80t24 -72.5t49 -52.5t84.5 -20q56 0 88.5 23.5t49.5 59.5t22 79.5t5 83.5v433q0 40 -16 64.5t-36.5 38t-40 18.5l-27.5 7q-8 1 -11.5 6t-2.5 10t5.5 9t12.5 4h362q24 0 24 -26v-717q0 -40 16 -64.5t36.5 -38t40 -19t27.5 -6.5zM850 990
q6 -10 1 -16t-16 -1q-31 13 -68.5 33.5t-77 44.5t-77 51t-68.5 55q-13 10 -24 0q-31 -28 -68.5 -55t-77 -51t-77 -44.5t-68.5 -33.5q-11 -5 -16 1t1 16l24.5 36l42.5 62.5l50.5 74.5l49 72l38 55.5t17.5 24.5q18 24 42.5 42t53.5 18t53.5 -18t42.5 -42q2 -2 17.5 -24.5
l38 -55.5l49 -72l50.5 -74.5l42.5 -62.5z" />
    <glyph glyph-name="udieresis" unicode="&#xfc;" horiz-adv-x="1145" 
d="M1108 29q-8 1 -27.5 6.5t-40 19t-36.5 38t-16 64.5v717q0 26 -24 26h-362q-8 0 -12.5 -4t-5.5 -9t2.5 -10t11.5 -6l27.5 -7t40 -18.5t36.5 -38t16 -64.5v-433q0 -40 -5 -83.5t-22 -79.5t-49.5 -59.5t-88.5 -23.5q-53 0 -84.5 20t-49 52.5t-24 72.5t-7.5 80v585
q0 26 -24 26h-362q-8 0 -12.5 -4t-5.5 -9t2.5 -10t11.5 -6l27.5 -7t40 -18.5t36.5 -38t16 -64.5v-391q0 -36 1.5 -77.5t10 -83.5t28 -81t56 -69t92 -48t137.5 -18q99 0 166 31.5t109 73.5v-59q0 -11 6.5 -16t17.5 -5h362q8 0 12.5 4t5.5 9t-2.5 9.5t-11.5 6.5zM458 1204
q0 -31 -12 -58t-32.5 -47.5t-48.5 -32t-60 -11.5t-59 11.5t-46.5 31t-30.5 46t-11 57.5q0 30 12 57.5t32.5 47.5t48.5 32t60 12t59 -11.5t46.5 -31t30.5 -46.5t11 -57zM918 1204q0 -31 -12 -58t-32.5 -47.5t-48.5 -32t-60 -11.5t-59 11.5t-46.5 31t-30.5 46t-11 57.5
q0 30 12 57.5t32.5 47.5t48.5 32t60 12t59 -11.5t46.5 -31t30.5 -46.5t11 -57z" />
    <glyph glyph-name="yacute" unicode="&#xfd;" horiz-adv-x="889" 
d="M277 -239l131 292l-42 98l-57 132.5l-63 146.5l-60 138.5l-48 109t-27 59.5q-15 29 -29 50.5t-30 37.5t-36 26.5t-47 17.5q-8 2 -11.5 7t-3 10.5t5 9.5t12.5 4h500q7 0 12 -4t6 -9.5t-2 -11t-12 -7.5q-15 -4 -32.5 -10.5t-30.5 -20t-17 -36t7 -58.5q5 -16 17 -47l27 -68
l31 -76.5l30 -72l24 -55t12 -25.5q7 -13 14 0l13 31t22.5 57.5l27.5 72.5l28 74.5l23.5 65t14.5 43.5q11 36 7.5 58.5t-15.5 36t-29 20t-32 10.5q-9 2 -12 7.5t-2 11t5.5 9.5t12.5 4h299q7 0 11.5 -4t5.5 -9.5t-2.5 -10.5t-11.5 -7q-26 -7 -46 -17.5t-36.5 -26.5
t-30.5 -37.5t-29 -50.5q-6 -12 -25.5 -54.5l-46.5 -102.5l-59 -131l-63 -140.5l-59 -131.5l-46 -103l-172 -384q-33 -75 -77.5 -120t-110.5 -45q-23 0 -46 6.5t-41 20t-29.5 35t-11.5 52.5q0 28 10.5 48t28 33t39.5 19t45 6q31 0 54 -9.5t42 -14.5t34 1.5t29 38.5zM379 990
l24.5 36l42.5 62.5l50.5 74.5l49 72l38 55.5t17.5 24.5q11 15 25 28.5t30.5 21.5t35 9.5t38.5 -7.5q21 -9 30.5 -26t10 -36.5t-6.5 -40.5t-17 -37q-22 -35 -65 -72.5t-93.5 -72t-102.5 -63t-92 -46.5q-11 -5 -16 1t1 16z" />
    <glyph glyph-name="ydieresis" unicode="&#xff;" horiz-adv-x="889" 
d="M277 -239l131 292l-42 98l-57 132.5l-63 146.5l-60 138.5l-48 109t-27 59.5q-15 29 -29 50.5t-30 37.5t-36 26.5t-47 17.5q-8 2 -11.5 7t-3 10.5t5 9.5t12.5 4h500q7 0 12 -4t6 -9.5t-2 -11t-12 -7.5q-15 -4 -32.5 -10.5t-30.5 -20t-17 -36t7 -58.5q5 -16 17 -47l27 -68
l31 -76.5l30 -72l24 -55t12 -25.5q7 -13 14 0l13 31t22.5 57.5l27.5 72.5l28 74.5l23.5 65t14.5 43.5q11 36 7.5 58.5t-15.5 36t-29 20t-32 10.5q-9 2 -12 7.5t-2 11t5.5 9.5t12.5 4h299q7 0 11.5 -4t5.5 -9.5t-2.5 -10.5t-11.5 -7q-26 -7 -46 -17.5t-36.5 -26.5
t-30.5 -37.5t-29 -50.5q-6 -12 -25.5 -54.5l-46.5 -102.5l-59 -131l-63 -140.5l-59 -131.5l-46 -103l-172 -384q-33 -75 -77.5 -120t-110.5 -45q-23 0 -46 6.5t-41 20t-29.5 35t-11.5 52.5q0 28 10.5 48t28 33t39.5 19t45 6q31 0 54 -9.5t42 -14.5t34 1.5t29 38.5zM379 1204
q0 -31 -12 -58t-32.5 -47.5t-48.5 -32t-60 -11.5t-59 11.5t-46.5 31t-30.5 46t-11 57.5q0 30 12 57.5t32.5 47.5t48.5 32t60 12t59 -11.5t46.5 -31t30.5 -46.5t11 -57zM839 1204q0 -31 -12 -58t-32.5 -47.5t-48.5 -32t-60 -11.5t-59 11.5t-46.5 31t-30.5 46t-11 57.5
q0 30 12 57.5t32.5 47.5t48.5 32t60 12t59 -11.5t46.5 -31t30.5 -46.5t11 -57z" />
    <glyph glyph-name="Dswash" horiz-adv-x="1453" 
d="M-676 666q0 98 39.5 189.5t113 170.5t178.5 144t236 111t285 71.5t326 25.5q225 0 396 -40t285.5 -124.5t173 -216.5t58.5 -315q0 -142 -41.5 -266t-125.5 -216.5t-211 -146t-298 -53.5h-698q-10 0 -15 4.5t-5.5 10t4 10.5t13.5 7q12 2 38 8.5t52.5 23.5t46.5 46t20 76
v1019q0 26 -15.5 36.5t-32.5 10.5q-43 0 -95.5 -24t-106.5 -67.5t-105.5 -104.5t-91.5 -135.5t-64.5 -160t-24.5 -177.5q0 -78 15.5 -137t35 -99t37 -62t22.5 -27q8 -8 5 -18.5t-20 -10.5q-6 0 -39.5 3.5t-81.5 17t-102 41t-100 76t-76.5 121.5t-30.5 178zM739 61
q78 0 133 46t90.5 127.5t51.5 194t16 246.5q0 267 -60.5 415.5t-194.5 182.5q-15 4 -40 7t-51.5 5t-51.5 3t-40 1q-31 0 -49 -17t-18 -45v-748q0 -113 10.5 -192t35.5 -129.5t66 -73.5t102 -23z" />
    <glyph glyph-name="Lswash" horiz-adv-x="805" 
d="M1692 -73q23 12 30.5 2t-3.5 -30q-37 -64 -103 -128.5t-157.5 -116t-206 -84t-248.5 -32.5q-130 0 -244 29t-217 72t-195.5 92.5t-178 90.5t-166 65.5t-159.5 17.5q-17 -2 -21.5 7t8.5 20q38 32 102.5 55t145.5 23q50 0 100 -3q16 -1 16 13v1144q0 46 -20 75.5t-46.5 46
t-52.5 23.5t-38 9q-9 1 -13.5 6.5t-4 11t5.5 10t15 4.5h638q10 0 15 -4.5t5.5 -10t-4 -11t-13.5 -6.5q-12 -2 -38 -9t-52.5 -23.5t-46.5 -46t-20 -75.5v-1159q0 -29 11.5 -41t32.5 -19q48 -15 127 -34.5t172.5 -37.5t192.5 -30t185 -12q72 0 133 6t115 18t102.5 30t95.5 42z
" />
    <glyph glyph-name="Qswash" 
d="M765 1378q101 0 192 -24.5t168.5 -69.5t139.5 -108.5t105 -140.5t66.5 -166.5t23.5 -186.5t-25.5 -187.5t-72 -169t-112.5 -144t-146.5 -112t-173.5 -72t-195 -25.5q-153 0 -280.5 54t-219.5 148t-143.5 220.5t-51.5 272.5q0 97 25.5 187.5t72 169.5t112.5 144.5
t146.5 112t173.5 72t195 25.5zM750 31q82 0 143 50.5t101.5 138t60.5 204.5t20 251q0 133 -20 250.5t-60.5 205t-101.5 138t-143 50.5t-143 -50.5t-101.5 -138t-60.5 -205t-20 -250.5q0 -134 20 -251t60.5 -204.5t101.5 -138t143 -50.5zM1169 -519q-130 0 -244 29t-217 72
t-195.5 92.5t-178 90.5t-166 65.5t-159.5 17.5q-17 -2 -21.5 7t8.5 20q38 32 102.5 55t145.5 23q105 0 205 -13.5t197.5 -33t192.5 -43t190 -43t190 -33t192 -13.5q72 0 133 6t115 18t102.5 30t95.5 42q23 12 30.5 2t-3.5 -30q-37 -64 -103 -128.5t-157.5 -116t-206 -84
t-248.5 -32.5z" />
    <glyph glyph-name="Zswash" horiz-adv-x="1028" 
d="M1621 -73q23 12 30.5 2t-3.5 -30q-37 -64 -103 -128.5t-157.5 -116t-206 -84t-248.5 -32.5q-130 0 -244 29t-217 72t-195.5 92.5t-178 90.5t-166 65.5t-159.5 17.5q-17 -2 -21.5 7t8.5 20q38 32 102.5 55t145.5 23q14 0 21 4.5t12 13.5q1 1 15 27l38 70.5l57 104.5
l71 130l79.5 147l84.5 156l340 627h-251q-59 0 -106 -14.5t-82 -36.5t-60.5 -49.5t-42 -52.5t-26 -45.5t-12.5 -29.5q-6 -16 -19 -14.5t-13 17.5v266q0 19 21 19h988l-365 -672l-91 -167l-85.5 -158l-76 -139.5l-61 -112.5l-40.5 -75.5t-16 -29.5q-5 -11 -2.5 -19.5
t14.5 -10.5q99 -20 195.5 -44t192.5 -44t192.5 -33.5t194.5 -13.5q72 0 133 6t115 18t102.5 30t95.5 42z" />
    <glyph glyph-name="Iswash" horiz-adv-x="719" 
d="M682 -418q9 -2 13.5 -7t4 -10.5t-5.5 -10t-15 -4.5h-638q-10 0 -15 4.5t-5.5 10t4 10.5t13.5 7q12 2 38 8.5t52.5 23.5t46.5 46t20 76v1428q0 46 -20 75.5t-46.5 46t-52.5 23.5t-38 9q-9 1 -13.5 6.5t-4 11t5.5 10t15 4.5h638q10 0 15 -4.5t5.5 -10t-4 -11t-13.5 -6.5
q-12 -2 -38 -9t-52.5 -23.5t-46.5 -46t-20 -75.5v-1428q0 -47 20 -76t46.5 -46t52.5 -23.5t38 -8.5z" />
    <glyph glyph-name="Jswash" horiz-adv-x="777" 
d="M572 209q0 -142 -20.5 -248.5t-56 -183t-84 -126t-105 -78t-119 -40t-125.5 -11.5q-95 0 -153.5 16.5t-91 42.5t-44 57t-11.5 60q0 51 34.5 84.5t88.5 33.5q14 0 25.5 -1t25.5 -6q23 -8 38.5 -22t26.5 -32t18 -39t12 -43q3 -12 7 -26.5t11 -27.5t18 -22t28 -9q31 0 58 20
t47 72t31 141t11 226v1117q0 46 -20 75.5t-46.5 46t-52.5 23.5t-38 9q-9 1 -13.5 6.5t-4 11t5.5 10t15 4.5h638q10 0 15 -4.5t5.5 -10t-4 -11t-13.5 -6.5q-12 -2 -38 -9t-52.5 -23.5t-46.5 -46t-20 -75.5v-955v0z" />
    <glyph glyph-name="Bswash" horiz-adv-x="1198" 
d="M195 1205q0 26 -15.5 36.5t-32.5 10.5q-43 0 -95.5 -24t-106.5 -67.5t-105.5 -104.5t-91.5 -135.5t-64.5 -160t-24.5 -177.5q0 -78 15.5 -137t35 -99t37 -62t22.5 -27q8 -8 5 -18.5t-20 -10.5q-6 0 -39.5 3.5t-81.5 17t-102 41t-100 76t-76.5 121.5t-30.5 178
q0 98 39.5 189.5t113 170.5t178.5 144t236 111t285 71.5t326 25.5q131 0 227 -14.5t163 -40t109 -60.5t65.5 -75.5t32 -84.5t8.5 -88q0 -40 -10 -82.5t-33.5 -83.5t-63 -77t-97.5 -63q-6 -3 -5 -6.5t7 -5.5q82 -21 135 -56.5t84 -80t43 -96t12 -105.5q0 -72 -25 -137
t-81.5 -114.5t-148 -78.5t-224.5 -29h-659q-10 0 -15 4.5t-5.5 10t4 10.5t13.5 7q12 2 38 8.5t52.5 23.5t46.5 46t20 76v1019zM525 785q0 -28 15.5 -44.5t44.5 -16.5q26 0 57.5 12t58.5 46.5t45 97t18 163.5q0 44 -3 89t-16 81.5t-38 59.5t-69 23q-36 0 -58.5 -13.5
t-34.5 -41t-16 -68t-4 -94.5v-294zM658 57q39 0 65.5 16.5t44 43.5t27 60.5t13.5 67.5t5 65t1 53q0 76 -12 128.5t-32 86.5t-44.5 52.5t-49 27t-47 10t-37.5 1.5q-31 0 -49 -16.5t-18 -44.5v-314q0 -54 5.5 -98t20.5 -74.5t40.5 -47.5t66.5 -17z" />
    <glyph glyph-name="Rswashb" horiz-adv-x="1313" 
d="M195 1205q0 26 -15.5 36.5t-32.5 10.5q-43 0 -95.5 -24t-106.5 -67.5t-105.5 -104.5t-91.5 -135.5t-64.5 -160t-24.5 -177.5q0 -78 15.5 -137t35 -99t37 -62t22.5 -27q8 -8 5 -18.5t-20 -10.5q-6 0 -39.5 3.5t-81.5 17t-102 41t-100 76t-76.5 121.5t-30.5 178
q0 148 89 277.5t255 226t402.5 152.5t531.5 56q57 0 121 -5.5t127 -19.5t121 -39.5t104 -65.5q37 -33 60.5 -78.5t33 -95.5t4 -102t-26.5 -97q-36 -80 -94 -123.5t-139 -66.5q-8 -2 -9 -6t6 -6l28.5 -7t45 -16.5t50 -31.5t42.5 -50q20 -37 28.5 -93.5t11.5 -119.5
q3 -69 8 -114.5t17 -71.5q9 -21 23.5 -31.5t30.5 -14.5t32 -2.5t28 6.5q11 4 22 -1.5t6 -24.5q-6 -23 -25.5 -45.5t-49.5 -41.5t-68 -30.5t-82 -11.5q-37 0 -74 7.5t-70 24.5t-60.5 45t-45.5 69q-15 36 -24 82.5t-14 106.5q-10 116 -29.5 183.5t-45 102t-54.5 43.5t-56 9
q-34 0 -47 -13t-13 -45v-401q0 -47 20 -76t46.5 -46t52.5 -23.5t38 -8.5q9 -2 13.5 -7t4 -10.5t-5.5 -10t-15 -4.5h-638q-10 0 -15 4.5t-5.5 10t4 10.5t13.5 7q12 2 38 8.5t52.5 23.5t46.5 46t20 76v1019zM548 703q26 0 57.5 2t63 11.5t61 30t52 58t36 94.5t13.5 140
q0 72 -11 120.5t-31.5 78t-50 42.5t-66.5 13q-33 0 -60 -8.5t-46.5 -27.5t-30 -48t-10.5 -71v-413q0 -22 23 -22z" />
    <glyph glyph-name="Pswash" horiz-adv-x="1208" 
d="M195 1205q0 26 -15.5 36.5t-32.5 10.5q-43 0 -95.5 -24t-106.5 -67.5t-105.5 -104.5t-91.5 -135.5t-64.5 -160t-24.5 -177.5q0 -78 15.5 -137t35 -99t37 -62t22.5 -27q8 -8 5 -18.5t-20 -10.5q-6 0 -39.5 3.5t-81.5 17t-102 41t-100 76t-76.5 121.5t-30.5 178
q0 148 89 277.5t255 226t402.5 152.5t531.5 56q57 0 126 -5.5t138.5 -20.5t133 -42t109.5 -71q17 -17 31.5 -39t25.5 -44q21 -45 30.5 -97t8 -104.5t-13.5 -103t-36 -94.5q-26 -48 -69 -83.5t-94.5 -59t-107.5 -34.5t-108 -11q-24 0 -53 1t-60 5t-62.5 11.5t-61.5 21.5
q-8 5 -11 1t-3 -7v-416q0 -47 20 -76t46.5 -46t52.5 -23.5t38 -8.5q9 -2 13.5 -7t4 -10.5t-5.5 -10t-15 -4.5h-638q-10 0 -15 4.5t-5.5 10t4 10.5t13.5 7q12 2 38 8.5t52.5 23.5t46.5 46t20 76v1019zM644 647q57 0 96 22.5t64 64.5t36 101.5t11 133.5q0 63 -4.5 122t-22 105
t-52.5 73.5t-96 27.5q-46 0 -75 -17t-46 -44t-23.5 -62t-6.5 -71v-330q0 -66 32.5 -96t86.5 -30z" />
    <glyph glyph-name="Ograve" unicode="&#xd2;" 
d="M765 1378q101 0 192 -24.5t168.5 -69.5t139.5 -108.5t105 -140.5t66.5 -166.5t23.5 -186.5t-25.5 -187.5t-72 -169t-112.5 -144t-146.5 -112t-173.5 -72t-195 -25.5q-153 0 -280.5 54t-219.5 148t-143.5 220.5t-51.5 272.5q0 97 25.5 187.5t72 169.5t112.5 144.5
t146.5 112t173.5 72t195 25.5zM750 31q82 0 143 50.5t101.5 138t60.5 204.5t20 251q0 133 -20 250.5t-60.5 205t-101.5 138t-143 50.5t-143 -50.5t-101.5 -138t-60.5 -205t-20 -250.5q0 -134 20 -251t60.5 -204.5t101.5 -138t143 -50.5zM906 1416q6 -10 1 -16t-16 -1
q-41 18 -92.5 46.5t-102 63t-93.5 72t-65 72.5q-11 16 -17.5 37t-6 40.5t10 36.5t30.5 26q20 9 38.5 7.5t35 -9.5t30.5 -21.5t25 -28.5q2 -2 17.5 -24.5l38 -55.5l49 -72l50.5 -74.5l42.5 -62.5z" />
    <glyph glyph-name="Fswash" horiz-adv-x="1052" 
d="M1016 1350q21 0 21 -19v-218q0 -15 -12 -16.5t-20 12.5q-6 13 -24 43t-50 61.5t-80 55.5t-115 24q-47 0 -86 -8t-66.5 -25.5t-43 -45t-15.5 -66.5v-437v15q0 -6 4.5 -10.5t10.5 -4.5h128q45 0 73.5 18t45 42t23.5 47.5t9 35.5q1 8 6.5 11.5t11 3t10 -5t4.5 -12.5v-340
q0 -8 -4.5 -12.5t-10 -5t-11 3t-6.5 11.5q-2 12 -9 35.5t-23.5 47.5t-45 42t-73.5 18h-128q-6 0 -10.5 -4.5t-4.5 -10.5v15v-465q0 -47 20 -76t46.5 -46t52.5 -23.5t38 -8.5q9 -2 13.5 -7t4 -10.5t-5.5 -10t-15 -4.5h-638q-10 0 -15 4.5t-5.5 10t4 10.5t13.5 7q12 2 38 8.5
t52.5 23.5t46.5 46t20 76v1019q0 26 -15.5 36.5t-32.5 10.5q-43 0 -95.5 -24t-106.5 -67.5t-105.5 -104.5t-91.5 -135.5t-64.5 -160t-24.5 -177.5q0 -78 15.5 -137t35 -99t37 -62t22.5 -27q8 -8 5 -18.5t-20 -10.5q-6 0 -39.5 3.5t-81.5 17t-102 41t-100 76t-76.5 121.5
t-30.5 178q0 148 87.5 273t244 216.5t372.5 143t474 51.5h514z" />
    <glyph glyph-name="Hswash" horiz-adv-x="1485" 
d="M195 1205q0 26 -15.5 36.5t-32.5 10.5q-43 0 -95.5 -24t-106.5 -67.5t-105.5 -104.5t-91.5 -135.5t-64.5 -160t-24.5 -177.5q0 -78 15.5 -137t35 -99t37 -62t22.5 -27q8 -8 5 -18.5t-20 -10.5q-6 0 -39.5 3.5t-81.5 17t-102 41t-100 76t-76.5 121.5t-30.5 178
q0 148 87.5 273t244 216.5t372.5 143t474 51.5h177q10 0 15 -4.5t5.5 -10t-4 -11t-13.5 -6.5q-12 -2 -38 -9t-52.5 -23.5t-46.5 -46t-20 -75.5v-437h434v437q0 46 -20 75.5t-46.5 46t-52.5 23.5t-38 9q-9 1 -13.5 6.5t-4 11t5.5 10t15 4.5h638q10 0 15 -4.5t5.5 -10t-4 -11
t-13.5 -6.5q-12 -2 -38 -9t-52.5 -23.5t-46.5 -46t-20 -75.5v-978q0 -47 20 -76t46.5 -46t52.5 -23.5t38 -8.5q9 -2 13.5 -7t4 -10.5t-5.5 -10t-15 -4.5h-638q-10 0 -15 4.5t-5.5 10t4 10.5t13.5 7q12 2 38 8.5t52.5 23.5t46.5 46t20 76v476h-434v-476q0 -47 20 -76
t46.5 -46t52.5 -23.5t38 -8.5q9 -2 13.5 -7t4 -10.5t-5.5 -10t-15 -4.5h-638q-10 0 -15 4.5t-5.5 10t4 10.5t13.5 7q12 2 38 8.5t52.5 23.5t46.5 46t20 76v1019z" />
    <glyph glyph-name="Nswash" horiz-adv-x="1398" 
d="M184 1205q0 26 -15.5 36.5t-32.5 10.5q-43 0 -95.5 -24t-106.5 -67.5t-105.5 -104.5t-91.5 -135.5t-64.5 -160t-24.5 -177.5q0 -78 15.5 -137t35 -99t37 -62t22.5 -27q8 -8 5 -18.5t-20 -10.5q-6 0 -39.5 3.5t-81.5 17t-102 41t-100 76t-76.5 121.5t-30.5 178
q0 95 39.5 183t112 164t174 138t225.5 106.5t266.5 68.5t296.5 24q31 0 49 -21l57 -68l86.5 -102.5l104 -124l111 -132l107 -126.5l91.5 -108.5l64.5 -76.5t26.5 -31q8 -8 13 -6t5 12v598q0 46 -20 75.5t-46.5 46t-52.5 23.5t-38 9q-9 1 -13.5 6.5t-4 11t5.5 10t15 4.5h380
q10 0 15 -4.5t5.5 -10t-4 -11t-13.5 -6.5q-12 -2 -38 -9t-52.5 -23.5t-46.5 -46t-20 -75.5v-1152q0 -15 -11.5 -20.5t-24.5 7.5q-3 3 -29.5 34.5l-70.5 83.5l-102 120.5l-122.5 145l-132.5 157.5l-132 157.5l-121 144.5l-100 119l-68.5 81t-26.5 31q-7 7 -12 4.5t-5 -11.5
v-880q0 -47 20 -76t46.5 -46t52.5 -23.5t38 -8.5q9 -2 13.5 -7t4 -10.5t-5.5 -10t-15 -4.5h-380q-10 0 -15 4.5t-5.5 10t4 10.5t13.5 7q12 2 38 8.5t52.5 23.5t46.5 46t20 76v1019z" />
    <glyph glyph-name="Tswash" horiz-adv-x="1230" 
d="M450 1205q0 26 -15.5 36.5t-32.5 10.5q-42 0 -95 -24t-107 -67.5t-105.5 -104.5t-91.5 -135.5t-64.5 -160t-24.5 -177.5q0 -78 15.5 -137t35 -99t37 -62t22.5 -27q8 -8 5 -18.5t-20 -10.5q-4 0 -24.5 1.5t-51.5 8t-69.5 18.5t-78 33.5t-76.5 53.5t-66 77.5t-46.5 106
t-17.5 138.5q0 148 87.5 273t244 216.5t372.5 143t474 51.5h442q21 0 21 -19v-278q0 -16 -13 -17.5t-19 14.5l-14 30.5t-28 48.5t-44 55.5t-61 52.5t-78.5 39.5t-97.5 15.5q-25 0 -41 -7.5t-25.5 -20t-13.5 -29.5t-5 -35v-1014q0 -47 20 -76t46.5 -46t52.5 -23.5t38 -8.5
q9 -2 13.5 -7t4 -10.5t-5.5 -10t-15 -4.5h-638q-10 0 -15 4.5t-5.5 10t4 10.5t13.5 7q12 2 38 8.5t52.5 23.5t46.5 46t20 76v1019z" />
    <glyph glyph-name="Uswash" horiz-adv-x="1354" 
d="M186 1205q0 26 -15.5 36.5t-32.5 10.5q-42 0 -95 -24t-107 -67.5t-105.5 -104.5t-91.5 -135.5t-64.5 -160t-24.5 -177.5q0 -78 15.5 -137t35 -99t37 -62t22.5 -27q8 -8 5 -18.5t-20 -10.5q-4 0 -24.5 1.5t-51.5 8t-69.5 18.5t-78 33.5t-76.5 53.5t-66 77.5t-46.5 106
t-17.5 138.5q0 148 87.5 273t244 216.5t372.5 143t474 51.5h177q10 0 15 -4.5t5.5 -10t-4 -11t-13.5 -6.5q-12 -2 -38 -9t-52.5 -23.5t-46.5 -46t-20 -75.5v-758q0 -170 73.5 -260.5t225.5 -90.5q22 0 47 4t49.5 11.5t47 18t40.5 22.5q47 33 72.5 83t37 107t13.5 116t2 110
v637q0 46 -20 75.5t-46.5 46t-52.5 23.5t-38 9q-9 1 -13.5 6.5t-4 11t5.5 10t15 4.5h393q10 0 15 -4.5t5.5 -10t-4 -11t-13.5 -6.5q-12 -2 -38 -9t-52.5 -23.5t-46.5 -46t-20 -75.5v-617q0 -136 -25 -243t-83.5 -180.5t-155 -112.5t-240.5 -39q-137 0 -235.5 29t-161.5 90
t-92.5 155t-29.5 225v734z" />
    <glyph glyph-name="Vswash" horiz-adv-x="1166" 
d="M139 1135q-24 54 -42.5 78t-47.5 24q-37 0 -86.5 -23t-102 -64.5t-103.5 -101t-91.5 -132t-65 -157t-24.5 -176.5q0 -78 15.5 -137t35 -99t37 -62t22.5 -27q8 -8 5 -18.5t-20 -10.5q-4 0 -24.5 1.5t-51.5 8t-69.5 18.5t-78 33.5t-76.5 53.5t-66 77.5t-46.5 106
t-17.5 138.5q0 148 87.5 273t244 216.5t372.5 143t474 51.5h168q7 0 11.5 -4t6 -9.5t-2 -10.5t-13.5 -8l-34.5 -10.5t-47.5 -26t-36.5 -49.5t0.5 -80q10 -39 28.5 -93.5l40.5 -116.5l45.5 -126.5l45.5 -122.5l40 -105l29 -74q3 -9 10 -8.5t9 8.5l28.5 79l41 114l47.5 133
l48 136l41.5 123t29.5 94q10 36 -1 59t-31.5 36.5t-44 19.5l-38.5 10q-9 2 -12 7.5t-2 11t5.5 9.5t12.5 4h370q7 0 11.5 -4t5.5 -9.5t-2.5 -10.5t-11.5 -7q-54 -14 -96.5 -43t-68.5 -89q-14 -32 -37.5 -92l-54 -138l-65 -169l-70.5 -186l-71 -188l-65.5 -175l-55.5 -148.5
l-40 -106.5q-5 -11 -15.5 -12.5t-15.5 11.5l-34.5 98l-49 138l-59 165l-64 178.5l-64.5 178l-60.5 163.5l-52 136t-39.5 95z" />
    <glyph glyph-name="Wswash" horiz-adv-x="1812" 
d="M145 1135q-31 63 -55.5 90t-55.5 27q-42 0 -95 -24t-107 -67.5t-105.5 -104.5t-91.5 -135.5t-64.5 -160t-24.5 -177.5q0 -78 15.5 -137t35 -99t37 -62t22.5 -27q8 -8 5 -18.5t-20 -10.5q-6 0 -39.5 3.5t-81.5 17t-102 41t-100 76t-76.5 121.5t-30.5 178q0 148 87.5 273
t244 216.5t372.5 143t474 51.5h840q7 0 11.5 -4t6 -9.5t-2 -10.5t-13.5 -8l-34.5 -10.5t-47.5 -26t-36.5 -49.5t0.5 -80q10 -39 28.5 -93.5l40.5 -116.5l45.5 -126.5l45.5 -122.5l40 -105l29 -74q3 -9 10 -8.5t9 8.5l28.5 79l41 114l47.5 133l48 136l41.5 123t29.5 94
q10 36 -1 59t-31.5 36.5t-44 19.5l-38.5 10q-9 2 -12 7.5t-2 11t5.5 9.5t12.5 4h370q7 0 11.5 -4t5.5 -9.5t-2.5 -10.5t-11.5 -7q-54 -14 -96.5 -43t-68.5 -89q-14 -32 -37.5 -92l-54 -138l-65 -169l-70.5 -186l-71 -188l-65.5 -175l-55.5 -148.5l-40 -106.5
q-5 -11 -15.5 -12.5t-15.5 11.5l-24.5 70.5l-38 106l-46 128l-48.5 136.5l-47 131.5l-40.5 112.5l-29 80t-12.5 34q-4 8 -10 7t-10 -10l-58.5 -152.5l-58.5 -156l-56.5 -150.5l-51 -136.5l-43 -115l-31.5 -84.5q-5 -11 -15.5 -12.5t-15.5 11.5l-34.5 98.5l-48.5 138.5
l-58 165.5l-63.5 179l-64.5 178l-60.5 163.5t-53 135.5t-40.5 93.5zM725 514l17.5 47.5l25.5 70l29 81t27 81.5t19.5 71t7.5 50q0 27 -8 58.5t-19.5 62t-23.5 56.5t-19 43q-18 40 -38.5 69.5t-46 48.5t-57 28.5t-71.5 9.5q-21 0 -42 -7t-35 -23t-19.5 -43t5.5 -66
q10 -39 28 -93.5l40 -116.5l46 -126.5l46 -122.5l40 -105l29 -74q3 -9 10 -8.5t9 8.5z" />
    <glyph glyph-name="Yswash" horiz-adv-x="1260" 
d="M4 1252q-43 0 -95.5 -24t-106.5 -67.5t-105.5 -104.5t-91.5 -135.5t-64.5 -160t-24.5 -177.5q0 -78 15.5 -137t35 -99t37 -62t22.5 -27q8 -8 5 -18.5t-20 -10.5q-6 0 -39.5 3.5t-81.5 17t-102 41t-100 76t-76.5 121.5t-30.5 178q0 148 87.5 273t244 216.5t372.5 143
t474 51.5h200q10 0 15 -4.5t5.5 -10t-4 -11t-13.5 -6.5q-12 -2 -30 -6t-32.5 -13.5t-20 -27.5t7.5 -47q9 -20 30 -57.5l47.5 -82l56 -91.5l55 -86.5l43.5 -66.5t23 -32q15 -17 31 -2q4 4 25 33l50.5 71.5l63 92l63.5 94.5l52.5 80t28.5 47q16 31 11.5 48.5t-19 27t-32.5 13
t-30 5.5q-9 1 -13.5 6.5t-4 11t5.5 10t15 4.5h345q10 0 15 -4.5t5.5 -10.5t-4 -11t-13.5 -6q-15 -2 -36 -7.5t-45.5 -18t-52 -33.5t-54.5 -55l-41 -53l-63 -84.5l-72.5 -99l-69.5 -96.5l-54.5 -78t-27.5 -43q-12 -24 -17 -45.5t-5 -55.5v-463q0 -47 20 -76t46.5 -46
t52.5 -23.5t38 -8.5q9 -2 13.5 -7t4 -10.5t-5.5 -10t-15 -4.5h-628q-10 0 -15 4.5t-5.5 10t4 10.5t13.5 7q12 2 38 8.5t52.5 23.5t46.5 46t20 76v366v27t-2 25.5t-7 26t-14 29.5l-34 54l-62 96.5l-77.5 118l-78.5 118.5l-65.5 99t-39.5 58q-22 31 -42.5 39.5t-52.5 8.5z" />
    <glyph glyph-name="Aswash" horiz-adv-x="1348" 
d="M120 163q6 15 24 64.5l43 121l55.5 158.5l62 176.5l61 175l53.5 153.5l39.5 113l18.5 54q10 31 3.5 48.5t-27 26t-52.5 10.5t-72 2q-63 0 -131.5 -25t-134 -70t-125 -108t-104 -139t-71 -162.5t-26.5 -178.5q0 -78 15.5 -137t35 -99t37 -62t22.5 -27q8 -8 5 -18.5
t-20 -10.5q-6 0 -39.5 3.5t-81.5 17t-102 41t-100 76t-76.5 121.5t-30.5 178q0 102 42.5 194.5t121.5 170.5t192 139.5t253 102.5q109 32 206.5 48.5t177.5 21.5q33 2 85.5 5.5t108 9.5t105.5 15t80 21q17 7 24.5 3.5t12.5 -15.5l16.5 -50l41 -122.5l57.5 -172.5l66.5 -200
l68.5 -205l62.5 -187l48.5 -146.5t28 -83.5q15 -43 35.5 -74.5t45 -54t51.5 -35.5t56 -18q8 -2 11 -7t2 -11t-6 -10.5t-14 -4.5h-628q-7 0 -11.5 4t-6 9.5t2 10.5t13.5 8l35.5 11t49.5 26.5t36.5 49.5t-3.5 79l-40.5 123l-60.5 182h-448l-38 -122l-32 -104l-23 -77l-12 -42
q-8 -37 3.5 -60t31.5 -36.5t43 -19.5l38 -10q9 -2 12 -7.5t2 -11t-6 -9.5t-12 -4h-370q-8 0 -12.5 4t-5 9t3 10.5t11.5 7.5q27 7 51.5 17t46 25.5t39 37.5t29.5 52zM747 568l-46.5 139.5l-45.5 136.5l-41.5 123.5l-33.5 101t-23 69t-9 27.5q-2 7 -8.5 6t-8.5 -7
q-1 -2 -9 -28l-22 -69l-32.5 -100.5l-39.5 -123l-43 -136l-44 -139.5h406z" />
    <glyph glyph-name="Cswash" horiz-adv-x="1229" 
d="M1195 180q7 4 13.5 2.5t10 -5.5t3 -10.5t-7.5 -13.5q-87 -86 -204 -133.5t-265 -47.5q-167 0 -298 54.5t-221.5 148.5t-138 221t-47.5 273q0 95 24.5 184t69.5 166.5t108.5 142.5t141.5 112q-155 -6 -275 -33t-210 -71t-151.5 -103.5t-99.5 -131t-55 -153t-17 -169.5
q0 -78 15.5 -137t35 -99t37 -62t22.5 -27q8 -8 5 -18.5t-20 -10.5q-4 0 -24.5 1.5t-51.5 8t-69.5 18.5t-78 33.5t-76.5 53.5t-66 77.5t-46.5 106t-17.5 138.5q0 171 80.5 301t228 217.5t356.5 131.5t467 44q31 0 66.5 -3t69.5 -6.5l63.5 -6.5t49.5 -3q14 0 39.5 1.5t54 3
l56 3t46.5 1.5q64 0 112 -6.5t83 -17.5t59.5 -24.5t42.5 -26.5q23 -19 13 -41.5t-52 -28.5q-82 -11 -162.5 -5.5t-161.5 21.5q-11 2 -30 7.5t-39 10t-38.5 5t-28.5 -6.5q-50 -37 -86.5 -97t-59.5 -136.5t-34 -167t-11 -189.5q0 -134 31.5 -238t93.5 -175.5t155.5 -109
t216.5 -37.5q65 0 135.5 14t137.5 49z" />
    <glyph glyph-name="Oswash" 
d="M703 1378q173 0 313 -54t238.5 -148t152 -221t53.5 -273q0 -97 -25.5 -187.5t-72 -169t-112.5 -144t-146.5 -112t-173.5 -72t-195 -25.5q-153 0 -280.5 54t-219.5 148t-143.5 220.5t-51.5 272.5q0 102 28 197t79.5 176.5t123.5 147.5t160 111q5 2 3.5 4.5t-6.5 1.5
q-121 -15 -224.5 -77t-180 -156t-120 -213t-43.5 -248q0 -78 15.5 -137t35 -99t37 -62t22.5 -27q8 -8 5 -18.5t-20 -10.5q-4 0 -24.5 1.5t-51.5 8t-69.5 18.5t-78 33.5t-76.5 53.5t-66 77.5t-46.5 106t-17.5 138.5q0 99 39.5 188t113 165t178.5 137t236 104.5t285 66.5
t326 23zM750 31q82 0 143 50.5t101.5 138t60.5 204.5t20 251q0 133 -20 250.5t-60.5 205t-101.5 138t-143 50.5t-143 -50.5t-101.5 -138t-60.5 -205t-20 -250.5q0 -134 20 -251t60.5 -204.5t101.5 -138t143 -50.5z" />
    <glyph glyph-name="ring" unicode="&#x2da;" horiz-adv-x="500" 
d="M254 1375q38 0 69.5 -13.5t54.5 -37.5t35.5 -56t12.5 -69t-14 -69.5t-38 -57t-57 -38.5t-70 -14q-38 0 -69 13.5t-54 37.5t-35.5 56t-12.5 69t13.5 69.5t37.5 57t56.5 38.5t70.5 14zM251 1072q48 0 71.5 36.5t23.5 88.5t-23.5 88.5t-71.5 36.5t-71.5 -36.5t-23.5 -88.5
t23.5 -88.5t71.5 -36.5z" />
    <glyph glyph-name="Rswash" horiz-adv-x="1333" 
d="M731 578q-27 40 -64.5 53.5t-81.5 13.5q-34 0 -47 -13t-13 -45v-401q0 -47 20 -76t46.5 -46t52.5 -23.5t38 -8.5q9 -2 13.5 -7t4 -10.5t-5.5 -10t-15 -4.5h-638q-10 0 -15 4.5t-5.5 10t4 10.5t13.5 7q12 2 38 8.5t52.5 23.5t46.5 46t20 76v1019q0 26 -15.5 36.5
t-32.5 10.5q-43 0 -95.5 -24t-106.5 -67.5t-105.5 -104.5t-91.5 -135.5t-64.5 -160t-24.5 -177.5q0 -78 15.5 -137t35 -99t37 -62t22.5 -27q8 -8 5 -18.5t-20 -10.5q-6 0 -39.5 3.5t-81.5 17t-102 41t-100 76t-76.5 121.5t-30.5 178q0 148 89 277.5t255 226t402.5 152.5
t531.5 56q57 0 121 -5.5t127 -19.5t121 -39.5t104 -65.5q37 -33 60.5 -78.5t33 -95.5t4 -102t-26.5 -97q-36 -80 -94 -123.5t-139 -66.5q-8 -2 -9 -6t6 -6q77 -14 134 -62t102.5 -116.5t85 -152l80 -168.5t87.5 -165t109 -142q57 -57 118.5 -91.5t115.5 -52.5t92.5 -24
t48.5 -7t15 -6.5t5 -12t-5.5 -12t-17.5 -6.5q-35 -4 -60 -4.5t-54 -0.5q-235 0 -413.5 82.5t-306.5 236.5q-76 91 -119.5 175t-74 161l-56 145.5t-65.5 127.5zM548 703q26 0 57.5 2t63 11.5t61 30t52 58t36 94.5t13.5 140q0 72 -11 120.5t-31.5 78t-50 42.5t-66.5 13
q-33 0 -60 -8.5t-46.5 -27.5t-30 -48t-10.5 -71v-413q0 -22 23 -22z" />
    <glyph glyph-name="Gswash" horiz-adv-x="1365" 
d="M1265 657q15 0 23.5 -8.5t8.5 -22.5q0 -80 0.5 -160t-1 -159.5t-6.5 -158.5t-16 -158q-19 -131 -71.5 -243t-135 -195t-194 -130t-249.5 -47q-72 0 -128.5 13t-99.5 33t-73 44t-49.5 46.5t-30 40t-14.5 25.5q-11 23 -3.5 33t27.5 3q10 -3 28.5 -8t42.5 -9.5t53 -7.5
t59 -3q106 0 201.5 33.5t170 95.5t122 151t56.5 199q1 6 -3 8.5t-8 -2.5q-40 -45 -99.5 -71.5t-140.5 -26.5q-153 0 -280.5 54t-219.5 148t-143.5 220.5t-51.5 272.5q0 97 26 187.5t74 169.5t115.5 144.5t149.5 112t177 72t198 25.5q85 0 154 -13.5t119 -30t79 -31t32 -17.5
q12 -9 12 -21v-210q0 -7 -4 -11t-9 -5t-10 2t-8 9q-19 45 -47 93t-71 87t-102 64t-139 25q-97 0 -165.5 -50.5t-112 -138t-63.5 -205t-20 -250.5q0 -134 20 -251t60.5 -204.5t101.5 -138t143 -50.5q77 0 126 33t77 85.5t38.5 116.5t10.5 126v79q0 30 -12 53t-31 39.5
t-41.5 28t-44 18.5t-38.5 10.5t-25 4.5q-9 1 -13.5 6.5t-4 11t5.5 10t15 4.5h452v0z" />
    <glyph glyph-name="Xswash" horiz-adv-x="1270" 
d="M1931 -172q13 -2 19 -7t6 -11t-5 -12.5t-14 -10.5q-71 -32 -153 -48t-182 -16q-123 0 -230.5 30.5t-203 85t-180.5 129t-161.5 162t-146.5 184l-136 196.5q-5 8 -11.5 8t-11.5 -8l-26 -39.5l-44 -67l-53 -82l-53 -82.5l-43.5 -69.5t-24.5 -43.5q-15 -31 -9.5 -49
t20.5 -27.5t34 -12.5l31 -5q9 -2 13.5 -7t4 -10.5t-5.5 -10t-15 -4.5h-350q-10 0 -15 4.5t-5.5 10.5t4 11t13.5 6q15 2 36.5 7t47 17t52 33.5t52.5 56.5l34 48.5l52.5 76l62 90l62 90.5l52.5 76.5l34 49.5q9 14 2 26l-64.5 100.5l-63.5 97.5q-71 108 -147 192t-161 148.5
t-181.5 112t-207.5 82.5q-22 7 -18.5 19.5t19.5 17.5q9 3 26.5 6.5t41.5 7t54 6t63 2.5q142 0 263.5 -38t226.5 -104.5t196.5 -156.5t174.5 -193q9 -11 15.5 -10t13.5 12l29 45.5l38 58.5l41 64.5l39.5 62.5l32.5 52.5t20 35.5q16 30 11 48t-19 27.5t-32.5 13t-30.5 5.5
q-9 1 -13.5 6.5t-4 11t5.5 10t15 4.5h346q10 0 15 -4.5t5.5 -10.5t-4 -11t-13.5 -6q-15 -2 -36.5 -7t-46.5 -17.5t-52 -34t-53 -55.5l-27 -37l-41 -58.5l-49 -71l-51 -74l-47 -69l-36 -53.5q-5 -7 -6.5 -12.5t3.5 -13.5l102 -142.5l98.5 -144.5l97 -142t98.5 -135
q84 -113 174.5 -187t186.5 -121t196 -73t204 -42z" />
    <glyph glyph-name="Kswash" horiz-adv-x="1250" 
d="M679 1350q10 0 15 -4.5t5.5 -10t-4 -11t-13.5 -6.5q-12 -2 -38 -9t-52.5 -23.5t-46.5 -46t-20 -75.5v-409q0 -28 8.5 -46.5t32.5 -18.5q16 0 28.5 6.5t23.5 18t21.5 27.5l22.5 36l27 45.5l43.5 75l51.5 90.5l51 93.5l43 83t28 58.5q13 32 5.5 50t-24 27t-36 12l-31.5 5
q-9 1 -13.5 6.5t-4 11t5.5 10t15 4.5h379q10 0 15 -4.5t5.5 -10.5t-4 -11t-13.5 -6q-15 -2 -38 -5.5t-49 -15t-54 -33.5t-52 -60l-46 -71l-63 -98.5l-69.5 -109l-64.5 -101.5l-48.5 -76t-20.5 -33q-4 -6 -0.5 -8.5t9.5 -2.5h38.5t38.5 -1.5t44 -5.5t56 -12q73 -20 129 -70.5
t101.5 -121t85.5 -153.5l82 -167.5t89.5 -164t109.5 -141.5q57 -57 118.5 -91.5t115.5 -52.5t92.5 -24t48.5 -7t15 -6.5t5 -12t-5.5 -12t-17.5 -6.5q-35 -4 -60 -4.5t-54 -0.5q-235 0 -413.5 82.5t-306.5 236.5q-50 60 -86 118t-62 112.5t-45.5 105.5l-38 98.5t-38 91
t-45.5 83.5q-21 31 -46.5 41.5t-74.5 10.5q-17 0 -28.5 -6t-18.5 -16t-10 -21.5t-3 -21.5v-379q0 -47 20 -76t46.5 -46t52.5 -23.5t38 -8.5q9 -2 13.5 -7t4 -10.5t-5.5 -10t-15 -4.5h-638q-10 0 -15 4.5t-5.5 10t4 10.5t13.5 7q12 2 38 8.5t52.5 23.5t46.5 46t20 76v1019
q0 26 -15.5 36.5t-32.5 10.5q-43 0 -95.5 -24t-106.5 -67.5t-105.5 -104.5t-91.5 -135.5t-64.5 -160t-24.5 -177.5q0 -78 15.5 -137t35 -99t37 -62t22.5 -27q8 -8 5 -18.5t-20 -10.5q-6 0 -39.5 3.5t-81.5 17t-102 41t-100 76t-76.5 121.5t-30.5 178q0 148 89 273t255 216.5
t402.5 143t531.5 51.5h77z" />
    <glyph glyph-name="Ntilde" unicode="&#xd1;" horiz-adv-x="1398" 
d="M1368 1350h-380q-10 0 -15 -4.5t-5.5 -10t4 -11t13.5 -6.5q12 -2 38 -9t52.5 -23.5t46.5 -46t20 -75.5v-598q0 -10 -5 -12t-13 6q-2 2 -26.5 31l-64.5 76.5l-91.5 108.5l-107 126.5l-111 132l-104 124l-86.5 102.5l-57 68q-18 21 -49 21h-397q-10 0 -15 -4.5t-5.5 -10
t4 -11t13.5 -6.5q12 -2 38 -9t52.5 -23.5t46.5 -46t20 -75.5v-978q0 -47 -20 -76t-46.5 -46t-52.5 -23.5t-38 -8.5q-9 -2 -13.5 -7t-4 -10.5t5.5 -10t15 -4.5h380q10 0 15 4.5t5.5 10t-4 10.5t-13.5 7q-12 2 -38 8.5t-52.5 23.5t-46.5 46t-20 76v880q0 9 5 11.5t12 -4.5
q1 -1 26.5 -31l68.5 -81l100 -119l121 -144.5l132 -157.5l132.5 -157.5l122.5 -145l102 -120.5l70.5 -83.5t29.5 -34.5q13 -13 24.5 -7.5t11.5 20.5v1152q0 46 20 75.5t46.5 46t52.5 23.5t38 9q9 1 13.5 6.5t4 11t-5.5 10t-15 4.5zM1126 1666q-12 -47 -36 -87t-60.5 -69.5
t-84.5 -46t-107 -16.5q-62 0 -119.5 18.5t-112.5 41t-107 41.5t-103 19q-38 0 -61.5 -11t-37.5 -21q-9 -6 -16 -1t-2 15q21 38 45.5 71t57 57t73.5 37.5t94 13.5q71 0 121.5 -15.5t94 -33.5t88 -33.5t103.5 -15.5q55 0 89.5 14t61.5 34q8 6 15 3t4 -15z" />
    <glyph glyph-name="fi" unicode="&#xfb01;" horiz-adv-x="1195" 
d="M1049 159q0 -40 16 -64.5t36.5 -38t40 -19t27.5 -6.5q8 -2 11.5 -6.5t2.5 -9.5t-5.5 -9t-12.5 -4h-502q-8 0 -12.5 4t-5.5 9t2.5 9.5t11.5 6.5q8 1 27.5 6.5t40 19t36.5 38t16 64.5v555q0 13 -12 16q-2 0 -14.5 3.5t-28.5 7t-29.5 7t-16.5 3.5q-13 3 -13.5 14t14.5 14
q39 9 84.5 24.5t91.5 35t89 42t77 45.5q9 6 18.5 5t9.5 -15v-757zM580 1495q120 0 209 -25.5t147.5 -66t87.5 -90.5t29 -99q0 -75 -40 -113t-106 -38q-37 0 -63.5 12t-45.5 33t-30.5 50t-18.5 64q-7 38 -21 78t-35 73t-50 54t-66 21q-45 0 -72.5 -22t-43 -65.5t-20.5 -109
t-5 -153.5v-190q0 -8 8 -8h185q24 0 29.5 -3t5.5 -13q0 -13 -13.5 -28.5t-30.5 -15.5h-177q-7 0 -7 -7v-671q0 -41 17.5 -66t40 -39.5t44 -20.5t29.5 -7q8 -2 11.5 -6.5t2.5 -9.5t-5.5 -9t-12.5 -4h-524q-8 0 -12.5 4t-5.5 9t2.5 9.5t11.5 6.5q8 1 29.5 7t44 20.5t40 39.5
t17.5 66v670q0 8 -7 8h-30q-24 0 -29.5 3t-5.5 13q0 13 11.5 28.5t28.5 15.5h25q7 0 7 8q0 103 3.5 175t12.5 124t24 89t38 70q27 37 66 62t84 40t93 21t93 6z" />
    <glyph glyph-name="dotlessi" unicode="&#x131;" horiz-adv-x="573" 
d="M428 157q0 -40 16 -64.5t36.5 -38t40 -19t27.5 -6.5q8 -2 11.5 -6.5t2.5 -9.5t-5.5 -9t-12.5 -4h-502q-8 0 -12.5 4t-5.5 9t2.5 9.5t11.5 6.5q8 1 27.5 6.5t40 19t36.5 38t16 64.5v556q0 13 -12 16q-2 0 -14.5 3l-28.5 7t-29.5 7t-16.5 4q-13 3 -13.5 13.5t14.5 14.5
q39 9 84.5 24.5t91.5 35t89 42t77 45.5q9 6 18.5 5t9.5 -15v-758z" />
    <glyph glyph-name="caron" unicode="&#x2c7;" horiz-adv-x="698" 
d="M667 1351l-24.5 -36l-42.5 -62.5l-50.5 -74.5l-49 -72l-38 -55.5t-17.5 -24.5q-18 -24 -42.5 -42t-53.5 -18t-53.5 18t-42.5 42q-2 2 -17.5 24.5l-38 55.5l-49 72l-50.5 74.5l-42.5 62.5l-24.5 36q-6 10 -1 16t16 1q31 -14 68.5 -34t77 -44t77 -51t68.5 -55q11 -10 24 0
q31 28 68.5 55t77 51t77 44t68.5 34q11 5 16 -1t-1 -16z" />
    <glyph glyph-name="breve" unicode="&#x2d8;" horiz-adv-x="698" 
d="M575 1449q2 12 7.5 16.5t15.5 4.5h55q21 0 20 -22q-4 -71 -30 -129.5t-69 -101t-100 -66t-122 -23.5q-63 0 -119.5 24t-100.5 67t-72 101.5t-35 126.5q-1 23 22 23h52q20 0 23 -21q6 -36 26 -62.5t50 -44t68.5 -26t82.5 -8.5q43 0 81.5 8.5t68.5 26t50 44t26 62.5z" />
    <glyph glyph-name="uni00A0" unicode="&#xa0;" horiz-adv-x="500" 
 />
    <glyph glyph-name="A" unicode="A" horiz-adv-x="1348" 
d="M1388 33q8 -2 11 -7t2 -11t-6 -10.5t-14 -4.5h-628q-7 0 -11.5 4t-6 9.5t2 10.5t13.5 8l35.5 11t49 26.5t36.5 49.5t-3 79q-5 13 -13.5 39l-18.5 57.5l-21.5 65l-20.5 62t-16 48.5t-8 24q-3 9 -11 9h-431q-9 0 -12 -8q-4 -12 -12.5 -40l-19.5 -63l-22.5 -73.5
l-21.5 -71.5l-17.5 -57.5t-8.5 -31.5q-8 -37 3.5 -60t31.5 -36.5t43 -19.5l38 -10q9 -2 12 -7.5t2 -11t-6 -9.5t-12 -4h-370q-8 0 -12.5 4t-5 9t3 10.5t11.5 7.5q26 7 51 17t46.5 25.5t39 37.5t29.5 52q6 15 26 71.5l49 139l64 182.5l70.5 202.5l69.5 200l60 173.5l42.5 123
l17.5 50q4 11 10 17t19 8q22 4 51 11l59.5 15t60.5 17.5t55 20.5q17 8 24.5 4t12.5 -16l16.5 -50l41 -122.5l57.5 -172.5l66.5 -200l68.5 -205l62.5 -187l48.5 -146.5t28 -83.5q15 -43 35.5 -74.5t45 -54t51.5 -35.5t56 -18zM345 581q-5 -13 8 -13h381q12 0 8 12l-9.5 29.5
l-22.5 68l-31 93.5l-35 105.5l-35 105l-30.5 92l-22 65.5t-8.5 26q-2 7 -8.5 6t-8.5 -7q-1 -2 -12 -36.5l-28 -88l-38 -119l-41.5 -129.5l-38 -120z" />
    <glyph glyph-name="Amacron" unicode="&#x100;" horiz-adv-x="1348" 
d="M120 163q6 15 24 64.5l43 121l55.5 158.5l62 176.5l61 175l53.5 153.5l39.5 113l18.5 54q10 31 3.5 48.5t-27 26t-52.5 10.5t-72 2q-63 0 -131.5 -25t-134 -70t-125 -108t-104 -139t-71 -162.5t-26.5 -178.5q0 -78 15.5 -137t35 -99t37 -62t22.5 -27q8 -8 5 -18.5
t-20 -10.5q-6 0 -39.5 3.5t-81.5 17t-102 41t-100 76t-76.5 121.5t-30.5 178q0 102 42.5 194.5t121.5 170.5t192 139.5t253 102.5q109 32 206.5 48.5t177.5 21.5q33 2 85.5 5.5t108 9.5t105.5 15t80 21q17 7 24.5 3.5t12.5 -15.5l16.5 -50l41 -122.5l57.5 -172.5l66.5 -200
l68.5 -205l62.5 -187l48.5 -146.5t28 -83.5q15 -43 35.5 -74.5t45 -54t51.5 -35.5t56 -18q8 -2 11 -7t2 -11t-6 -10.5t-14 -4.5h-628q-7 0 -11.5 4t-6 9.5t2 10.5t13.5 8l35.5 11t49.5 26.5t36.5 49.5t-3.5 79l-40.5 123l-60.5 182h-448l-38 -122l-32 -104l-23 -77l-12 -42
q-8 -37 3.5 -60t31.5 -36.5t43 -19.5l38 -10q9 -2 12 -7.5t2 -11t-6 -9.5t-12 -4h-370q-8 0 -12.5 4t-5 9t3 10.5t11.5 7.5q27 7 51.5 17t46 25.5t39 37.5t29.5 52zM747 568l-46.5 139.5l-45.5 136.5l-41.5 123.5l-33.5 101t-23 69t-9 27.5q-2 7 -8.5 6t-8.5 -7
q-1 -2 -9 -28l-22 -69l-32.5 -100.5l-39.5 -123l-43 -136l-44 -139.5h406z" />
    <glyph glyph-name="Cacute" unicode="&#x106;" horiz-adv-x="1229" 
d="M1195 180q7 4 13.5 2.5t10 -5.5t3 -10.5t-7.5 -13.5q-87 -86 -204 -133.5t-265 -47.5q-167 0 -298 54.5t-221.5 148.5t-138 221t-47.5 273q0 95 24.5 184t69.5 166.5t108.5 142.5t141.5 112q-155 -6 -275 -33t-210 -71t-151.5 -103.5t-99.5 -131t-55 -153t-17 -169.5
q0 -78 15.5 -137t35 -99t37 -62t22.5 -27q8 -8 5 -18.5t-20 -10.5q-4 0 -24.5 1.5t-51.5 8t-69.5 18.5t-78 33.5t-76.5 53.5t-66 77.5t-46.5 106t-17.5 138.5q0 171 80.5 301t228 217.5t356.5 131.5t467 44q31 0 66.5 -3t69.5 -6.5l63.5 -6.5t49.5 -3q14 0 39.5 1.5t54 3
l56 3t46.5 1.5q64 0 112 -6.5t83 -17.5t59.5 -24.5t42.5 -26.5q23 -19 13 -41.5t-52 -28.5q-82 -11 -162.5 -5.5t-161.5 21.5q-11 2 -30 7.5t-39 10t-38.5 5t-28.5 -6.5q-50 -37 -86.5 -97t-59.5 -136.5t-34 -167t-11 -189.5q0 -134 31.5 -238t93.5 -175.5t155.5 -109
t216.5 -37.5q65 0 135.5 14t137.5 49z" />
    <glyph glyph-name="Dcaron" unicode="&#x10e;" horiz-adv-x="1453" 
d="M-676 666q0 98 39.5 189.5t113 170.5t178.5 144t236 111t285 71.5t326 25.5q225 0 396 -40t285.5 -124.5t173 -216.5t58.5 -315q0 -142 -41.5 -266t-125.5 -216.5t-211 -146t-298 -53.5h-698q-10 0 -15 4.5t-5.5 10t4 10.5t13.5 7q12 2 38 8.5t52.5 23.5t46.5 46t20 76
v1019q0 26 -15.5 36.5t-32.5 10.5q-43 0 -95.5 -24t-106.5 -67.5t-105.5 -104.5t-91.5 -135.5t-64.5 -160t-24.5 -177.5q0 -78 15.5 -137t35 -99t37 -62t22.5 -27q8 -8 5 -18.5t-20 -10.5q-6 0 -39.5 3.5t-81.5 17t-102 41t-100 76t-76.5 121.5t-30.5 178zM739 61
q78 0 133 46t90.5 127.5t51.5 194t16 246.5q0 267 -60.5 415.5t-194.5 182.5q-15 4 -40 7t-51.5 5t-51.5 3t-40 1q-31 0 -49 -17t-18 -45v-748q0 -113 10.5 -192t35.5 -129.5t66 -73.5t102 -23z" />
    <glyph glyph-name="Emacron" unicode="&#x112;" horiz-adv-x="1084" 
d="M1692 -73q23 12 30.5 2t-3.5 -30q-37 -64 -103 -128.5t-157.5 -116t-206 -84t-248.5 -32.5q-130 0 -244 29t-217 72t-195.5 92.5t-178 90.5t-166 65.5t-159.5 17.5q-17 -2 -21.5 7t8.5 20q38 32 102.5 55t145.5 23q50 0 100 -3q16 -1 16 13v1144q0 46 -20 75.5t-46.5 46
t-52.5 23.5t-38 9q-9 1 -13.5 6.5t-4 11t5.5 10t15 4.5h975q21 0 21 -19v-208q0 -15 -12 -16.5t-20 12.5q-6 13 -24 41.5t-50 58t-80 52t-115 22.5q-47 0 -86 -8t-66.5 -25.5t-43 -45t-15.5 -66.5v-452v15q0 -6 4.5 -10.5t10.5 -4.5h128q45 0 73.5 18t45 42t23.5 47.5
t9 35.5q1 8 6.5 11.5t11 3t10 -5t4.5 -12.5v-340q0 -8 -4.5 -12.5t-10 -5t-11 3t-6.5 11.5q-2 12 -9 35.5t-23.5 47.5t-45 42t-73.5 18h-128q-6 0 -10.5 -4.5t-4.5 -10.5v15v-631q0 -29 11.5 -41t32.5 -19q48 -15 127 -34.5t172.5 -37.5t192.5 -30t185 -12q72 0 133 6
t115 18t102.5 30t95.5 42z" />
    <glyph glyph-name="Gcircumflex" unicode="&#x11c;" horiz-adv-x="1365" 
d="M1265 657q15 0 23.5 -8.5t8.5 -22.5q0 -80 0.5 -160t-1 -159.5t-6.5 -158.5t-16 -158q-19 -131 -71.5 -243t-135 -195t-194 -130t-249.5 -47q-72 0 -128.5 13t-99.5 33t-73 44t-49.5 46.5t-30 40t-14.5 25.5q-11 23 -3.5 33t27.5 3q10 -3 28.5 -8t42.5 -9.5t53 -7.5
t59 -3q106 0 201.5 33.5t170 95.5t122 151t56.5 199q1 6 -3 8.5t-8 -2.5q-40 -45 -99.5 -71.5t-140.5 -26.5q-153 0 -280.5 54t-219.5 148t-143.5 220.5t-51.5 272.5q0 97 26 187.5t74 169.5t115.5 144.5t149.5 112t177 72t198 25.5q85 0 154 -13.5t119 -30t79 -31t32 -17.5
q12 -9 12 -21v-210q0 -7 -4 -11t-9 -5t-10 2t-8 9q-19 45 -47 93t-71 87t-102 64t-139 25q-97 0 -165.5 -50.5t-112 -138t-63.5 -205t-20 -250.5q0 -134 20 -251t60.5 -204.5t101.5 -138t143 -50.5q77 0 126 33t77 85.5t38.5 116.5t10.5 126v79q0 30 -12 53t-31 39.5
t-41.5 28t-44 18.5t-38.5 10.5t-25 4.5q-9 1 -13.5 6.5t-4 11t5.5 10t15 4.5h452v0z" />
    <glyph glyph-name="Hcircumflex" unicode="&#x124;" horiz-adv-x="1485" 
d="M195 1205q0 26 -15.5 36.5t-32.5 10.5q-43 0 -95.5 -24t-106.5 -67.5t-105.5 -104.5t-91.5 -135.5t-64.5 -160t-24.5 -177.5q0 -78 15.5 -137t35 -99t37 -62t22.5 -27q8 -8 5 -18.5t-20 -10.5q-6 0 -39.5 3.5t-81.5 17t-102 41t-100 76t-76.5 121.5t-30.5 178
q0 148 87.5 273t244 216.5t372.5 143t474 51.5h177q10 0 15 -4.5t5.5 -10t-4 -11t-13.5 -6.5q-12 -2 -38 -9t-52.5 -23.5t-46.5 -46t-20 -75.5v-437h434v437q0 46 -20 75.5t-46.5 46t-52.5 23.5t-38 9q-9 1 -13.5 6.5t-4 11t5.5 10t15 4.5h638q10 0 15 -4.5t5.5 -10t-4 -11
t-13.5 -6.5q-12 -2 -38 -9t-52.5 -23.5t-46.5 -46t-20 -75.5v-978q0 -47 20 -76t46.5 -46t52.5 -23.5t38 -8.5q9 -2 13.5 -7t4 -10.5t-5.5 -10t-15 -4.5h-638q-10 0 -15 4.5t-5.5 10t4 10.5t13.5 7q12 2 38 8.5t52.5 23.5t46.5 46t20 76v476h-434v-476q0 -47 20 -76
t46.5 -46t52.5 -23.5t38 -8.5q9 -2 13.5 -7t4 -10.5t-5.5 -10t-15 -4.5h-638q-10 0 -15 4.5t-5.5 10t4 10.5t13.5 7q12 2 38 8.5t52.5 23.5t46.5 46t20 76v1019z" />
    <glyph glyph-name="Itilde" unicode="&#x128;" horiz-adv-x="719" 
d="M682 -418q9 -2 13.5 -7t4 -10.5t-5.5 -10t-15 -4.5h-638q-10 0 -15 4.5t-5.5 10t4 10.5t13.5 7q12 2 38 8.5t52.5 23.5t46.5 46t20 76v1428q0 46 -20 75.5t-46.5 46t-52.5 23.5t-38 9q-9 1 -13.5 6.5t-4 11t5.5 10t15 4.5h638q10 0 15 -4.5t5.5 -10t-4 -11t-13.5 -6.5
q-12 -2 -38 -9t-52.5 -23.5t-46.5 -46t-20 -75.5v-1428q0 -47 20 -76t46.5 -46t52.5 -23.5t38 -8.5z" />
    <glyph glyph-name="Jcircumflex" unicode="&#x134;" horiz-adv-x="777" 
d="M572 209q0 -142 -20.5 -248.5t-56 -183t-84 -126t-105 -78t-119 -40t-125.5 -11.5q-95 0 -153.5 16.5t-91 42.5t-44 57t-11.5 60q0 51 34.5 84.5t88.5 33.5q14 0 25.5 -1t25.5 -6q23 -8 38.5 -22t26.5 -32t18 -39t12 -43q3 -12 7 -26.5t11 -27.5t18 -22t28 -9q31 0 58 20
t47 72t31 141t11 226v1117q0 46 -20 75.5t-46.5 46t-52.5 23.5t-38 9q-9 1 -13.5 6.5t-4 11t5.5 10t15 4.5h638q10 0 15 -4.5t5.5 -10t-4 -11t-13.5 -6.5q-12 -2 -38 -9t-52.5 -23.5t-46.5 -46t-20 -75.5v-955v0z" />
    <glyph glyph-name="uni0136" unicode="&#x136;" horiz-adv-x="1250" 
d="M679 1350q10 0 15 -4.5t5.5 -10t-4 -11t-13.5 -6.5q-12 -2 -38 -9t-52.5 -23.5t-46.5 -46t-20 -75.5v-409q0 -28 8.5 -46.5t32.5 -18.5q16 0 28.5 6.5t23.5 18t21.5 27.5l22.5 36l27 45.5l43.5 75l51.5 90.5l51 93.5l43 83t28 58.5q13 32 5.5 50t-24 27t-36 12l-31.5 5
q-9 1 -13.5 6.5t-4 11t5.5 10t15 4.5h379q10 0 15 -4.5t5.5 -10.5t-4 -11t-13.5 -6q-15 -2 -38 -5.5t-49 -15t-54 -33.5t-52 -60l-46 -71l-63 -98.5l-69.5 -109l-64.5 -101.5l-48.5 -76t-20.5 -33q-4 -6 -0.5 -8.5t9.5 -2.5h38.5t38.5 -1.5t44 -5.5t56 -12q73 -20 129 -70.5
t101.5 -121t85.5 -153.5l82 -167.5t89.5 -164t109.5 -141.5q57 -57 118.5 -91.5t115.5 -52.5t92.5 -24t48.5 -7t15 -6.5t5 -12t-5.5 -12t-17.5 -6.5q-35 -4 -60 -4.5t-54 -0.5q-235 0 -413.5 82.5t-306.5 236.5q-50 60 -86 118t-62 112.5t-45.5 105.5l-38 98.5t-38 91
t-45.5 83.5q-21 31 -46.5 41.5t-74.5 10.5q-17 0 -28.5 -6t-18.5 -16t-10 -21.5t-3 -21.5v-379q0 -47 20 -76t46.5 -46t52.5 -23.5t38 -8.5q9 -2 13.5 -7t4 -10.5t-5.5 -10t-15 -4.5h-638q-10 0 -15 4.5t-5.5 10t4 10.5t13.5 7q12 2 38 8.5t52.5 23.5t46.5 46t20 76v1019
q0 26 -15.5 36.5t-32.5 10.5q-43 0 -95.5 -24t-106.5 -67.5t-105.5 -104.5t-91.5 -135.5t-64.5 -160t-24.5 -177.5q0 -78 15.5 -137t35 -99t37 -62t22.5 -27q8 -8 5 -18.5t-20 -10.5q-6 0 -39.5 3.5t-81.5 17t-102 41t-100 76t-76.5 121.5t-30.5 178q0 148 89 273t255 216.5
t402.5 143t531.5 51.5h77z" />
    <glyph glyph-name="uni013B" unicode="&#x13b;" horiz-adv-x="805" 
d="M1692 -73q23 12 30.5 2t-3.5 -30q-37 -64 -103 -128.5t-157.5 -116t-206 -84t-248.5 -32.5q-130 0 -244 29t-217 72t-195.5 92.5t-178 90.5t-166 65.5t-159.5 17.5q-17 -2 -21.5 7t8.5 20q38 32 102.5 55t145.5 23q50 0 100 -3q16 -1 16 13v1144q0 46 -20 75.5t-46.5 46
t-52.5 23.5t-38 9q-9 1 -13.5 6.5t-4 11t5.5 10t15 4.5h638q10 0 15 -4.5t5.5 -10t-4 -11t-13.5 -6.5q-12 -2 -38 -9t-52.5 -23.5t-46.5 -46t-20 -75.5v-1159q0 -29 11.5 -41t32.5 -19q48 -15 127 -34.5t172.5 -37.5t192.5 -30t185 -12q72 0 133 6t115 18t102.5 30t95.5 42z
" />
    <glyph glyph-name="Nacute" unicode="&#x143;" horiz-adv-x="1398" 
d="M184 1205q0 26 -15.5 36.5t-32.5 10.5q-43 0 -95.5 -24t-106.5 -67.5t-105.5 -104.5t-91.5 -135.5t-64.5 -160t-24.5 -177.5q0 -78 15.5 -137t35 -99t37 -62t22.5 -27q8 -8 5 -18.5t-20 -10.5q-6 0 -39.5 3.5t-81.5 17t-102 41t-100 76t-76.5 121.5t-30.5 178
q0 95 39.5 183t112 164t174 138t225.5 106.5t266.5 68.5t296.5 24q31 0 49 -21l57 -68l86.5 -102.5l104 -124l111 -132l107 -126.5l91.5 -108.5l64.5 -76.5t26.5 -31q8 -8 13 -6t5 12v598q0 46 -20 75.5t-46.5 46t-52.5 23.5t-38 9q-9 1 -13.5 6.5t-4 11t5.5 10t15 4.5h380
q10 0 15 -4.5t5.5 -10t-4 -11t-13.5 -6.5q-12 -2 -38 -9t-52.5 -23.5t-46.5 -46t-20 -75.5v-1152q0 -15 -11.5 -20.5t-24.5 7.5q-3 3 -29.5 34.5l-70.5 83.5l-102 120.5l-122.5 145l-132.5 157.5l-132 157.5l-121 144.5l-100 119l-68.5 81t-26.5 31q-7 7 -12 4.5t-5 -11.5
v-880q0 -47 20 -76t46.5 -46t52.5 -23.5t38 -8.5q9 -2 13.5 -7t4 -10.5t-5.5 -10t-15 -4.5h-380q-10 0 -15 4.5t-5.5 10t4 10.5t13.5 7q12 2 38 8.5t52.5 23.5t46.5 46t20 76v1019z" />
    <glyph glyph-name="Omacron" unicode="&#x14c;" 
d="M703 1378q173 0 313 -54t238.5 -148t152 -221t53.5 -273q0 -97 -25.5 -187.5t-72 -169t-112.5 -144t-146.5 -112t-173.5 -72t-195 -25.5q-153 0 -280.5 54t-219.5 148t-143.5 220.5t-51.5 272.5q0 102 28 197t79.5 176.5t123.5 147.5t160 111q5 2 3.5 4.5t-6.5 1.5
q-121 -15 -224.5 -77t-180 -156t-120 -213t-43.5 -248q0 -78 15.5 -137t35 -99t37 -62t22.5 -27q8 -8 5 -18.5t-20 -10.5q-4 0 -24.5 1.5t-51.5 8t-69.5 18.5t-78 33.5t-76.5 53.5t-66 77.5t-46.5 106t-17.5 138.5q0 99 39.5 188t113 165t178.5 137t236 104.5t285 66.5
t326 23zM750 31q82 0 143 50.5t101.5 138t60.5 204.5t20 251q0 133 -20 250.5t-60.5 205t-101.5 138t-143 50.5t-143 -50.5t-101.5 -138t-60.5 -205t-20 -250.5q0 -134 20 -251t60.5 -204.5t101.5 -138t143 -50.5z" />
    <glyph glyph-name="Racute" unicode="&#x154;" horiz-adv-x="1333" 
d="M731 578q-27 40 -64.5 53.5t-81.5 13.5q-34 0 -47 -13t-13 -45v-401q0 -47 20 -76t46.5 -46t52.5 -23.5t38 -8.5q9 -2 13.5 -7t4 -10.5t-5.5 -10t-15 -4.5h-638q-10 0 -15 4.5t-5.5 10t4 10.5t13.5 7q12 2 38 8.5t52.5 23.5t46.5 46t20 76v1019q0 26 -15.5 36.5
t-32.5 10.5q-43 0 -95.5 -24t-106.5 -67.5t-105.5 -104.5t-91.5 -135.5t-64.5 -160t-24.5 -177.5q0 -78 15.5 -137t35 -99t37 -62t22.5 -27q8 -8 5 -18.5t-20 -10.5q-6 0 -39.5 3.5t-81.5 17t-102 41t-100 76t-76.5 121.5t-30.5 178q0 148 89 277.5t255 226t402.5 152.5
t531.5 56q57 0 121 -5.5t127 -19.5t121 -39.5t104 -65.5q37 -33 60.5 -78.5t33 -95.5t4 -102t-26.5 -97q-36 -80 -94 -123.5t-139 -66.5q-8 -2 -9 -6t6 -6q77 -14 134 -62t102.5 -116.5t85 -152l80 -168.5t87.5 -165t109 -142q57 -57 118.5 -91.5t115.5 -52.5t92.5 -24
t48.5 -7t15 -6.5t5 -12t-5.5 -12t-17.5 -6.5q-35 -4 -60 -4.5t-54 -0.5q-235 0 -413.5 82.5t-306.5 236.5q-76 91 -119.5 175t-74 161l-56 145.5t-65.5 127.5zM548 703q26 0 57.5 2t63 11.5t61 30t52 58t36 94.5t13.5 140q0 72 -11 120.5t-31.5 78t-50 42.5t-66.5 13
q-33 0 -60 -8.5t-46.5 -27.5t-30 -48t-10.5 -71v-413q0 -22 23 -22z" />
    <glyph glyph-name="uni0156" unicode="&#x156;" horiz-adv-x="1313" 
d="M195 1205q0 26 -15.5 36.5t-32.5 10.5q-43 0 -95.5 -24t-106.5 -67.5t-105.5 -104.5t-91.5 -135.5t-64.5 -160t-24.5 -177.5q0 -78 15.5 -137t35 -99t37 -62t22.5 -27q8 -8 5 -18.5t-20 -10.5q-6 0 -39.5 3.5t-81.5 17t-102 41t-100 76t-76.5 121.5t-30.5 178
q0 148 89 277.5t255 226t402.5 152.5t531.5 56q57 0 121 -5.5t127 -19.5t121 -39.5t104 -65.5q37 -33 60.5 -78.5t33 -95.5t4 -102t-26.5 -97q-36 -80 -94 -123.5t-139 -66.5q-8 -2 -9 -6t6 -6l28.5 -7t45 -16.5t50 -31.5t42.5 -50q20 -37 28.5 -93.5t11.5 -119.5
q3 -69 8 -114.5t17 -71.5q9 -21 23.5 -31.5t30.5 -14.5t32 -2.5t28 6.5q11 4 22 -1.5t6 -24.5q-6 -23 -25.5 -45.5t-49.5 -41.5t-68 -30.5t-82 -11.5q-37 0 -74 7.5t-70 24.5t-60.5 45t-45.5 69q-15 36 -24 82.5t-14 106.5q-10 116 -29.5 183.5t-45 102t-54.5 43.5t-56 9
q-34 0 -47 -13t-13 -45v-401q0 -47 20 -76t46.5 -46t52.5 -23.5t38 -8.5q9 -2 13.5 -7t4 -10.5t-5.5 -10t-15 -4.5h-638q-10 0 -15 4.5t-5.5 10t4 10.5t13.5 7q12 2 38 8.5t52.5 23.5t46.5 46t20 76v1019zM548 703q26 0 57.5 2t63 11.5t61 30t52 58t36 94.5t13.5 140
q0 72 -11 120.5t-31.5 78t-50 42.5t-66.5 13q-33 0 -60 -8.5t-46.5 -27.5t-30 -48t-10.5 -71v-413q0 -22 23 -22z" />
    <glyph glyph-name="Sacute" unicode="&#x15a;" horiz-adv-x="1247" 
d="M708 51q37 0 74.5 12.5t67 38t48 64t18.5 91.5q0 61 -34 105.5t-88 76t-121 52.5t-133 36q-62 14 -131.5 37.5t-133.5 56.5t-115.5 75t-78.5 94q-23 43 -35.5 89t-12.5 95q0 71 25 143t82 130t149 94.5t225 36.5q85 0 147 -13.5t103.5 -30t63.5 -31t25 -17.5
q12 -9 12 -21v-182q0 -7 -4 -11t-9 -5t-10 2t-8 9q-19 45 -45 89.5t-65.5 79t-96.5 56t-137 21.5q-104 0 -162 -49t-58 -133q0 -75 33 -120t92.5 -74t143 -49l185.5 -44q71 -17 135.5 -37.5t119.5 -48t99.5 -63t76 -82t48.5 -105.5t17 -134q0 -96 -37 -170.5t-101 -125.5
t-148.5 -77t-180.5 -26q-71 0 -140.5 14.5t-140.5 36.5t-144 47.5t-151.5 47.5t-163 36.5t-176.5 14.5q-88 0 -162.5 -7.5t-139 -21.5t-120.5 -33t-107 -42q-22 -10 -27.5 -0.5t-0.5 24.5q24 69 68 128t103.5 102.5t132.5 68.5t156 25q119 0 216 -28t179 -69.5t153.5 -90.5
t139.5 -90.5t136 -69.5t144 -28z" />
    <glyph glyph-name="uni0162" unicode="&#x162;" horiz-adv-x="1230" 
d="M450 1205q0 26 -15.5 36.5t-32.5 10.5q-42 0 -95 -24t-107 -67.5t-105.5 -104.5t-91.5 -135.5t-64.5 -160t-24.5 -177.5q0 -78 15.5 -137t35 -99t37 -62t22.5 -27q8 -8 5 -18.5t-20 -10.5q-4 0 -24.5 1.5t-51.5 8t-69.5 18.5t-78 33.5t-76.5 53.5t-66 77.5t-46.5 106
t-17.5 138.5q0 148 87.5 273t244 216.5t372.5 143t474 51.5h442q21 0 21 -19v-278q0 -16 -13 -17.5t-19 14.5l-14 30.5t-28 48.5t-44 55.5t-61 52.5t-78.5 39.5t-97.5 15.5q-25 0 -41 -7.5t-25.5 -20t-13.5 -29.5t-5 -35v-1014q0 -47 20 -76t46.5 -46t52.5 -23.5t38 -8.5
q9 -2 13.5 -7t4 -10.5t-5.5 -10t-15 -4.5h-638q-10 0 -15 4.5t-5.5 10t4 10.5t13.5 7q12 2 38 8.5t52.5 23.5t46.5 46t20 76v1019z" />
    <glyph glyph-name="Utilde" unicode="&#x168;" horiz-adv-x="1354" 
d="M186 1205q0 26 -15.5 36.5t-32.5 10.5q-42 0 -95 -24t-107 -67.5t-105.5 -104.5t-91.5 -135.5t-64.5 -160t-24.5 -177.5q0 -78 15.5 -137t35 -99t37 -62t22.5 -27q8 -8 5 -18.5t-20 -10.5q-4 0 -24.5 1.5t-51.5 8t-69.5 18.5t-78 33.5t-76.5 53.5t-66 77.5t-46.5 106
t-17.5 138.5q0 148 87.5 273t244 216.5t372.5 143t474 51.5h177q10 0 15 -4.5t5.5 -10t-4 -11t-13.5 -6.5q-12 -2 -38 -9t-52.5 -23.5t-46.5 -46t-20 -75.5v-758q0 -170 73.5 -260.5t225.5 -90.5q22 0 47 4t49.5 11.5t47 18t40.5 22.5q47 33 72.5 83t37 107t13.5 116t2 110
v637q0 46 -20 75.5t-46.5 46t-52.5 23.5t-38 9q-9 1 -13.5 6.5t-4 11t5.5 10t15 4.5h393q10 0 15 -4.5t5.5 -10t-4 -11t-13.5 -6.5q-12 -2 -38 -9t-52.5 -23.5t-46.5 -46t-20 -75.5v-617q0 -136 -25 -243t-83.5 -180.5t-155 -112.5t-240.5 -39q-137 0 -235.5 29t-161.5 90
t-92.5 155t-29.5 225v734z" />
    <glyph glyph-name="Wcircumflex" unicode="&#x174;" horiz-adv-x="1812" 
d="M145 1135q-31 63 -55.5 90t-55.5 27q-42 0 -95 -24t-107 -67.5t-105.5 -104.5t-91.5 -135.5t-64.5 -160t-24.5 -177.5q0 -78 15.5 -137t35 -99t37 -62t22.5 -27q8 -8 5 -18.5t-20 -10.5q-6 0 -39.5 3.5t-81.5 17t-102 41t-100 76t-76.5 121.5t-30.5 178q0 148 87.5 273
t244 216.5t372.5 143t474 51.5h840q7 0 11.5 -4t6 -9.5t-2 -10.5t-13.5 -8l-34.5 -10.5t-47.5 -26t-36.5 -49.5t0.5 -80q10 -39 28.5 -93.5l40.5 -116.5l45.5 -126.5l45.5 -122.5l40 -105l29 -74q3 -9 10 -8.5t9 8.5l28.5 79l41 114l47.5 133l48 136l41.5 123t29.5 94
q10 36 -1 59t-31.5 36.5t-44 19.5l-38.5 10q-9 2 -12 7.5t-2 11t5.5 9.5t12.5 4h370q7 0 11.5 -4t5.5 -9.5t-2.5 -10.5t-11.5 -7q-54 -14 -96.5 -43t-68.5 -89q-14 -32 -37.5 -92l-54 -138l-65 -169l-70.5 -186l-71 -188l-65.5 -175l-55.5 -148.5l-40 -106.5
q-5 -11 -15.5 -12.5t-15.5 11.5l-24.5 70.5l-38 106l-46 128l-48.5 136.5l-47 131.5l-40.5 112.5l-29 80t-12.5 34q-4 8 -10 7t-10 -10l-58.5 -152.5l-58.5 -156l-56.5 -150.5l-51 -136.5l-43 -115l-31.5 -84.5q-5 -11 -15.5 -12.5t-15.5 11.5l-34.5 98.5l-48.5 138.5
l-58 165.5l-63.5 179l-64.5 178l-60.5 163.5t-53 135.5t-40.5 93.5zM725 514l17.5 47.5l25.5 70l29 81t27 81.5t19.5 71t7.5 50q0 27 -8 58.5t-19.5 62t-23.5 56.5t-19 43q-18 40 -38.5 69.5t-46 48.5t-57 28.5t-71.5 9.5q-21 0 -42 -7t-35 -23t-19.5 -43t5.5 -66
q10 -39 28 -93.5l40 -116.5l46 -126.5l46 -122.5l40 -105l29 -74q3 -9 10 -8.5t9 8.5z" />
    <glyph glyph-name="Ycircumflex" unicode="&#x176;" horiz-adv-x="1260" 
d="M4 1252q-43 0 -95.5 -24t-106.5 -67.5t-105.5 -104.5t-91.5 -135.5t-64.5 -160t-24.5 -177.5q0 -78 15.5 -137t35 -99t37 -62t22.5 -27q8 -8 5 -18.5t-20 -10.5q-6 0 -39.5 3.5t-81.5 17t-102 41t-100 76t-76.5 121.5t-30.5 178q0 148 87.5 273t244 216.5t372.5 143
t474 51.5h200q10 0 15 -4.5t5.5 -10t-4 -11t-13.5 -6.5q-12 -2 -30 -6t-32.5 -13.5t-20 -27.5t7.5 -47q9 -20 30 -57.5l47.5 -82l56 -91.5l55 -86.5l43.5 -66.5t23 -32q15 -17 31 -2q4 4 25 33l50.5 71.5l63 92l63.5 94.5l52.5 80t28.5 47q16 31 11.5 48.5t-19 27t-32.5 13
t-30 5.5q-9 1 -13.5 6.5t-4 11t5.5 10t15 4.5h345q10 0 15 -4.5t5.5 -10.5t-4 -11t-13.5 -6q-15 -2 -36 -7.5t-45.5 -18t-52 -33.5t-54.5 -55l-41 -53l-63 -84.5l-72.5 -99l-69.5 -96.5l-54.5 -78t-27.5 -43q-12 -24 -17 -45.5t-5 -55.5v-463q0 -47 20 -76t46.5 -46
t52.5 -23.5t38 -8.5q9 -2 13.5 -7t4 -10.5t-5.5 -10t-15 -4.5h-628q-10 0 -15 4.5t-5.5 10t4 10.5t13.5 7q12 2 38 8.5t52.5 23.5t46.5 46t20 76v366v27t-2 25.5t-7 26t-14 29.5l-34 54l-62 96.5l-77.5 118l-78.5 118.5l-65.5 99t-39.5 58q-22 31 -42.5 39.5t-52.5 8.5z" />
    <glyph glyph-name="Zacute" unicode="&#x179;" horiz-adv-x="1028" 
d="M1621 -73q23 12 30.5 2t-3.5 -30q-37 -64 -103 -128.5t-157.5 -116t-206 -84t-248.5 -32.5q-130 0 -244 29t-217 72t-195.5 92.5t-178 90.5t-166 65.5t-159.5 17.5q-17 -2 -21.5 7t8.5 20q38 32 102.5 55t145.5 23q14 0 21 4.5t12 13.5q1 1 15 27l38 70.5l57 104.5
l71 130l79.5 147l84.5 156l340 627h-251q-59 0 -106 -14.5t-82 -36.5t-60.5 -49.5t-42 -52.5t-26 -45.5t-12.5 -29.5q-6 -16 -19 -14.5t-13 17.5v266q0 19 21 19h988l-365 -672l-91 -167l-85.5 -158l-76 -139.5l-61 -112.5l-40.5 -75.5t-16 -29.5q-5 -11 -2.5 -19.5
t14.5 -10.5q99 -20 195.5 -44t192.5 -44t192.5 -33.5t194.5 -13.5q72 0 133 6t115 18t102.5 30t95.5 42z" />
    <glyph glyph-name="Ebreve" unicode="&#x114;" horiz-adv-x="1052" 
d="M1016 1350q21 0 21 -19v-218q0 -15 -12 -16.5t-20 12.5q-6 13 -24 43t-50 61.5t-80 55.5t-115 24q-47 0 -86 -8t-66.5 -25.5t-43 -45t-15.5 -66.5v-437v15q0 -6 4.5 -10.5t10.5 -4.5h128q45 0 73.5 18t45 42t23.5 47.5t9 35.5q1 8 6.5 11.5t11 3t10 -5t4.5 -12.5v-340
q0 -8 -4.5 -12.5t-10 -5t-11 3t-6.5 11.5q-2 12 -9 35.5t-23.5 47.5t-45 42t-73.5 18h-128q-6 0 -10.5 -4.5t-4.5 -10.5v15v-465q0 -47 20 -76t46.5 -46t52.5 -23.5t38 -8.5q9 -2 13.5 -7t4 -10.5t-5.5 -10t-15 -4.5h-638q-10 0 -15 4.5t-5.5 10t4 10.5t13.5 7q12 2 38 8.5
t52.5 23.5t46.5 46t20 76v1019q0 26 -15.5 36.5t-32.5 10.5q-43 0 -95.5 -24t-106.5 -67.5t-105.5 -104.5t-91.5 -135.5t-64.5 -160t-24.5 -177.5q0 -78 15.5 -137t35 -99t37 -62t22.5 -27q8 -8 5 -18.5t-20 -10.5q-6 0 -39.5 3.5t-81.5 17t-102 41t-100 76t-76.5 121.5
t-30.5 178q0 148 87.5 273t244 216.5t372.5 143t474 51.5h514z" />
    <glyph glyph-name="Obreve" unicode="&#x14e;" horiz-adv-x="1208" 
d="M195 1205q0 26 -15.5 36.5t-32.5 10.5q-43 0 -95.5 -24t-106.5 -67.5t-105.5 -104.5t-91.5 -135.5t-64.5 -160t-24.5 -177.5q0 -78 15.5 -137t35 -99t37 -62t22.5 -27q8 -8 5 -18.5t-20 -10.5q-6 0 -39.5 3.5t-81.5 17t-102 41t-100 76t-76.5 121.5t-30.5 178
q0 148 89 277.5t255 226t402.5 152.5t531.5 56q57 0 126 -5.5t138.5 -20.5t133 -42t109.5 -71q17 -17 31.5 -39t25.5 -44q21 -45 30.5 -97t8 -104.5t-13.5 -103t-36 -94.5q-26 -48 -69 -83.5t-94.5 -59t-107.5 -34.5t-108 -11q-24 0 -53 1t-60 5t-62.5 11.5t-61.5 21.5
q-8 5 -11 1t-3 -7v-416q0 -47 20 -76t46.5 -46t52.5 -23.5t38 -8.5q9 -2 13.5 -7t4 -10.5t-5.5 -10t-15 -4.5h-638q-10 0 -15 4.5t-5.5 10t4 10.5t13.5 7q12 2 38 8.5t52.5 23.5t46.5 46t20 76v1019zM644 647q57 0 96 22.5t64 64.5t36 101.5t11 133.5q0 63 -4.5 122t-22 105
t-52.5 73.5t-96 27.5q-46 0 -75 -17t-46 -44t-23.5 -62t-6.5 -71v-330q0 -66 32.5 -96t86.5 -30z" />
    <glyph glyph-name="Ohungarumlaut" unicode="&#x150;" 
d="M765 1378q101 0 192 -24.5t168.5 -69.5t139.5 -108.5t105 -140.5t66.5 -166.5t23.5 -186.5t-25.5 -187.5t-72 -169t-112.5 -144t-146.5 -112t-173.5 -72t-195 -25.5q-153 0 -280.5 54t-219.5 148t-143.5 220.5t-51.5 272.5q0 97 25.5 187.5t72 169.5t112.5 144.5
t146.5 112t173.5 72t195 25.5zM750 31q82 0 143 50.5t101.5 138t60.5 204.5t20 251q0 133 -20 250.5t-60.5 205t-101.5 138t-143 50.5t-143 -50.5t-101.5 -138t-60.5 -205t-20 -250.5q0 -134 20 -251t60.5 -204.5t101.5 -138t143 -50.5zM1169 -519q-130 0 -244 29t-217 72
t-195.5 92.5t-178 90.5t-166 65.5t-159.5 17.5q-17 -2 -21.5 7t8.5 20q38 32 102.5 55t145.5 23q105 0 205 -13.5t197.5 -33t192.5 -43t190 -43t190 -33t192 -13.5q72 0 133 6t115 18t102.5 30t95.5 42q23 12 30.5 2t-3.5 -30q-37 -64 -103 -128.5t-157.5 -116t-206 -84
t-248.5 -32.5z" />
    <glyph glyph-name="wcircumflex" unicode="&#x175;" horiz-adv-x="1270" 
d="M1931 -172q13 -2 19 -7t6 -11t-5 -12.5t-14 -10.5q-71 -32 -153 -48t-182 -16q-123 0 -230.5 30.5t-203 85t-180.5 129t-161.5 162t-146.5 184l-136 196.5q-5 8 -11.5 8t-11.5 -8l-26 -39.5l-44 -67l-53 -82l-53 -82.5l-43.5 -69.5t-24.5 -43.5q-15 -31 -9.5 -49
t20.5 -27.5t34 -12.5l31 -5q9 -2 13.5 -7t4 -10.5t-5.5 -10t-15 -4.5h-350q-10 0 -15 4.5t-5.5 10.5t4 11t13.5 6q15 2 36.5 7t47 17t52 33.5t52.5 56.5l34 48.5l52.5 76l62 90l62 90.5l52.5 76.5l34 49.5q9 14 2 26l-64.5 100.5l-63.5 97.5q-71 108 -147 192t-161 148.5
t-181.5 112t-207.5 82.5q-22 7 -18.5 19.5t19.5 17.5q9 3 26.5 6.5t41.5 7t54 6t63 2.5q142 0 263.5 -38t226.5 -104.5t196.5 -156.5t174.5 -193q9 -11 15.5 -10t13.5 12l29 45.5l38 58.5l41 64.5l39.5 62.5l32.5 52.5t20 35.5q16 30 11 48t-19 27.5t-32.5 13t-30.5 5.5
q-9 1 -13.5 6.5t-4 11t5.5 10t15 4.5h346q10 0 15 -4.5t5.5 -10.5t-4 -11t-13.5 -6q-15 -2 -36.5 -7t-46.5 -17.5t-52 -34t-53 -55.5l-27 -37l-41 -58.5l-49 -71l-51 -74l-47 -69l-36 -53.5q-5 -7 -6.5 -12.5t3.5 -13.5l102 -142.5l98.5 -144.5l97 -142t98.5 -135
q84 -113 174.5 -187t186.5 -121t196 -73t204 -42z" />
    <glyph glyph-name="Lcaron" unicode="&#x13d;" horiz-adv-x="1654" 
d="M352 1080q-31 -497 -98.5 -846.5t-169.5 -569.5t-238 -320.5t-304 -100.5q-87 0 -146 30t-95 78t-51.5 107.5t-15.5 117.5q0 15 9.5 20t20.5 -6q12 -12 24 -21.5t28.5 -16.5t39 -10.5t54.5 -3.5q84 0 166 47t160 128.5t149.5 191.5t133.5 235.5t113 261t87 268.5
t55.5 257t19.5 227q0 31 -9.5 55t-24.5 41t-34 28.5t-37.5 19.5t-35.5 12.5l-28 7.5q-9 3 -13.5 8t-4 10.5t5.5 9.5t15 4h466q14 0 25 -6t14 -18q7 -25 18 -68.5l25.5 -98l30 -116l31 -122.5l30.5 -118l26.5 -103l19 -76l9.5 -38q2 -5 6 -5.5t6 4.5l14 34.5l30 74.5
l41 102.5l47.5 119.5l49 124.5l46.5 117.5l39.5 99l27.5 69q10 24 41 24h442q10 0 15 -4.5t5.5 -10t-4 -11t-13.5 -6.5q-12 -2 -38 -9t-52.5 -23.5t-46.5 -46t-20 -75.5v-978q0 -47 20 -76t46.5 -46t52.5 -23.5t38 -8.5q9 -2 13.5 -7t4 -10.5t-5.5 -10t-15 -4.5h-638
q-10 0 -15 4.5t-5.5 10t4 10.5t13.5 7q12 2 38 8.5t52.5 23.5t46.5 46t20 76v927q0 7 -5.5 9.5t-10.5 -7.5q-2 -4 -15 -36.5l-34 -86l-49 -123l-59 -147.5l-63.5 -160l-63.5 -159.5l-58.5 -146.5l-48.5 -121.5l-34 -83.5t-14 -33q-6 -10 -15.5 -10t-14.5 10q-1 2 -13 48
l-31 120l-43 168l-49 192l-49 192.5l-43 170l-31.5 123t-14.5 52.5q-3 8 -10 8t-8 -12z" />
    <glyph glyph-name="Abreve" unicode="&#x102;" horiz-adv-x="1198" 
d="M195 1205q0 26 -15.5 36.5t-32.5 10.5q-43 0 -95.5 -24t-106.5 -67.5t-105.5 -104.5t-91.5 -135.5t-64.5 -160t-24.5 -177.5q0 -78 15.5 -137t35 -99t37 -62t22.5 -27q8 -8 5 -18.5t-20 -10.5q-6 0 -39.5 3.5t-81.5 17t-102 41t-100 76t-76.5 121.5t-30.5 178
q0 98 39.5 189.5t113 170.5t178.5 144t236 111t285 71.5t326 25.5q131 0 227 -14.5t163 -40t109 -60.5t65.5 -75.5t32 -84.5t8.5 -88q0 -40 -10 -82.5t-33.5 -83.5t-63 -77t-97.5 -63q-6 -3 -5 -6.5t7 -5.5q82 -21 135 -56.5t84 -80t43 -96t12 -105.5q0 -72 -25 -137
t-81.5 -114.5t-148 -78.5t-224.5 -29h-659q-10 0 -15 4.5t-5.5 10t4 10.5t13.5 7q12 2 38 8.5t52.5 23.5t46.5 46t20 76v1019zM525 785q0 -28 15.5 -44.5t44.5 -16.5q26 0 57.5 12t58.5 46.5t45 97t18 163.5q0 44 -3 89t-16 81.5t-38 59.5t-69 23q-36 0 -58.5 -13.5
t-34.5 -41t-16 -68t-4 -94.5v-294zM658 57q39 0 65.5 16.5t44 43.5t27 60.5t13.5 67.5t5 65t1 53q0 76 -12 128.5t-32 86.5t-44.5 52.5t-49 27t-47 10t-37.5 1.5q-31 0 -49 -16.5t-18 -44.5v-314q0 -54 5.5 -98t20.5 -74.5t40.5 -47.5t66.5 -17z" />
    <glyph glyph-name="Umacron" unicode="&#x16a;" horiz-adv-x="1166" 
d="M139 1135q-24 54 -42.5 78t-47.5 24q-37 0 -86.5 -23t-102 -64.5t-103.5 -101t-91.5 -132t-65 -157t-24.5 -176.5q0 -78 15.5 -137t35 -99t37 -62t22.5 -27q8 -8 5 -18.5t-20 -10.5q-4 0 -24.5 1.5t-51.5 8t-69.5 18.5t-78 33.5t-76.5 53.5t-66 77.5t-46.5 106
t-17.5 138.5q0 148 87.5 273t244 216.5t372.5 143t474 51.5h168q7 0 11.5 -4t6 -9.5t-2 -10.5t-13.5 -8l-34.5 -10.5t-47.5 -26t-36.5 -49.5t0.5 -80q10 -39 28.5 -93.5l40.5 -116.5l45.5 -126.5l45.5 -122.5l40 -105l29 -74q3 -9 10 -8.5t9 8.5l28.5 79l41 114l47.5 133
l48 136l41.5 123t29.5 94q10 36 -1 59t-31.5 36.5t-44 19.5l-38.5 10q-9 2 -12 7.5t-2 11t5.5 9.5t12.5 4h370q7 0 11.5 -4t5.5 -9.5t-2.5 -10.5t-11.5 -7q-54 -14 -96.5 -43t-68.5 -89q-14 -32 -37.5 -92l-54 -138l-65 -169l-70.5 -186l-71 -188l-65.5 -175l-55.5 -148.5
l-40 -106.5q-5 -11 -15.5 -12.5t-15.5 11.5l-34.5 98l-49 138l-59 165l-64 178.5l-64.5 178l-60.5 163.5l-52 136t-39.5 95z" />
    </font>
</defs>
</svg>
